<svg width="70" height="80" viewBox="0 0 70 80" fill="none" xmlns="http://www.w3.org/2000/svg">
<path d="M0.854313 79.9633H1.32607V77.2904H2.1805V76.8735H0.00512695V77.2904H0.854313V79.9633Z" fill="#979797"/>
<path d="M7.31688 76.8892H6.92374L5.7915 79.9789H6.31569L6.55159 79.2911H7.72577L7.96691 79.9789H8.4911L7.31688 76.8892ZM6.67739 78.8587L7.12818 77.5092L7.58423 78.8587H6.67739Z" fill="#979797"/>
<path d="M13.1567 77.5401C13.2092 77.4746 13.2754 77.4213 13.3506 77.3837C13.4404 77.3399 13.539 77.3168 13.639 77.316C13.7774 77.3168 13.9118 77.3625 14.0216 77.4463C14.1189 77.5316 14.1913 77.6414 14.2313 77.7641H14.7555C14.7103 77.5133 14.5832 77.2844 14.3938 77.1128C14.194 76.9348 13.9333 76.8397 13.6652 76.8471C13.4472 76.8413 13.2328 76.9032 13.0519 77.0242C12.8993 77.1167 12.7744 77.248 12.6902 77.4046C12.6364 77.4941 12.6008 77.5932 12.5853 77.6964C12.5584 77.9368 12.5479 78.1788 12.5539 78.4206C12.5481 78.659 12.5586 78.8975 12.5853 79.1344C12.5943 79.1911 12.6083 79.2469 12.6273 79.3011C12.7072 79.5166 12.8564 79.6997 13.0519 79.8222C13.2328 79.9432 13.4472 80.0051 13.6652 79.9993C13.811 80.0014 13.9558 79.9744 14.0909 79.9199C14.2261 79.8654 14.3488 79.7845 14.452 79.682C14.5551 79.5795 14.6365 79.4575 14.6913 79.3231C14.7462 79.1888 14.7733 79.0449 14.7712 78.8999V78.2747H13.6652V78.7176H14.2994V78.8739C14.3035 78.9605 14.2893 79.0469 14.2577 79.1277C14.2261 79.2085 14.1778 79.2818 14.116 79.3428C14.0586 79.4042 13.9887 79.4526 13.9109 79.485C13.8332 79.5173 13.7494 79.5328 13.6652 79.5304C13.5645 79.5358 13.4644 79.5123 13.3769 79.4627C13.3016 79.4251 13.2354 79.3718 13.1829 79.3064C13.1171 79.233 13.0735 79.1427 13.0571 79.0458C13.0304 78.842 13.0199 78.6365 13.0256 78.431C13.02 78.2221 13.0305 78.0131 13.0571 77.8058C13.0649 77.7098 13.0994 77.6178 13.1567 77.5401Z" fill="#979797"/>
<path d="M20.6216 76.8735V79.9633H22.6083V79.5204H21.0934V76.8735H20.6216Z" fill="#979797"/>
<path d="M27.4513 76.8735H26.9795V79.9633H27.4513V76.8735Z" fill="#979797"/>
<path d="M32.0381 76.8735V79.9633H32.5099V77.7697H32.5151L33.9252 79.9633H34.3707V76.8735H33.899V79.0723H33.8885L32.4836 76.8735H32.0381Z" fill="#979797"/>
<path d="M40.9394 77.3164V76.8735H38.958V79.9633H40.9394V79.5204H39.4298V78.6138H40.7193V78.197H39.4298V77.3164H40.9394Z" fill="#979797"/>
<path d="M50.4427 79.9633V76.8735H49.971V78.197H48.7391V76.8735H48.2673V79.9633H48.7391V78.6138H49.971V79.9633H50.4427Z" fill="#979797"/>
<path d="M57.0105 77.3164V76.8735H55.0291V79.9633H57.0105V79.5204H55.4956V78.6138H56.7903V78.197H55.4956V77.3164H57.0105Z" fill="#979797"/>
<path d="M62.9386 78.5933C63.1199 78.5371 63.2774 78.4228 63.3865 78.2682C63.4955 78.1136 63.55 77.9275 63.5414 77.7388C63.5445 77.6123 63.5182 77.4868 63.4645 77.3721C63.4109 77.2573 63.3314 77.1564 63.2321 77.0771C63.0519 76.9362 62.8269 76.8641 62.5978 76.8739H61.387V79.9637H61.8587V78.6454H62.4563L63.1011 79.9637H63.662L62.9386 78.5933ZM61.8587 78.2286V77.2908H62.5926C62.7161 77.2821 62.8386 77.3172 62.9386 77.3898C62.992 77.4303 63.0343 77.4835 63.0618 77.5445C63.0892 77.6054 63.1009 77.6722 63.0958 77.7388C63.0991 77.8645 63.0519 77.9864 62.9648 78.0775C62.9127 78.129 62.8504 78.1691 62.7817 78.1951C62.7131 78.2212 62.6397 78.2326 62.5664 78.2286H61.8587Z" fill="#979797"/>
<path d="M69.9634 77.3164V76.8735H67.9819V79.9633H69.9634V79.5204H68.4537V78.6138H69.7432V78.197H68.4537V77.3164H69.9634Z" fill="#979797"/>
<path d="M3.29145 73.2421C3.96723 73.2536 4.63004 73.057 5.18902 72.6794C5.74502 72.3057 6.15568 71.7541 6.35274 71.1163H4.48662C4.38316 71.3346 4.21685 71.5175 4.00876 71.6418C3.80067 71.766 3.56017 71.8262 3.31769 71.8145C3.08167 71.8241 2.84636 71.7825 2.62818 71.6925C2.41001 71.6025 2.21419 71.4664 2.05437 71.2935C1.75512 70.9125 1.59257 70.443 1.59257 69.9596C1.59257 69.4763 1.75512 69.0068 2.05437 68.6258C2.21419 68.4529 2.41001 68.3167 2.62818 68.2267C2.84636 68.1367 3.08167 68.0951 3.31769 68.1047C3.56017 68.0931 3.80067 68.1532 4.00876 68.2775C4.21685 68.4018 4.38316 68.5846 4.48662 68.8029H6.35274C6.15454 68.1657 5.74414 67.6145 5.18902 67.2398C4.63004 66.8622 3.96723 66.6656 3.29145 66.6771C2.86027 66.6673 2.43155 66.744 2.03079 66.9024C1.63004 67.0609 1.26548 67.2979 0.95883 67.5993C0.344047 68.2268 0 69.0681 0 69.944C0 70.8199 0.344047 71.6611 0.95883 72.2886C1.26266 72.596 1.626 72.8389 2.02692 73.0028C2.42784 73.1667 2.858 73.2481 3.29145 73.2421Z" fill="#979797"/>
<path d="M17.203 69.9754C17.213 69.5448 17.1352 69.1166 16.9741 68.7168C16.8131 68.3169 16.5722 67.9536 16.2661 67.6488C15.9599 67.3439 15.5948 67.1039 15.1927 66.9432C14.7907 66.7825 14.3601 66.7045 13.9268 66.7137C13.4948 66.7039 13.0653 66.7804 12.6636 66.9389C12.262 67.0973 11.8965 67.3344 11.5889 67.636C10.9741 68.2635 10.6301 69.1047 10.6301 69.9806C10.6301 70.8565 10.9741 71.6978 11.5889 72.3253C12.2168 72.9206 13.0512 73.2527 13.919 73.2527C14.7867 73.2527 15.6211 72.9206 16.249 72.3253C16.5642 72.0215 16.812 71.6554 16.9763 71.2507C17.1406 70.846 17.2178 70.4116 17.203 69.9754ZM15.1482 71.3092C14.819 71.6294 14.3768 71.8087 13.9163 71.8087C13.4558 71.8087 13.0136 71.6294 12.6845 71.3092C12.3852 70.9283 12.2227 70.4588 12.2227 69.9754C12.2227 69.492 12.3852 69.0226 12.6845 68.6416C13.0136 68.3214 13.4558 68.1421 13.9163 68.1421C14.3768 68.1421 14.819 68.3214 15.1482 68.6416C15.4474 69.0226 15.61 69.492 15.61 69.9754C15.61 70.4588 15.4474 70.9283 15.1482 71.3092Z" fill="#979797"/>
<path d="M29.1187 66.8081H27.3312L25.4965 71.2004L23.6514 66.8081H21.8586V73.1804H23.4207V69.5852L24.9094 73.1804H26.0731L27.5618 69.5852V73.1804H29.1187V66.8081Z" fill="#979797"/>
<path d="M35.7076 70.6999H36.6721C37.0671 70.7096 37.4603 70.6442 37.8306 70.5071C38.1177 70.4019 38.3712 70.2219 38.5644 69.9861C38.8567 69.6351 39.021 69.1963 39.0309 68.7408C39.0328 68.4804 38.978 68.2227 38.8703 67.9853C38.7627 67.7479 38.6047 67.5364 38.4072 67.3653C37.9258 66.9572 37.3034 66.7516 36.6721 66.7921H34.1455V73.1644H35.7181L35.7076 70.6999ZM35.7076 67.9853H36.6721C36.7758 67.9806 36.8794 67.9976 36.976 68.0353C37.0726 68.073 37.1602 68.1306 37.233 68.2041C37.3731 68.3558 37.4483 68.5558 37.4427 68.7616C37.4472 68.8626 37.4314 68.9634 37.3963 69.0582C37.3612 69.1531 37.3075 69.24 37.2382 69.3139C37.1627 69.3845 37.0736 69.4393 36.9764 69.4751C36.8791 69.5109 36.7757 69.527 36.6721 69.5224H35.7076V67.9853Z" fill="#979797"/>
<path d="M45.2478 66.7871L43.02 73.1802H44.6817L45.0381 72.1069H47.3393L47.6958 73.1802H49.368L47.1506 66.7871H45.2478ZM45.4313 70.9293L46.1914 68.6576L46.9515 70.9293H45.4313Z" fill="#979797"/>
<path d="M59.5266 73.1802V66.7871H57.9646V70.8095L55.3541 66.7871H53.792V73.1802H55.3541V69.1578L57.9646 73.1802H59.5266Z" fill="#979797"/>
<path d="M66.2205 71.1275V73.1804H67.7826V71.1275L69.9999 66.8081H68.2281L67.0068 69.6842L65.7749 66.8081H64.0032L66.2205 71.1275Z" fill="#979797"/>
<path d="M39.2723 7.71094C40.2675 9.09682 41.0599 10.616 41.6259 12.2231C42.3308 12.3168 43.0306 12.4455 43.7226 12.6087L44.0686 12.692L44.1525 12.7181L44.5928 12.8379L45.0122 12.963L45.3739 13.0776L45.746 13.2026C45.8614 13.2391 45.9714 13.2808 46.0867 13.3277C46.2021 13.3746 46.3174 13.411 46.4275 13.4527C47.0911 13.7076 47.7403 13.998 48.3722 14.3229C48.5242 14.401 48.671 14.474 48.8178 14.5573C49.0694 14.6928 49.342 14.8335 49.5621 14.9794L49.8714 15.1669L50.0182 15.2555L50.3484 15.4691L50.6577 15.6775C51.8612 16.4976 52.9751 17.4406 53.9811 18.4911C54.1016 18.6058 54.2117 18.7308 54.3218 18.8506L54.5943 19.1581C54.7411 19.3248 54.8879 19.4915 55.0242 19.6791C55.1605 19.8667 55.1972 19.8823 55.2758 19.9865L55.6008 20.4085C55.7004 20.5388 55.8 20.6743 55.8944 20.8097C55.9887 20.9452 56.0936 21.0859 56.1827 21.2213C56.3714 21.4975 56.5548 21.7736 56.7069 22.0602L56.9637 22.4927C57.0476 22.6386 57.1315 22.7844 57.2101 22.9303C57.3831 23.2482 57.5508 23.5712 57.7028 23.8943C57.7657 24.0245 57.8286 24.1548 57.8863 24.285L58.0593 24.6706C58.1117 24.7852 58.1589 24.8998 58.206 25.0197L58.3318 25.3427C58.4367 25.6137 58.5415 25.8898 58.6359 26.166C58.6883 26.3275 58.7459 26.489 58.7931 26.6505C58.8403 26.8068 58.8875 26.9631 58.9294 27.1194C59.0605 27.5675 59.1706 28.0208 59.2702 28.4793C59.2964 28.594 59.3173 28.7086 59.3435 28.8284C59.3697 28.9483 59.3435 28.9639 59.3802 29.0264L59.4274 29.2974C59.4274 29.4224 59.4693 29.5527 59.4851 29.6777C59.5008 29.8028 59.527 29.9382 59.5427 30.0685C59.5584 30.1988 59.5427 30.1831 59.5427 30.2404L59.5742 30.5322C59.5742 30.6208 59.5742 30.7146 59.6004 30.8084C59.6266 30.9022 59.6004 31.0897 59.6371 31.2304C59.6738 31.3711 59.6633 31.5587 59.6685 31.7514C59.6738 31.9442 59.6685 32.1057 59.6685 32.2725C59.6685 32.4392 59.6685 32.6268 59.6685 32.7935C59.6602 38.2959 57.4571 43.5704 53.5423 47.4606C49.6275 51.3509 44.3204 53.5394 38.7848 53.5463H38.2606C38.0771 53.5463 37.9041 53.5463 37.7364 53.5463C37.5686 53.5463 37.3852 53.5463 37.2122 53.515L36.7247 53.4681L36.3054 53.4265L36.0485 53.39L35.6816 53.3379H35.6449L35.2779 53.2806L34.9686 53.2233L34.5126 53.1347C33.7032 52.9643 32.9049 52.7451 32.1223 52.4782L31.661 52.3167C31.5142 52.2645 31.3675 52.2124 31.2207 52.1499C31.0739 52.0874 30.8223 51.9884 30.6231 51.905L30.2509 51.7435C30.1146 51.6862 29.9784 51.6185 29.8473 51.5559C29.7163 51.4934 29.5066 51.3944 29.3231 51.3058L28.9038 51.087L28.432 50.8265L28.0022 50.5712C27.7348 50.4097 27.478 50.2429 27.2211 50.0501L27.1635 50.0085L26.7493 49.7219C26.613 49.6281 26.4768 49.5343 26.3457 49.4301L25.9473 49.1279L25.6276 48.8726C25.4599 48.7371 25.2851 48.5965 25.1034 48.4506L24.7784 48.164C24.6578 48.0546 24.532 47.9452 24.4167 47.8253L24.055 47.4762C23.8244 47.2522 23.599 47.0125 23.3788 46.7729C23.2635 46.6478 23.1482 46.5175 23.0328 46.3821C22.8127 46.1372 22.603 45.861 22.3986 45.6266L22.0316 45.1472L21.822 44.8607L21.7538 44.7617C21.6699 44.647 21.5861 44.5272 21.5074 44.4021C21.4288 44.2771 21.345 44.1677 21.2716 44.0478C21.1982 43.928 21.0514 43.7092 20.9465 43.5268C20.7718 43.2489 20.6093 42.9676 20.459 42.6827C20.155 42.1617 19.8825 41.5677 19.6308 40.9894L19.4579 40.583C19.4159 40.4788 19.374 40.3798 19.3373 40.2808L19.2272 39.9994C19.1905 39.9004 19.1538 39.8014 19.1224 39.7024C19.0909 39.6034 19.0228 39.4211 18.9756 39.2804C18.9284 39.1397 18.8813 38.9938 18.8393 38.8479C18.8369 38.8324 18.8369 38.8166 18.8393 38.801C18.7921 38.6656 18.7502 38.5197 18.7135 38.379C18.6768 38.2383 18.6296 38.0768 18.5929 37.9257C18.4776 37.4672 18.3728 37.0035 18.2889 36.5397C18.2575 36.3834 18.2312 36.2271 18.2103 36.0708C18.2103 35.9145 18.1579 35.753 18.1369 35.5967C16.5186 35.0346 14.9872 34.2507 13.5869 33.2676C13.6739 38.1951 15.2188 42.9881 18.0288 47.0484C20.8388 51.1088 24.7894 54.2568 29.3878 56.0997C33.9862 57.9426 39.0288 58.3988 43.8864 57.4113C48.7439 56.4239 53.2014 54.0365 56.7027 50.547C60.2039 47.0576 62.5939 42.6206 63.5745 37.7897C64.555 32.9588 64.0827 27.9478 62.2164 23.382C60.3502 18.8162 57.1726 14.8977 53.0802 12.1155C48.9877 9.33324 44.1617 7.8104 39.2041 7.73699L39.2723 7.71094ZM18.1159 30.8344C18.1159 30.6833 18.1159 30.527 18.1631 30.3759C18.2103 30.2248 18.1998 30.0685 18.2208 29.9174C18.2417 29.7663 18.268 29.6152 18.2889 29.4641L18.3675 29.0108C18.4829 28.4116 18.6192 27.8228 18.7817 27.2393C18.8184 27.0986 18.8655 26.9527 18.9075 26.812C18.9442 26.7026 18.9756 26.588 19.0123 26.4786L19.0595 26.3327C19.1014 26.2076 19.1433 26.0826 19.1905 25.9575C19.2234 25.848 19.262 25.7402 19.3059 25.6345L19.3845 25.4261C19.4788 25.1864 19.5732 24.9467 19.6728 24.7071C19.7724 24.4674 19.9139 24.1548 20.0502 23.8838L20.2389 23.4983L20.3647 23.2534L20.5167 22.9668L20.5744 22.8678C20.6425 22.7376 20.7159 22.6125 20.7893 22.4822L20.9885 22.1436L21.172 21.8466L21.3449 21.5809C21.5861 21.2109 21.8377 20.8462 22.0998 20.4919L22.3671 20.1428L22.5768 19.8771C22.7865 19.6166 23.0014 19.356 23.232 19.1059C23.3211 19.0017 23.4155 18.8975 23.5098 18.7985C23.7038 18.5797 23.9082 18.3661 24.1179 18.1577L24.3748 17.9076L24.7784 17.5272L25.0824 17.2563C25.2659 17.0948 25.4546 16.9384 25.6433 16.7821C25.7377 16.704 25.832 16.6258 25.9316 16.5529C26.351 16.2194 26.7861 15.9016 27.2316 15.6046C27.3574 15.516 27.4885 15.4327 27.6195 15.3493C27.7506 15.2659 27.8239 15.219 27.9288 15.1565C28.0336 15.094 28.086 15.0575 28.1647 15.0106C28.2433 14.9637 28.3953 14.8699 28.5106 14.8074C28.626 14.7449 28.8042 14.6407 28.9509 14.5625C29.0977 14.4844 29.2497 14.401 29.4017 14.3281C29.5538 14.2551 29.7006 14.1718 29.8526 14.104C30.1199 13.979 30.3768 13.8539 30.6651 13.7393C30.9534 13.6247 31.0792 13.5674 31.2888 13.4892C31.4985 13.411 31.5614 13.3798 31.6977 13.3329C31.834 13.286 31.9441 13.2391 32.0699 13.2026C32.1316 13.1769 32.1946 13.1543 32.2586 13.1349L32.6675 13.0046L33.1602 12.8588L33.6582 12.7233L34.0985 12.6139L34.434 12.5409L34.5807 12.5097L34.8376 12.4576L35.2832 12.3742L35.6029 12.3221L35.9437 12.2752C36.2372 12.2335 36.5308 12.197 36.8295 12.1658C36.1082 10.6815 35.1286 9.33566 33.936 8.19029C29.0439 9.16702 24.5521 11.5608 21.0261 15.0702C17.5001 18.5795 15.0978 23.0475 14.1216 27.9114C15.2704 29.111 16.6224 30.1004 18.1159 30.8344Z" fill="#979797"/>
<path d="M42.3548 14.9329C41.215 14.7123 40.0563 14.6024 38.8951 14.6046C38.5282 14.6046 38.1665 14.6046 37.8048 14.6359C38.4546 17.0039 38.464 19.5004 37.8321 21.8731C37.2001 24.2459 35.9492 26.4108 34.2057 28.149C32.4623 29.8872 30.2881 31.1372 27.903 31.7725C25.5178 32.4079 23.0061 32.4062 20.6218 31.7675C20.6218 32.1114 20.5956 32.45 20.5956 32.8096C20.5942 33.9815 20.7084 35.1507 20.9363 36.3005C23.8735 36.8334 26.897 36.6488 29.7465 35.7626C32.5961 34.8765 35.1862 33.3153 37.2941 31.2134C39.402 29.1116 40.9644 26.5321 41.8469 23.6969C42.7293 20.8617 42.9055 17.8559 42.36 14.9381L42.3548 14.9329ZM24.2597 5.41143e-05C20.6372 0.00628469 17.0972 1.07495 14.0831 3.07215C11.0689 5.06935 8.71479 7.90627 7.31557 11.2275C5.91636 14.5487 5.53431 18.2065 6.21728 21.7425C6.90025 25.2786 8.61785 28.5357 11.1549 31.1058C11.2726 29.1329 11.603 27.1782 12.1404 25.2754C10.5956 22.6189 9.97513 19.5301 10.3752 16.4876C10.7753 13.4451 12.1735 10.6186 14.3533 8.44599C16.5332 6.27334 19.373 4.8758 22.4328 4.46982C25.4926 4.06384 28.6018 4.67209 31.2786 6.20036C33.1906 5.66095 35.1554 5.32731 37.1391 5.20518C33.6992 1.85783 29.0736 -0.0115947 24.2597 5.41143e-05Z" fill="#979797"/>
</svg>
