<svg width="60" height="80" viewBox="0 0 60 80" fill="none" xmlns="http://www.w3.org/2000/svg">
<path d="M42.911 19.1812L35.0068 27.1465L38.0595 30.2227L45.9637 22.2575L42.911 19.1812Z" fill="#979797"/>
<path d="M26.9347 35.273L19.0305 43.2383L22.0832 46.3145L29.9874 38.3493L26.9347 35.273Z" fill="#979797"/>
<path d="M37.893 14.1226L29.9888 22.0879L33.0414 25.1641L40.9456 17.1989L37.893 14.1226Z" fill="#979797"/>
<path d="M21.914 30.2149L14.0098 38.1802L17.0624 41.2564L24.9666 33.2911L21.914 30.2149Z" fill="#979797"/>
<path d="M17.06 19.1762L14.0073 22.2524L21.9115 30.2177L24.9642 27.1415L17.06 19.1762Z" fill="#979797"/>
<path d="M22.0803 14.1196L19.0276 17.1958L26.9318 25.1611L29.9845 22.0848L22.0803 14.1196Z" fill="#979797"/>
<path d="M38.0575 30.2192L35.0049 33.2954L42.9091 41.2607L45.9618 38.1844L38.0575 30.2192Z" fill="#979797"/>
<path d="M33.0375 35.2763L29.9849 38.3525L37.8891 46.3178L40.9417 43.2416L33.0375 35.2763Z" fill="#979797"/>
<path d="M40.9396 49.395L37.8877 46.3149L29.9836 54.2801L22.0795 46.3149L19.0276 49.395L29.9836 60.4357L40.9396 49.395Z" fill="#979797"/>
<path d="M14.0079 22.2553L10.956 19.1753L0 30.2205L10.956 41.2566L14.0079 38.1812L6.10382 30.2205L14.0079 22.2553Z" fill="#979797"/>
<path d="M49.0126 19.1753L45.9607 22.2553L53.8648 30.2205L45.9607 38.1812L49.0126 41.2566L59.9686 30.2205L49.0126 19.1753Z" fill="#979797"/>
<path d="M37.8877 14.1207L40.9396 11.0407L29.9836 0L19.0276 11.0407L22.0795 14.1207L29.9836 6.15555L37.8877 14.1207Z" fill="#979797"/>
<path d="M4.81595 74.2046C5.3113 73.7981 5.65506 73.2342 5.79094 72.6052V72.5458L4.83409 72.3082V72.363C4.75414 72.8155 4.5277 73.2285 4.19016 73.5375C3.85708 73.8005 3.4432 73.9379 3.02018 73.9259C2.64802 73.9262 2.28222 73.8286 1.95905 73.6426C1.63272 73.4378 1.38371 73.129 1.25162 72.7652C0.949827 71.9366 0.937038 71.0292 1.21535 70.1924C1.33918 69.8247 1.5738 69.5052 1.88649 69.2784C2.24443 69.0474 2.66339 68.9312 3.0882 68.9448C3.4556 68.9285 3.8179 69.0362 4.11761 69.251C4.42303 69.4979 4.64097 69.8377 4.73887 70.2198V70.27L5.68664 70.0507V69.9913C5.52747 69.4448 5.19842 68.9643 4.74793 68.6203C4.26664 68.2852 3.69099 68.1154 3.10635 68.1359C2.55736 68.1297 2.01531 68.2599 1.52824 68.5153C1.05411 68.7757 0.668621 69.1737 0.421764 69.6577C0.153444 70.1992 0.0196063 70.7982 0.0317663 71.4033C0.0270238 71.9921 0.142804 72.5754 0.371875 73.117C0.573738 73.6229 0.92727 74.0526 1.38314 74.3463C1.90162 74.6527 2.49679 74.8018 3.09728 74.7759C3.71747 74.7847 4.32265 74.5835 4.81595 74.2046Z" fill="#979797"/>
<path d="M14.5793 73.1859C14.8529 72.646 14.99 72.0463 14.9784 71.4402C14.9853 70.8474 14.8565 70.261 14.602 69.7265C14.3532 69.231 13.9694 68.8173 13.4955 68.5338C13.0001 68.2485 12.4381 68.1018 11.8676 68.1088C11.4471 68.092 11.0278 68.1647 10.6372 68.3222C10.2465 68.4797 9.89311 68.7184 9.60016 69.0228C8.9929 69.7088 8.67985 70.6091 8.72948 71.527C8.72574 72.0834 8.85647 72.6324 9.1104 73.1265C9.35088 73.6257 9.7307 74.0434 10.2033 74.3283C10.6968 74.6297 11.2633 74.7878 11.8403 74.7853C12.3917 74.7883 12.9347 74.6499 13.4184 74.3832C13.9211 74.1175 14.3275 73.6984 14.5793 73.1859ZM11.8585 73.9262C11.5749 73.931 11.2933 73.8771 11.0312 73.7679C10.7692 73.6586 10.5321 73.4963 10.3348 73.291C9.9158 72.8032 9.69975 72.1714 9.73168 71.527C9.73168 70.6131 9.94934 69.9276 10.3665 69.5346C10.7719 69.149 11.3102 68.9376 11.8676 68.9451C12.2604 68.9404 12.6468 69.0465 12.9831 69.2513C13.3123 69.4597 13.5727 69.7618 13.7313 70.1195C13.9079 70.5366 13.9945 70.9868 13.9853 71.4402C14.0236 72.1033 13.8114 72.7564 13.3912 73.2681C13.1968 73.4816 12.9597 73.651 12.6954 73.7653C12.4312 73.8795 12.1459 73.9359 11.8585 73.9308V73.9262Z" fill="#979797"/>
<path d="M24.4971 68.3276H23.5811V74.7574H24.4971V68.3276Z" fill="#979797"/>
<path d="M21.8034 74.7574L23.241 70.6674V68.3825L21.7173 72.7558C21.5948 73.1077 21.4996 73.3819 21.4361 73.6012L21.1776 72.8426L19.6585 68.3276H19.5542V70.6583L20.96 74.7711L21.8034 74.7574Z" fill="#979797"/>
<path d="M19.2139 68.3276H18.2888V74.7574H19.2139V68.3276Z" fill="#979797"/>
<path d="M32.2556 71.6132C32.4332 71.427 32.5723 71.2071 32.665 70.9663C32.7576 70.7255 32.8019 70.4685 32.7952 70.2103C32.8003 69.9029 32.7319 69.5988 32.5957 69.3238C32.4755 69.071 32.2908 68.8549 32.0606 68.6977C31.8172 68.5369 31.5416 68.4323 31.2534 68.3915C30.9295 68.3403 30.6016 68.3189 30.2739 68.3275H29.0994V69.1821H30.3374C30.5973 69.1706 30.8576 69.1906 31.1128 69.2415C31.3184 69.2911 31.4981 69.4167 31.6162 69.5934C31.7482 69.7827 31.8137 70.0111 31.8021 70.2423C31.8107 70.3909 31.7866 70.5396 31.7318 70.6778C31.6769 70.816 31.5926 70.9403 31.4847 71.042C31.1509 71.2624 30.7529 71.3623 30.3555 71.3253H29.0994V72.1936H30.3464C31.2534 72.1936 31.9064 71.9925 32.2556 71.6132Z" fill="#979797"/>
<path d="M28.7644 68.3276H27.8076V74.7574H28.7644V68.3276Z" fill="#979797"/>
<path d="M39.5836 68.3276H38.5996L36.1055 74.7574H37.1167L37.3979 74.0033L38.1189 72.052L38.2685 71.6499L38.7991 70.2287C38.9121 69.918 39.006 69.6005 39.0803 69.2782C39.1755 69.5843 39.3115 69.9545 39.4703 70.3749L40.1142 72.052H38.4771L38.1824 72.8426H40.4135L41.1617 74.7574H42.2501L39.5836 68.3276Z" fill="#979797"/>
<path d="M49.6602 73.1259V74.7574H50.6079V68.3276H49.6783V73.1534L49.6602 73.1259Z" fill="#979797"/>
<path d="M46.3542 68.3276H45.4653V74.7574H46.3542V68.3276Z" fill="#979797"/>
<path d="M49.32 72.6234L46.6943 68.7437V70.3842L49.32 74.2685V72.6234Z" fill="#979797"/>
<path d="M58.8663 68.3276L57.6102 70.2104C57.3653 70.5851 57.1567 70.937 56.9572 71.2386L56.4312 72.052V74.7665H57.3925V72.052L59.9909 68.3368L58.8663 68.3276Z" fill="#979797"/>
<path d="M56.3626 70.2607L55.0883 68.3276H53.9138L56.222 71.7367L56.7617 70.8959L56.3626 70.2607Z" fill="#979797"/>
<path d="M1.01604 79.9812V77.9613H1.6509V77.646H0.0319824V77.9613H0.666849V79.9812H1.01604Z" fill="#979797"/>
<path d="M4.50357 77.6504H4.21334L3.36987 79.981H3.75986L3.94125 79.4555H4.81645L4.99332 79.981H5.36517L4.50357 77.6504ZM4.01834 79.1447L4.35391 78.1256L4.68948 79.1447H4.01834Z" fill="#979797"/>
<path d="M7.8684 78.1528C7.90763 78.1001 7.95899 78.0577 8.01806 78.0294C8.08341 77.9989 8.15463 77.9833 8.22666 77.9837C8.32995 77.982 8.43075 78.0159 8.51235 78.0797C8.58607 78.1426 8.641 78.2248 8.67105 78.3173H9.04291C9.00653 78.1302 8.91298 77.9593 8.77536 77.8284C8.6247 77.6931 8.42834 77.6212 8.22666 77.6273C8.06569 77.6244 7.90761 77.6706 7.77318 77.7598C7.66037 77.8318 7.56691 77.9307 7.50109 78.0477C7.46377 78.1178 7.43774 78.1934 7.42399 78.2716C7.40514 78.4523 7.39757 78.6339 7.40132 78.8155C7.39794 78.9955 7.4055 79.1756 7.42399 79.3547C7.43234 79.3964 7.44294 79.4376 7.45574 79.4781C7.45574 79.5101 7.48748 79.542 7.50109 79.5786C7.56593 79.6952 7.65968 79.7928 7.77318 79.8619C7.90722 79.9525 8.06526 80.0003 8.22666 79.9991C8.3359 79.9998 8.44422 79.9787 8.54538 79.9372C8.64655 79.8956 8.73856 79.8343 8.81617 79.7568C8.89197 79.6799 8.95186 79.5886 8.99234 79.4882C9.03282 79.3878 9.0531 79.2803 9.05199 79.1719V78.7149H8.23118V79.0485H8.68466V79.1673C8.68713 79.2329 8.67635 79.2984 8.65297 79.3596C8.62958 79.4209 8.59408 79.4767 8.54862 79.5238C8.5049 79.57 8.45205 79.6065 8.39347 79.6309C8.33489 79.6553 8.27188 79.6671 8.20851 79.6654C8.13522 79.6675 8.06286 79.6485 7.99992 79.6106C7.94115 79.5839 7.88976 79.5431 7.85026 79.4918C7.80333 79.4355 7.77204 79.3677 7.75957 79.2953C7.74111 79.1437 7.73352 78.991 7.73689 78.8383C7.73403 78.6856 7.74162 78.5329 7.75957 78.3813C7.77166 78.2957 7.80967 78.2159 7.8684 78.1528Z" fill="#979797"/>
<path d="M11.4141 77.646V79.9812H12.8879V79.643H11.7632V77.646H11.4141Z" fill="#979797"/>
<path d="M15.5179 77.6504H15.1687V79.981H15.5179V77.6504Z" fill="#979797"/>
<path d="M18.3067 78.3223H18.3158L19.3588 79.9812H19.6898V77.646H19.3406V79.3048H19.3361L18.2885 77.646H17.9575V79.9812H18.3067V78.3223Z" fill="#979797"/>
<path d="M23.6082 77.9842V77.646H22.1299V79.9812H23.6082V79.643H22.4791V78.9621H23.4404V78.6468H22.4791V77.9842H23.6082Z" fill="#979797"/>
<path d="M28.5923 79.4784C28.5923 79.5104 28.624 79.5424 28.6376 79.5789C28.7011 79.6965 28.7952 79.7945 28.9098 79.8622C29.0438 79.9528 29.2018 80.0006 29.3632 79.9994C29.5837 79.9998 29.7954 79.9128 29.9527 79.7571C30.0285 79.6802 30.0884 79.5889 30.1289 79.4885C30.1694 79.3881 30.1897 79.2806 30.1886 79.1722V78.7152H29.3677V79.0488H29.8212V79.1676C29.8223 79.2995 29.7737 79.4269 29.6852 79.5241C29.6415 79.5703 29.5886 79.6068 29.53 79.6312C29.4715 79.6556 29.4084 79.6674 29.3451 79.6657C29.2704 79.6677 29.1966 79.6487 29.132 79.6109C29.0753 79.5829 29.0257 79.5422 28.9868 79.4921C28.9381 79.437 28.9065 79.3687 28.8961 79.2956C28.8753 79.1442 28.8677 78.9913 28.8735 78.8386C28.8684 78.6859 28.876 78.533 28.8961 78.3816C28.9076 78.3102 28.9391 78.2437 28.9868 78.1897C29.029 78.1269 29.0869 78.0764 29.1546 78.0435C29.2215 78.0129 29.2943 77.9973 29.3677 77.9978C29.471 77.996 29.5718 78.0299 29.6534 78.0937C29.7274 78.1554 29.7812 78.2383 29.8076 78.3314H30.1795C30.1468 78.1439 30.0544 77.9723 29.9165 77.8424C29.7781 77.7255 29.6066 77.6559 29.4264 77.6436C29.2463 77.6313 29.067 77.6769 28.9143 77.7738C28.8005 77.8446 28.7067 77.9437 28.6422 78.0617C28.6049 78.1318 28.5789 78.2074 28.5651 78.2857C28.5463 78.4663 28.5387 78.6479 28.5424 78.8295C28.539 79.0095 28.5466 79.1896 28.5651 79.3687C28.5707 79.4061 28.5798 79.4428 28.5923 79.4784Z" fill="#979797"/>
<path d="M32.5239 79.4783C32.5239 79.5103 32.5556 79.5423 32.5692 79.5789C32.6326 79.6965 32.7267 79.7945 32.8413 79.8622C32.9753 79.9528 33.1334 80.0006 33.2948 79.9993C33.456 79.9995 33.6137 79.9518 33.7482 79.8622C33.8592 79.7928 33.95 79.6951 34.0113 79.5789C34.0522 79.51 34.0799 79.4341 34.0929 79.3549C34.1031 79.1753 34.1031 78.9953 34.0929 78.8157C34.1034 78.6346 34.1034 78.453 34.0929 78.2719C34.0799 78.1928 34.0522 78.1168 34.0113 78.048C33.9489 77.9313 33.8585 77.8323 33.7482 77.7601C33.6132 77.6721 33.4555 77.626 33.2948 77.6276C33.1338 77.6246 32.9757 77.6708 32.8413 77.7601C32.7275 77.8308 32.6338 77.93 32.5692 78.048C32.5319 78.118 32.5059 78.1936 32.4921 78.2719C32.4733 78.4525 32.4657 78.6341 32.4694 78.8157C32.4661 78.9958 32.4736 79.1758 32.4921 79.3549C32.4983 79.3971 32.5089 79.4385 32.5239 79.4783ZM32.8458 78.345C32.8573 78.2736 32.8888 78.207 32.9365 78.1531C32.9751 78.1015 33.0247 78.0593 33.0816 78.0297C33.1485 77.9991 33.2213 77.9835 33.2948 77.984C33.3698 77.9831 33.444 77.9987 33.5124 78.0297C33.568 78.0595 33.6161 78.1017 33.653 78.1531C33.7005 78.2078 33.7333 78.2739 33.7482 78.345C33.7586 78.4972 33.7586 78.6498 33.7482 78.802C33.7592 78.9541 33.7592 79.1068 33.7482 79.259C33.7345 79.3319 33.7016 79.3997 33.653 79.4555C33.6159 79.5056 33.5678 79.5462 33.5124 79.5743C33.4464 79.6127 33.371 79.6317 33.2948 79.6291C33.2201 79.6311 33.1463 79.6121 33.0816 79.5743C33.025 79.5463 32.9754 79.5057 32.9365 79.4555C32.8878 79.4004 32.8562 79.332 32.8458 79.259C32.8326 79.1069 32.8326 78.954 32.8458 78.802C32.8332 78.6499 32.8332 78.4971 32.8458 78.345Z" fill="#979797"/>
<path d="M37.9561 77.9842V77.646H36.4778V79.9812H37.9561V79.643H36.8315V78.9621H37.7929V78.6468H36.8315V77.9842H37.9561Z" fill="#979797"/>
<path d="M40.944 79.6473C40.7048 79.6479 40.4726 79.5656 40.2865 79.4143L40.0552 79.6793C40.3066 79.8974 40.6306 80.0117 40.9621 79.9992C41.4927 79.9992 41.7648 79.7661 41.7784 79.3228C41.7837 79.1567 41.7289 78.9943 41.6242 78.8659C41.4986 78.7302 41.3271 78.6471 41.1435 78.6328L40.8805 78.5963C40.7877 78.585 40.7006 78.5451 40.6311 78.482C40.5836 78.4329 40.5561 78.3677 40.554 78.2992C40.5522 78.2502 40.562 78.2015 40.5825 78.157C40.603 78.1125 40.6336 78.0736 40.6719 78.0433C40.7508 77.9898 40.8444 77.9626 40.9395 77.9656C41.1429 77.9686 41.3413 78.0304 41.5108 78.1438L41.7058 77.8514C41.4872 77.6949 41.2258 77.6103 40.9576 77.6092C40.7557 77.6003 40.558 77.6688 40.4044 77.8011C40.3369 77.8626 40.2837 77.9382 40.2484 78.0227C40.2131 78.1072 40.1967 78.1985 40.2003 78.2901C40.197 78.4506 40.2555 78.6062 40.3635 78.7242C40.4853 78.8476 40.6454 78.925 40.817 78.9435L41.1209 78.9893C41.3249 79.0258 41.4247 79.1264 41.4247 79.3046C41.4247 79.4828 41.2206 79.6427 40.944 79.6473Z" fill="#979797"/>
<path d="M48.3947 79.9812V77.646H48.0455V78.6468H47.1295V77.646H46.7803V79.9812H47.1295V78.9621H48.0455V79.9812H48.3947Z" fill="#979797"/>
<path d="M52.3131 77.9842V77.646H50.8347V79.9812H52.3131V79.643H51.1884V78.9621H52.1498V78.6468H51.1884V77.9842H52.3131Z" fill="#979797"/>
<path d="M56.1953 78.2994C56.1975 78.2045 56.1782 78.1103 56.1389 78.024C56.0996 77.9377 56.0414 77.8615 55.9686 77.8013C55.8386 77.7009 55.6788 77.6478 55.5151 77.6505H54.6082V79.9811H54.9573V78.9849H55.4108L55.8643 79.9811H56.2815L55.7509 78.9575C55.8874 78.9138 56.0054 78.8252 56.086 78.7058C56.1666 78.5865 56.2051 78.4434 56.1953 78.2994ZM55.7691 78.5553C55.7309 78.5945 55.6848 78.625 55.634 78.6447C55.5831 78.6644 55.5287 78.6729 55.4743 78.6696H54.9437V77.9612H55.4924C55.5842 77.9562 55.6751 77.9819 55.7509 78.0343C55.7897 78.066 55.8202 78.1066 55.84 78.1528C55.8597 78.199 55.8681 78.2493 55.8643 78.2994C55.8671 78.394 55.8329 78.4859 55.7691 78.5553Z" fill="#979797"/>
<path d="M59.9999 77.9842V77.646H58.5261V79.9812H59.9999V79.643H58.8753V78.9621H59.8367V78.6468H58.8753V77.9842H59.9999Z" fill="#979797"/>
</svg>
