<svg width="292" height="312" viewBox="0 0 292 312" fill="none" xmlns="http://www.w3.org/2000/svg">
<path d="M13.3386 288.748C16.7516 288.748 20.0333 287.404 22.501 284.995L18.635 281.163C17.6819 282.071 16.5257 282.727 15.2673 283.074C14.0089 283.421 12.6865 283.447 11.4158 283.151C10.145 282.855 8.96451 282.246 7.97731 281.376C6.99012 280.507 6.22627 279.404 5.75249 278.163C5.27871 276.922 5.10941 275.582 5.25936 274.259C5.40931 272.936 5.87397 271.67 6.61274 270.573C7.35151 269.476 8.34193 268.58 9.4975 267.964C10.6531 267.348 11.9387 267.031 13.242 267.039C15.2474 267.022 17.1811 267.801 18.635 269.212L22.501 265.262C20.9223 263.743 19.0042 262.642 16.9139 262.055C14.8236 261.467 12.6244 261.411 10.5078 261.89C8.39126 262.37 6.4215 263.371 4.77009 264.806C3.11868 266.241 1.83569 268.067 1.03287 270.125C0.230043 272.183 -0.0682808 274.411 0.163877 276.613C0.396036 278.816 1.15164 280.927 2.36488 282.763C3.57812 284.599 5.21221 286.104 7.12484 287.147C9.03747 288.191 11.1707 288.74 13.3386 288.748V288.748Z" fill="#979797"/>
<path d="M70.8274 275.178C70.8313 272.489 70.0546 269.86 68.5956 267.622C67.1366 265.385 65.0609 263.64 62.6312 262.608C60.2014 261.576 57.5269 261.304 54.9458 261.827C52.3648 262.349 49.9934 263.642 48.1315 265.541C46.2697 267.441 45.0012 269.863 44.4865 272.499C43.9717 275.136 44.234 277.87 45.24 280.354C46.246 282.839 47.9505 284.962 50.1379 286.456C52.3254 287.951 54.8974 288.748 57.5285 288.748C61.0522 288.748 64.4319 287.319 66.9254 284.775C69.4189 282.23 70.8223 278.779 70.8274 275.178V275.178ZM57.5285 283.336C55.9487 283.34 54.4033 282.865 53.088 281.97C51.7726 281.076 50.7463 279.804 50.1391 278.313C49.5319 276.823 49.3711 275.182 49.6769 273.598C49.9828 272.015 50.7416 270.559 51.8573 269.416C52.973 268.273 54.3954 267.494 55.9446 267.178C57.4937 266.862 59.0998 267.022 60.5597 267.639C62.0196 268.256 63.2675 269.301 64.1456 270.643C65.0237 271.985 65.4924 273.563 65.4924 275.178C65.4924 277.338 64.654 279.41 63.161 280.939C61.668 282.469 59.6424 283.331 57.5285 283.336Z" fill="#979797"/>
<path d="M121.297 288.749V261.589H115.575L107.824 281.441L100.034 261.589H94.3315V288.749H99.6279V275.179L104.944 288.749H110.665L116 275.179V288.749H121.297Z" fill="#979797"/>
<path d="M150.093 277.905H152.258C154.376 277.905 156.406 277.045 157.903 275.515C159.4 273.986 160.241 271.911 160.241 269.747C160.241 267.583 159.4 265.508 157.903 263.978C156.406 262.448 154.376 261.589 152.258 261.589H144.797V288.749H150.093V277.905ZM150.093 267.041H152.22C152.922 267.041 153.595 267.326 154.092 267.833C154.589 268.341 154.868 269.029 154.868 269.747C154.868 270.465 154.589 271.153 154.092 271.66C153.595 272.168 152.922 272.453 152.22 272.453H150.093V267.041Z" fill="#979797"/>
<path d="M195.446 261.589H189.802L180.137 288.749H185.801L188.488 281.164H196.664L199.37 288.749H205.015L195.446 261.589ZM190.459 275.712L192.605 269.589L194.77 275.712H190.459Z" fill="#979797"/>
<path d="M249.977 288.749V261.589H244.68V279.722L234.049 261.589H227.844V288.749H233.14V270.656L243.81 288.749H249.977Z" fill="#979797"/>
<path d="M278.7 261.589H272.785L279.724 275.811V288.749H285.021V275.811L291.96 261.589H286.026L282.392 269.115L278.7 261.589Z" fill="#979797"/>
<path d="M3.07346 311.901H4.79382V301.946H7.88661V300.385H0V301.946H3.07346V311.901Z" fill="#979797"/>
<path d="M20.3367 300.408L16.2388 311.904H18.0365L18.9063 309.337H23.1975L24.0674 311.904H25.8651L21.7865 300.408H20.3367ZM19.3316 307.796L20.9553 302.759L22.579 307.796H19.3316Z" fill="#979797"/>
<path d="M38.1574 302.872C38.351 302.624 38.595 302.421 38.8726 302.279C39.196 302.133 39.5438 302.053 39.8971 302.042C40.399 302.042 40.8873 302.208 41.2888 302.516C41.6427 302.836 41.9092 303.244 42.062 303.701H43.8597C43.6933 302.776 43.2391 301.931 42.5646 301.291C41.8906 300.72 41.0585 300.378 40.1849 300.315C39.3113 300.251 38.4401 300.468 37.6935 300.936C37.1544 301.301 36.7046 301.787 36.379 302.358C36.1837 302.699 36.0525 303.074 35.9924 303.464C35.8378 305.245 35.8378 307.037 35.9924 308.817C36.0229 309.026 36.0747 309.232 36.1471 309.43C36.1471 309.588 36.2824 309.766 36.379 309.924C36.6936 310.503 37.1456 310.992 37.6935 311.346C38.4739 311.85 39.3975 312.072 40.316 311.975C41.2345 311.878 42.0945 311.469 42.7579 310.812C43.505 310.039 43.922 308.995 43.9177 307.909V305.558H39.9164V307.217H42.2167V307.81C42.2292 308.461 41.9935 309.091 41.5595 309.568C41.3439 309.794 41.085 309.972 40.7989 310.091C40.5129 310.21 40.2058 310.267 39.8971 310.259C39.5401 310.261 39.1882 310.173 38.8726 310.003C38.595 309.86 38.351 309.658 38.1574 309.41C37.9249 309.135 37.7711 308.8 37.7128 308.442C37.6138 307.683 37.575 306.916 37.5968 306.151C37.576 305.378 37.6148 304.606 37.7128 303.84C37.7765 303.483 37.9297 303.15 38.1574 302.872Z" fill="#979797"/>
<path d="M55.3984 300.385V311.901H62.6085V310.262H57.1188V300.385H55.3984Z" fill="#979797"/>
<path d="M75.4066 300.408H73.7056V311.924H75.4066V300.408Z" fill="#979797"/>
<path d="M94.0191 308.583H93.9804L88.8773 300.385H87.2729V311.901H88.974V303.723H89.0126L94.1157 311.901H95.7201V300.385H94.0191V308.583Z" fill="#979797"/>
<path d="M114.78 302.045V300.385H107.589V311.901H114.78V310.262H109.31V306.884H113.988V305.324H109.31V302.045H114.78Z" fill="#979797"/>
<path d="M140.607 300.935C140.067 301.3 139.618 301.786 139.292 302.357C139.105 302.702 138.975 303.075 138.906 303.463C138.751 305.244 138.751 307.035 138.906 308.816C138.936 309.025 138.988 309.231 139.06 309.429L139.292 309.923C139.607 310.502 140.059 310.991 140.607 311.345C141.269 311.78 142.042 312.006 142.83 311.997C143.357 312.008 143.882 311.908 144.37 311.704C144.859 311.501 145.302 311.197 145.671 310.811C146.418 310.038 146.835 308.994 146.831 307.908V305.557H142.83V307.216H145.13V307.809C145.14 308.132 145.087 308.454 144.974 308.756C144.862 309.057 144.691 309.333 144.473 309.567C144.26 309.791 144.004 309.969 143.722 310.088C143.439 310.207 143.135 310.265 142.83 310.258C142.466 310.263 142.107 310.175 141.786 310.002C141.511 309.854 141.268 309.653 141.07 309.409C140.838 309.134 140.684 308.799 140.626 308.441C140.527 307.682 140.488 306.915 140.51 306.15C140.489 305.377 140.528 304.605 140.626 303.839C140.69 303.482 140.843 303.149 141.07 302.871C141.268 302.627 141.511 302.426 141.786 302.278C142.115 302.13 142.47 302.05 142.83 302.041C143.331 302.047 143.817 302.212 144.221 302.515C144.569 302.836 144.829 303.245 144.975 303.7H146.773C146.615 302.772 146.159 301.925 145.478 301.29C144.756 300.618 143.805 300.263 142.83 300.303C142.043 300.277 141.267 300.498 140.607 300.935Z" fill="#979797"/>
<path d="M165.482 309.926C165.695 309.592 165.834 309.214 165.888 308.819C166.017 307.038 166.017 305.248 165.888 303.466C165.831 303.072 165.693 302.695 165.482 302.36C165.198 301.871 164.822 301.446 164.374 301.108C163.927 300.771 163.417 300.529 162.877 300.396C162.336 300.263 161.775 300.243 161.226 300.336C160.677 300.429 160.153 300.634 159.683 300.938C159.144 301.303 158.694 301.789 158.369 302.36C158.188 302.706 158.064 303.08 158.001 303.466C157.847 305.247 157.847 307.039 158.001 308.819C158.032 309.029 158.084 309.234 158.156 309.432C158.219 309.6 158.29 309.765 158.369 309.926C158.683 310.505 159.135 310.994 159.683 311.348C160.345 311.783 161.118 312.01 161.906 312C162.699 312.01 163.479 311.783 164.148 311.348C164.711 311.007 165.172 310.515 165.482 309.926ZM163.704 309.412C163.52 309.655 163.29 309.856 163.027 310.005C162.697 310.175 162.333 310.263 161.964 310.261C161.6 310.266 161.242 310.178 160.92 310.005C160.648 309.862 160.41 309.66 160.224 309.412C159.986 309.141 159.832 308.804 159.78 308.444C159.671 307.686 159.626 306.919 159.644 306.153C159.627 305.38 159.672 304.607 159.78 303.842C159.838 303.483 159.992 303.149 160.224 302.874C160.41 302.626 160.648 302.424 160.92 302.281C161.25 302.134 161.604 302.053 161.964 302.044C162.33 302.055 162.69 302.136 163.027 302.281C163.29 302.43 163.52 302.631 163.704 302.874C163.931 303.152 164.084 303.485 164.148 303.842C164.26 304.613 164.312 305.393 164.303 306.173C164.325 306.938 164.286 307.705 164.187 308.464C164.114 308.819 163.947 309.147 163.704 309.412V309.412Z" fill="#979797"/>
<path d="M184.657 302.045V300.385H177.466V311.901H184.657V310.262H179.167V306.884H183.865V305.324H179.167V302.045H184.657Z" fill="#979797"/>
<path d="M199.097 310.259C197.936 310.27 196.807 309.865 195.908 309.114L194.787 310.417C195.978 311.465 197.506 312.028 199.078 311.998C201.668 311.998 202.944 310.852 203.041 308.659C203.054 307.872 202.786 307.106 202.287 306.506C201.683 305.825 200.845 305.408 199.948 305.341L198.691 305.163C198.235 305.113 197.808 304.912 197.473 304.59C197.355 304.476 197.26 304.338 197.193 304.185C197.127 304.033 197.091 303.868 197.087 303.701C197.082 303.459 197.132 303.219 197.233 303C197.333 302.781 197.482 302.588 197.667 302.437C198.046 302.166 198.5 302.028 198.962 302.042C199.961 302.055 200.934 302.364 201.765 302.931L202.712 301.489C201.664 300.698 200.4 300.263 199.097 300.245C198.112 300.19 197.144 300.522 196.391 301.173C196.07 301.484 195.818 301.862 195.651 302.281C195.485 302.7 195.407 303.151 195.425 303.603C195.405 304.389 195.681 305.153 196.198 305.736C196.786 306.349 197.566 306.733 198.401 306.822L199.89 307.04C200.895 307.217 201.378 307.731 201.359 308.6C201.339 309.469 200.566 310.24 199.097 310.259Z" fill="#979797"/>
<path d="M235.496 311.901V300.385H233.795V305.324H229.33V300.385H227.629V311.901H229.33V306.884H233.795V311.901H235.496Z" fill="#979797"/>
<path d="M254.576 302.045V300.385H247.366V311.901H254.576V310.262H249.086V306.884H253.764V305.324H249.086V302.045H254.576Z" fill="#979797"/>
<path d="M267.371 306.981H269.556L271.875 311.899H273.808L271.199 306.803C271.854 306.585 272.421 306.154 272.815 305.577C273.209 304.999 273.409 304.307 273.383 303.603C273.392 303.134 273.296 302.67 273.101 302.245C272.907 301.82 272.62 301.447 272.262 301.154C271.61 300.626 270.792 300.359 269.962 300.403H265.574V311.899H267.275L267.371 306.981ZM267.371 301.944H270.058C270.498 301.915 270.935 302.04 271.295 302.299C271.486 302.453 271.636 302.653 271.734 302.88C271.832 303.107 271.874 303.356 271.856 303.603C271.864 303.835 271.827 304.066 271.747 304.283C271.668 304.499 271.547 304.698 271.392 304.867C271.205 305.058 270.981 305.207 270.735 305.305C270.489 305.404 270.226 305.45 269.962 305.44H267.371V301.944Z" fill="#979797"/>
<path d="M291.999 302.045V300.385H284.809V311.901H291.999V310.262H286.529V306.884H291.207V305.324H286.529V302.045H291.999Z" fill="#979797"/>
<path d="M37.115 95.4072V95.6442C37.115 95.8418 37.115 96.0393 37.115 96.2171V96.3356C37.115 96.4541 37.115 96.5529 37.115 96.6912V96.9874V97.1257V97.3035C37.115 97.6591 37.0184 98.0344 36.9604 98.4097L36.8444 99.4368V99.8121C36.8444 100.207 36.7477 100.622 36.7091 101.037C36.6704 101.452 36.7091 101.649 36.7091 101.945V102.242C36.7091 102.36 36.7091 102.479 36.7091 102.617C36.7091 102.755 36.7091 102.874 36.7091 102.992C36.7186 103.058 36.7186 103.124 36.7091 103.19C36.7091 103.19 36.7091 103.387 36.7091 103.486V104.02C36.7091 104.434 36.7091 104.869 36.7091 105.382C36.7091 105.6 36.7091 105.817 36.7091 106.034C36.7091 106.252 36.7091 106.469 36.7091 106.706V107.002C36.7091 107.259 36.7091 107.516 36.7091 107.753V108.642C36.7091 109.096 36.7091 109.531 36.7091 109.965C36.6995 110.037 36.6995 110.11 36.7091 110.182V111.723V113.876C37.0354 135.014 45.4252 155.186 60.0914 170.096C74.7575 185.006 94.5409 193.474 115.227 193.698C118.542 193.696 121.854 193.485 125.143 193.066C126.632 192.869 128.101 192.651 129.57 192.375C118.64 185.64 109.222 176.628 101.928 165.926C99.2581 162.04 96.8925 157.945 94.8535 153.679C94.3896 152.731 93.945 151.703 93.5197 150.795C93.5197 150.795 93.4231 150.597 93.3844 150.479C88.3802 138.937 85.7197 126.477 85.5642 113.854C85.4087 101.231 87.7613 88.7067 92.4796 77.0396C97.1979 65.3725 104.184 54.8051 113.014 45.977C121.845 37.1488 132.337 30.2435 143.855 25.679C147.773 24.0726 151.797 22.7525 155.897 21.7283C178.815 16.2358 202.923 19.9856 223.204 32.1975V32.1975L222.798 31.8024C222.634 31.6213 222.46 31.4498 222.276 31.2888L222.122 31.1308C221.986 30.9728 221.812 30.8345 221.658 30.6765L221.136 30.1827L220.363 29.432L220.092 29.195L219.976 29.0765L219.126 28.3061L218.198 27.4765L217.888 27.2197C217.676 27.0222 217.482 26.8444 217.251 26.6666L216.825 26.2913L216.593 26.0938L216.419 25.9555H216.323L215.588 25.3432L215.028 24.8888L213.191 23.4271L212.689 23.032L212.476 22.874H212.36L212.012 22.5975L211.877 22.4987L211.413 22.1432H211.258L210.988 21.9456L210.794 21.8074L210.234 21.4123C210.197 21.3687 210.151 21.3348 210.098 21.3135V21.3135L208.726 20.3259L208.107 19.8913H207.953L207.025 19.2592L206.812 19.1209L205.363 17.7777L204.338 17.1259L203.275 16.474L202.734 16.1185L202.328 15.8024L202.019 15.6049L201.825 15.4864L201.033 15.0321L200.839 14.9135L200.588 14.7555L199.892 14.3407C198.269 13.4321 196.651 12.6024 195.04 11.8518H194.924L193.861 11.3185L192.914 10.8642C191.806 10.3374 190.762 9.86335 189.783 9.44196L189.068 9.12591L188.642 8.94813L188.198 8.7506H187.985C186.922 8.31603 186.052 7.96048 185.24 7.66418L184.776 7.46665L183.636 6.73579C182.283 6.24196 180.891 5.74814 179.48 5.29382L178.668 5.03703L177.837 4.76048L177.334 4.60246L175.595 4.08888H175.363H175.015H174.899C173.739 3.77283 172.56 3.49629 171.381 3.19999L169.274 2.72592C168.095 2.46913 166.915 2.21234 165.717 1.99506L164.19 1.52098L162.798 1.3037L162.18 1.20494L161.406 1.08642C160.15 0.90864 158.874 0.750616 157.54 0.612344C155.124 0.355555 152.708 0.177777 150.156 0C148.842 0 147.392 0 146 0C143.662 0 141.342 0 139.003 0.237037H138.268C135.698 0.414814 133.127 0.691356 130.537 1.04691L129.164 1.26419L37.115 95.3677V95.4072Z" fill="#979797"/>
<path d="M254.921 129.621V129.443V128.969V128.792C254.921 128.594 254.921 128.377 254.921 128.179V127.903C254.929 127.837 254.929 127.771 254.921 127.705L255.017 126.994V126.52C255.017 126.046 255.133 125.611 255.172 125.177C255.172 124.762 255.269 124.367 255.307 123.972C255.346 123.577 255.307 123.32 255.307 123.004V122.708V122.036V121.878C255.307 121.582 255.307 121.305 255.307 121.029V120.91C255.307 120.495 255.307 120.061 255.307 119.567C255.307 119.132 255.307 118.698 255.307 118.283V117.809V116.722C255.307 116.229 255.307 115.755 255.307 115.3V115.024C255.307 114.688 255.307 114.352 255.307 114.016V111.666V111.369C255.001 90.2178 246.62 70.0256 231.952 55.099C217.283 40.1724 197.489 31.6927 176.789 31.4683C171.973 31.4647 167.167 31.901 162.427 32.772C182.842 45.6394 197.48 66.2016 203.176 90.0116C208.871 113.822 205.166 138.966 192.862 160.006C180.558 181.047 160.644 196.292 137.426 202.446C114.208 208.6 89.5534 205.167 68.793 192.89V192.89C68.8525 192.961 68.9171 193.027 68.9863 193.088L69.2182 193.305L69.7401 193.838C70.0301 194.135 70.378 194.49 70.726 194.806L71.4025 195.458L72.6203 196.584L73.4322 197.295L73.6254 197.453L74.3986 198.144L74.5533 198.283L75.1912 198.816L75.8097 199.33L76.3123 199.725C76.8922 200.218 77.5108 200.712 78.1293 201.186C78.2664 201.281 78.3957 201.386 78.5159 201.502L78.9798 201.838L79.2311 202.036L79.3858 202.154L80.1203 202.707L80.3523 202.885L80.7195 203.162L81.2801 203.577L81.4734 203.715L82.8651 204.702L83.4644 205.117H83.619L84.1409 205.473L84.6822 205.848L85.5327 206.401L86.3832 206.954H87.0791L88.3355 208.179L88.9154 208.535L90.0559 209.206L90.9644 209.72C92.5881 210.668 94.2311 211.557 95.8935 212.386L96.976 212.939H97.1306L98.1551 213.433C99.1989 213.927 100.262 214.421 101.306 214.875L102.079 215.211H102.33L103.374 215.646C104.225 216.001 105.133 216.376 106.1 216.732L106.989 217.088C108.4 217.621 109.792 218.095 111.125 218.53H111.222L112.034 218.806L113.252 219.181L113.6 219.3L115.069 219.715L115.823 219.932C118.857 220.781 121.95 221.473 125.004 222.026L126.28 222.263L127.556 222.46H127.691L128.967 222.658C139.225 224.142 149.637 224.142 159.895 222.658V222.658C160.301 222.658 160.707 222.658 161.113 222.48L254.882 129.779C254.882 129.779 254.901 129.68 254.921 129.621Z" fill="#979797"/>
</svg>
