<svg aria-hidden="true" style="position: absolute; width: 0; height: 0; overflow: hidden;" version="1.1" xmlns="http://www.w3.org/2000/svg" xmlns:xlink="http://www.w3.org/1999/xlink">
<defs>
<symbol id="icon-search" viewBox="0 0 32 32">
<path d="M31.805 30.862l-9.737-9.737c2.022-2.245 3.265-5.206 3.265-8.459-0-6.984-5.682-12.667-12.667-12.667s-12.667 5.682-12.667 12.667c0 6.984 5.682 12.667 12.667 12.667 3.253 0 6.213-1.243 8.459-3.265l9.737 9.737c0.13 0.13 0.301 0.195 0.472 0.195s0.341-0.065 0.471-0.195c0.26-0.261 0.26-0.683 0-0.943zM12.667 24c-6.249 0-11.333-5.084-11.333-11.333s5.085-11.333 11.333-11.333c6.249 0 11.333 5.084 11.333 11.333s-5.085 11.333-11.333 11.333z"></path>
</symbol>
<symbol id="icon-coin" viewBox="0 0 32 32">
<path d="M3 15.667c-0.192 0-0.333 0.144-0.333 0.348v7.304c0 0.204 0.141 0.348 0.333 0.348h2.084c0.192 0 0.333-0.144 0.333-0.348v-7.304c0-0.204-0.141-0.348-0.333-0.348h-2.084zM28.123 15.988c-0.112-0.011-0.219 0.009-0.333 0.027-0.15 0.023-0.299 0.072-0.445 0.161l-6.281 3.558c-0.759 0.951-1.003 1.099-2.334 1.231-1.658 0.028-3.364 0.027-5.030 0.026v-0.856h4.947c0.669 0 0.986-0.155 1.223-0.321 0.107-0.080 0.187-0.204 0.278-0.321 0.108-0.19 0.222-0.378 0.222-0.696 0-0.539-0.164-0.827-0.445-1.044s-0.727-0.348-1.278-0.348h-2.418c-0.637 0-1.31-0.221-1.973-0.428s-1.334-0.405-1.723-0.428h-2.39c-0.719 0-1.354 0.208-1.945 0.428s-1.136 0.482-1.723 0.482h-0.167v5.324h15.007c0.212-0.009 0.374-0.038 0.472-0.081h0.028c0.156-0.056 0.218-0.080 0.222-0.080l6.725-4.12c0.564-0.343 0.742-1.095 0.389-1.659l-0.167-0.294c-0.202-0.322-0.526-0.518-0.862-0.562v0.001z"></path>
<path d="M17.393 2.333c-3.219 0-5.838 2.619-5.838 5.838s2.619 5.838 5.838 5.838c3.219 0 5.838-2.619 5.838-5.838s-2.619-5.838-5.838-5.838zM19.227 9.954c-0.176 0.257-0.407 0.45-0.71 0.594-0.223 0.099-0.456 0.16-0.696 0.182v0.785c0 0.12-0.097 0.216-0.216 0.216h-0.647c-0.12 0-0.216-0.097-0.216-0.216v-0.852c-0.122-0.030-0.242-0.072-0.362-0.127-0.324-0.132-0.585-0.347-0.768-0.636-0.184-0.269-0.282-0.582-0.298-0.953-0.005-0.117 0.085-0.217 0.202-0.225l0.581-0.040c0.117-0.007 0.216 0.076 0.23 0.19 0.023 0.195 0.078 0.356 0.159 0.466 0.091 0.136 0.207 0.226 0.383 0.298 0.373 0.164 0.847 0.164 1.175 0.038 0.145-0.062 0.248-0.134 0.316-0.222 0.058-0.084 0.087-0.172 0.087-0.277 0-0.099-0.025-0.171-0.087-0.25-0.032-0.043-0.115-0.123-0.333-0.21-0.106-0.035-0.383-0.114-0.803-0.215-0.491-0.122-0.775-0.215-0.951-0.311-0.262-0.139-0.46-0.312-0.583-0.513-0.127-0.205-0.191-0.439-0.191-0.695 0-0.279 0.078-0.544 0.231-0.789 0.159-0.239 0.393-0.427 0.681-0.548 0.096-0.044 0.206-0.080 0.33-0.11v-0.721c0-0.12 0.097-0.216 0.216-0.216h0.647c0.12 0 0.216 0.097 0.216 0.216v0.683c0.195 0.032 0.375 0.082 0.538 0.147 0.316 0.142 0.546 0.332 0.71 0.586 0.164 0.239 0.257 0.526 0.273 0.848 0.006 0.118-0.084 0.219-0.202 0.227l-0.595 0.040c-0.115 0.008-0.214-0.074-0.229-0.187-0.033-0.244-0.115-0.415-0.25-0.521-0.153-0.13-0.375-0.191-0.686-0.191-0.304 0-0.548 0.059-0.688 0.167-0.113 0.087-0.166 0.192-0.166 0.331 0 0.106 0.033 0.19 0.099 0.248 0.035 0.027 0.225 0.151 0.839 0.28 0.508 0.12 0.881 0.229 1.085 0.317 0.326 0.147 0.559 0.336 0.695 0.563 0.153 0.228 0.229 0.484 0.229 0.772 0 0.3-0.083 0.58-0.247 0.832z"></path>
</symbol>
<symbol id="icon-facebook-circle" viewBox="0 0 32 32">
<path fill="#1778f2" d="M32 16c0-8.837-7.163-16-16-16s-16 7.163-16 16c0 8.837 7.163 16 16 16s16-7.163 16-16z"></path>
<path fill="#fdfdfd" d="M17.276 25.031v-8.565h2.875l0.431-3.338h-3.306v-2.131c0-0.966 0.268-1.625 1.654-1.625h1.767v-2.984c-0.856-0.090-1.715-0.134-2.576-0.131-2.548 0-4.293 1.555-4.293 4.412v2.46h-2.882v3.338h2.882v8.565h3.447z"></path>
</symbol>
<symbol id="icon-facebook-circle-alt" viewBox="0 0 32 32">
<path fill="#fff" d="M32 16c0-8.837-7.163-16-16-16s-16 7.163-16 16c0 8.837 7.163 16 16 16s16-7.163 16-16z"></path>
<path fill="#1778f2" d="M17.276 25.031v-8.564h2.875l0.431-3.338h-3.306v-2.131c0-0.966 0.268-1.625 1.654-1.625h1.768v-2.984c-0.856-0.091-1.715-0.134-2.576-0.131-2.548 0-4.293 1.555-4.293 4.412v2.46h-2.882v3.338h2.882v8.564h3.447z"></path>
</symbol>
<symbol id="icon-facebook" viewBox="0 0 32 32">
<path fill="#1778f2" d="M18.169 30.545v-13.271h4.288l0.643-5.172h-4.932v-3.302c0-1.497 0.4-2.518 2.468-2.518h2.637v-4.624c-1.276-0.14-2.559-0.208-3.842-0.203-3.802 0-6.404 2.41-6.404 6.837v3.811h-4.299v5.172h4.299v13.271h5.142z"></path>
</symbol>
<symbol id="icon-youtube-circle" viewBox="0 0 32 32">
<path fill="#f00" d="M32 16c0-8.837-7.163-16-16-16s-16 7.163-16 16c0 8.837 7.163 16 16 16s16-7.163 16-16z"></path>
<path fill="#fff" d="M23.825 9.427c-1.565-0.428-7.825-0.428-7.825-0.428s-6.26 0-7.825 0.412c-0.84 0.231-1.532 0.923-1.763 1.779-0.412 1.565-0.412 4.81-0.412 4.81s0 3.262 0.412 4.811c0.231 0.857 0.906 1.532 1.763 1.763 1.582 0.428 7.825 0.428 7.825 0.428s6.26 0 7.825-0.412c0.857-0.231 1.532-0.906 1.763-1.763 0.412-1.565 0.412-4.811 0.412-4.811s0.016-3.262-0.412-4.827c-0.231-0.857-0.906-1.532-1.763-1.763zM19.212 16l-5.206 2.998v-5.997l5.206 2.998z"></path>
</symbol>
<symbol id="icon-twitter" viewBox="0 0 32 32">
<path d="M24.325 3h4.411l-9.636 11.013 11.336 14.987h-8.876l-6.952-9.089-7.955 9.089h-4.413l10.307-11.78-10.875-14.22h9.101l6.284 8.308zM22.777 26.36h2.444l-15.776-20.859h-2.623z"></path>
</symbol>
<symbol id="icon-user" viewBox="0 0 32 32">
<path d="M16 16.041c-8.433 0-15.294 6.861-15.294 15.294 0 0.367 0.298 0.665 0.665 0.665s0.665-0.298 0.665-0.665c0-7.7 6.264-13.964 13.964-13.964s13.964 6.264 13.964 13.964c0 0.367 0.298 0.665 0.665 0.665s0.665-0.298 0.665-0.665c0-8.434-6.861-15.294-15.294-15.294z"></path>
<path d="M16 0c-4.032 0-7.314 3.281-7.314 7.314s3.282 7.314 7.314 7.314c4.032 0 7.314-3.281 7.314-7.314s-3.282-7.314-7.314-7.314zM16 13.299c-3.299 0-5.985-2.685-5.985-5.985s2.685-5.985 5.985-5.985c3.299 0 5.985 2.685 5.985 5.985s-2.685 5.985-5.985 5.985z"></path>
</symbol>
<symbol id="icon-user-alt" viewBox="0 0 32 32">
<path d="M15.874 15.874c4.385 0 7.937-3.552 7.937-7.937s-3.552-7.937-7.937-7.937c-4.385 0-7.937 3.552-7.937 7.937s3.552 7.937 7.937 7.937zM15.874 19.842c-5.298 0-15.874 2.659-15.874 7.937v1.984c0 1.091 0.893 1.984 1.984 1.984h27.779c1.091 0 1.984-0.893 1.984-1.984v-1.984c0-5.278-10.576-7.937-15.874-7.937z"></path>
</symbol>
<symbol id="icon-user-circle" viewBox="0 0 32 32">
<path d="M16 0.5c-8.55 0-15.5 6.95-15.5 15.5s6.95 15.5 15.5 15.5c8.55 0 15.5-6.95 15.5-15.5s-6.95-15.5-15.5-15.5zM26.55 22.68c-2.16-3.080-6.11-5.040-10.55-5.040s-8.4 1.96-10.54 5.060c-1.23-1.94-1.96-4.24-1.96-6.7 0-6.89 5.61-12.5 12.5-12.5s12.5 5.61 12.5 12.5c0 2.46-0.72 4.75-1.95 6.68z"></path>
<path d="M16 15.97c2.745 0 4.97-2.225 4.97-4.97s-2.225-4.97-4.97-4.97c-2.745 0-4.97 2.225-4.97 4.97s2.225 4.97 4.97 4.97z"></path>
</symbol>
<symbol id="icon-chevron-down" viewBox="0 0 32 32">
<path d="M16 22c-0.256 0-0.512-0.098-0.707-0.293l-10-10c-0.391-0.391-0.391-1.024 0-1.414s1.024-0.391 1.414 0l9.293 9.293 9.293-9.293c0.391-0.391 1.024-0.391 1.414 0s0.391 1.024 0 1.414l-10 10c-0.195 0.195-0.451 0.293-0.707 0.293z"></path>
</symbol>
<symbol id="icon-chevron-right" viewBox="0 0 32 32">
<path d="M22 16c0 0.256-0.098 0.512-0.293 0.707l-10 10c-0.391 0.391-1.024 0.391-1.414 0s-0.391-1.024 0-1.414l9.293-9.293-9.293-9.293c-0.391-0.391-0.391-1.024 0-1.414s1.024-0.391 1.414 0l10 10c0.195 0.195 0.293 0.451 0.293 0.707z"></path>
</symbol>
<symbol id="icon-menu" viewBox="0 0 32 32">
<path d="M31.396 28.8h-30.793c-0.333 0-0.604-0.303-0.604-0.677s0.27-0.677 0.604-0.677h30.793c0.334 0 0.604 0.303 0.604 0.677s-0.27 0.677-0.604 0.677zM31.396 16.677h-30.793c-0.333 0-0.604-0.303-0.604-0.677s0.27-0.677 0.604-0.677h30.793c0.334 0 0.604 0.303 0.604 0.677s-0.27 0.677-0.604 0.677zM31.396 4.555h-30.793c-0.333 0-0.604-0.303-0.604-0.677s0.27-0.677 0.604-0.677h30.793c0.334 0 0.604 0.303 0.604 0.677s-0.27 0.677-0.604 0.677z"></path>
</symbol>
<symbol id="icon-x" viewBox="0 0 24 24">
<path d="M5.293 6.707l5.293 5.293-5.293 5.293c-0.391 0.391-0.391 1.024 0 1.414s1.024 0.391 1.414 0l5.293-5.293 5.293 5.293c0.391 0.391 1.024 0.391 1.414 0s0.391-1.024 0-1.414l-5.293-5.293 5.293-5.293c0.391-0.391 0.391-1.024 0-1.414s-1.024-0.391-1.414 0l-5.293 5.293-5.293-5.293c-0.391-0.391-1.024-0.391-1.414 0s-0.391 1.024 0 1.414z"></path>
</symbol>
<symbol id="icon-google-circle" viewBox="0 0 32 32">
<path fill="#fff" d="M32 16c0-8.837-7.163-16-16-16s-16 7.163-16 16c0 8.837 7.163 16 16 16s16-7.163 16-16z"></path>
<path fill="#4285f4" d="M24.716 16.171c0-0.749-0.061-1.296-0.192-1.863h-8.555v3.381h5.021c-0.101 0.84-0.648 2.106-1.863 2.956l-0.017 0.113 2.705 2.095 0.187 0.019c1.721-1.589 2.713-3.928 2.713-6.702z"></path>
<path fill="#34a853" d="M15.97 25.080c2.46 0 4.525-0.81 6.034-2.207l-2.875-2.227c-0.769 0.536-1.802 0.911-3.159 0.911-2.41 0-4.455-1.589-5.184-3.786l-0.107 0.009-2.813 2.177-0.037 0.102c1.498 2.976 4.576 5.021 8.14 5.021z"></path>
<path fill="#fbbc05" d="M10.786 17.771c-0.192-0.567-0.304-1.174-0.304-1.802s0.111-1.235 0.294-1.802l-0.005-0.121-2.848-2.212-0.093 0.044c-0.618 1.235-0.972 2.622-0.972 4.090s0.354 2.855 0.972 4.090l2.956-2.288z"></path>
<path fill="#eb4335" d="M15.97 10.38c1.711 0 2.865 0.739 3.523 1.357l2.571-2.511c-1.579-1.468-3.634-2.369-6.094-2.369-3.564 0-6.641 2.045-8.14 5.021l2.946 2.288c0.739-2.197 2.784-3.786 5.194-3.786z"></path>
</symbol>
<symbol id="icon-google" viewBox="0 0 32 32">
<path fill="#4285f4" d="M29.828 16.322c0-1.184-0.096-2.048-0.304-2.944h-13.522v5.345h7.937c-0.16 1.328-1.024 3.329-2.944 4.673l-0.027 0.179 4.275 3.312 0.296 0.030c2.72-2.512 4.289-6.209 4.289-10.594z"></path>
<path fill="#34a853" d="M16.002 30.404c3.888 0 7.153-1.28 9.537-3.488l-4.545-3.521c-1.216 0.848-2.848 1.44-4.993 1.44-3.809 0-7.041-2.512-8.193-5.985l-0.169 0.014-4.446 3.44-0.058 0.162c2.368 4.705 7.233 7.937 12.866 7.937z"></path>
<path fill="#fbbc05" d="M7.809 18.851c-0.304-0.896-0.48-1.856-0.48-2.848s0.176-1.952 0.464-2.848l-0.008-0.191-4.501-3.496-0.147 0.070c-0.976 1.952-1.536 4.145-1.536 6.465s0.56 4.513 1.536 6.465l4.673-3.616z"></path>
<path fill="#eb4335" d="M16.002 7.169c2.704 0 4.529 1.168 5.569 2.144l4.065-3.969c-2.496-2.32-5.745-3.745-9.633-3.745-5.633 0-10.498 3.232-12.866 7.937l4.657 3.617c1.168-3.473 4.401-5.985 8.209-5.985z"></path>
</symbol>
<symbol id="icon-eye-blocked" viewBox="0 0 32 32">
<path d="M15.999 10.88c-2.816 0-5.12 2.304-5.12 5.12s2.304 5.12 5.12 5.12c2.816 0 5.12-2.304 5.12-5.12s-2.304-5.12-5.12-5.12zM15.999 19.84c-2.112 0-3.84-1.728-3.84-3.84s1.728-3.84 3.84-3.84c2.112 0 3.84 1.728 3.84 3.84s-1.728 3.84-3.84 3.84zM30.207 15.552l-2.752-2.784c-3.040-3.072-7.104-4.768-11.456-4.768s-8.416 1.696-11.456 4.768l-2.752 2.784c-0.256 0.256-0.256 0.64 0 0.896l2.752 2.784c3.040 3.072 7.104 4.768 11.456 4.768s8.416-1.696 11.456-4.768l2.752-2.784c0.256-0.256 0.256-0.64 0-0.896zM26.559 18.336c-2.816 2.816-6.56 4.384-10.56 4.384s-7.744-1.568-10.56-4.384l-2.304-2.336 2.304-2.336c2.816-2.816 6.56-4.384 10.56-4.384s7.744 1.568 10.56 4.384l2.304 2.336-2.304 2.336z"></path>
<path d="M27.458 5.996c-0.236-0.236-0.621-0.236-0.857 0l-20.606 20.606c-0.236 0.236-0.236 0.621 0 0.857 0.119 0.118 0.274 0.177 0.429 0.177s0.31-0.059 0.428-0.177l20.606-20.606c0.236-0.236 0.236-0.621 0-0.857z"></path>
</symbol>
<symbol id="icon-chevron-right-alt" viewBox="0 0 32 32">
<path d="M10.038 0l-2.038 2.336 12.025 13.664-12.025 13.664 2.038 2.336 13.962-16-13.962-16z"></path>
</symbol>
<symbol id="icon-star-empty" viewBox="0 0 32 32">
<path d="M6.465 31.998c-0.119 0-0.237-0.038-0.337-0.115-0.176-0.135-0.265-0.362-0.227-0.588l1.771-10.831-7.498-7.67c-0.156-0.16-0.212-0.399-0.145-0.616s0.247-0.376 0.463-0.409l10.362-1.58 4.634-9.854c0.096-0.206 0.296-0.335 0.513-0.335s0.418 0.13 0.513 0.335l4.634 9.854 10.362 1.58c0.216 0.033 0.395 0.191 0.463 0.409 0.067 0.217 0.011 0.456-0.145 0.616l-7.498 7.671 1.77 10.831c0.037 0.225-0.052 0.453-0.227 0.588-0.176 0.136-0.411 0.153-0.604 0.046l-9.268-5.113-9.269 5.113c-0.084 0.046-0.175 0.068-0.266 0.068zM1.804 12.784l6.883 7.041c0.135 0.138 0.196 0.337 0.164 0.532l-1.625 9.941 8.508-4.694c0.167-0.093 0.365-0.093 0.533 0l8.507 4.694-1.624-9.941c-0.032-0.195 0.030-0.394 0.164-0.532l6.883-7.041-9.511-1.45c-0.187-0.028-0.348-0.151-0.431-0.329l-4.254-9.045-4.254 9.045c-0.084 0.177-0.245 0.301-0.431 0.329l-9.511 1.45z"></path>
</symbol>
<symbol id="icon-star-fill" viewBox="0 0 32 32">
<path d="M6.465 31.998c-0.119 0-0.237-0.038-0.337-0.115-0.176-0.135-0.265-0.362-0.227-0.588l1.771-10.831-7.498-7.67c-0.156-0.16-0.212-0.399-0.145-0.616s0.247-0.376 0.463-0.409l10.362-1.58 4.634-9.854c0.096-0.206 0.296-0.335 0.513-0.335s0.418 0.13 0.513 0.335l4.634 9.854 10.362 1.58c0.216 0.033 0.395 0.191 0.463 0.409 0.067 0.217 0.011 0.456-0.145 0.616l-7.498 7.671 1.77 10.831c0.037 0.225-0.052 0.453-0.227 0.588-0.176 0.136-0.411 0.153-0.604 0.046l-9.268-5.113-9.269 5.113c-0.084 0.046-0.175 0.068-0.266 0.068z"></path>
</symbol>
<symbol id="icon-lock" viewBox="0 0 32 32">
<path d="M24 11.2v-3.2c0-4.48-3.52-8-8-8s-8 3.52-8 8v3.2c-2.72 0-4.8 2.080-4.8 4.8v11.2c0 2.72 2.080 4.8 4.8 4.8h16c2.72 0 4.8-2.080 4.8-4.8v-11.2c0-2.72-2.080-4.8-4.8-4.8zM11.2 8c0-2.72 2.080-4.8 4.8-4.8s4.8 2.080 4.8 4.8v3.2h-9.6v-3.2zM17.76 21.6l-0.16 0.16v2.24c0 0.96-0.64 1.6-1.6 1.6s-1.6-0.64-1.6-1.6v-2.24c-0.96-0.96-1.12-2.4-0.16-3.36s2.4-1.12 3.36-0.16c0.96 0.8 1.12 2.4 0.16 3.36z"></path>
</symbol>
<symbol id="icon-calendar" viewBox="0 0 32 32">
<path d="M25.333 5.333h-1.333v-1.333c0-0.8-0.533-1.333-1.333-1.333s-1.333 0.533-1.333 1.333v1.333h-10.667v-1.333c0-0.8-0.533-1.333-1.333-1.333s-1.333 0.533-1.333 1.333v1.333h-1.333c-2.267 0-4 1.733-4 4v1.333h26.667v-1.333c0-2.267-1.733-4-4-4zM2.667 25.333c0 2.267 1.733 4 4 4h18.667c2.267 0 4-1.733 4-4v-12h-26.667v12zM22.667 16c0.8 0 1.333 0.533 1.333 1.333s-0.533 1.333-1.333 1.333c-0.8 0-1.333-0.533-1.333-1.333s0.533-1.333 1.333-1.333zM22.667 21.333c0.8 0 1.333 0.533 1.333 1.333s-0.533 1.333-1.333 1.333c-0.8 0-1.333-0.533-1.333-1.333s0.533-1.333 1.333-1.333zM16 16c0.8 0 1.333 0.533 1.333 1.333s-0.533 1.333-1.333 1.333c-0.8 0-1.333-0.533-1.333-1.333s0.533-1.333 1.333-1.333zM16 21.333c0.8 0 1.333 0.533 1.333 1.333s-0.533 1.333-1.333 1.333c-0.8 0-1.333-0.533-1.333-1.333s0.533-1.333 1.333-1.333zM9.333 16c0.8 0 1.333 0.533 1.333 1.333s-0.533 1.333-1.333 1.333c-0.8 0-1.333-0.533-1.333-1.333s0.533-1.333 1.333-1.333zM9.333 21.333c0.8 0 1.333 0.533 1.333 1.333s-0.533 1.333-1.333 1.333c-0.8 0-1.333-0.533-1.333-1.333s0.533-1.333 1.333-1.333z"></path>
</symbol>
<symbol id="icon-arrow-left" viewBox="0 0 32 32">
<path d="M0.738 16.652h30.523c0.363 0 0.656-0.293 0.656-0.656s-0.293-0.656-0.656-0.656h-28.937l3.984-3.984c0.256-0.256 0.256-0.673 0-0.929s-0.673-0.256-0.929 0l-5.106 5.106c-0.189 0.189-0.244 0.47-0.142 0.716 0.103 0.244 0.343 0.404 0.607 0.404z"></path>
<path d="M5.85 21.764c0.168 0 0.336-0.064 0.464-0.193 0.256-0.256 0.256-0.673 0-0.929l-5.112-5.112c-0.256-0.256-0.673-0.256-0.929 0s-0.256 0.673 0 0.929l5.112 5.112c0.129 0.129 0.297 0.193 0.466 0.193z"></path>
</symbol>
<symbol id="icon-arrow-right" viewBox="0 0 32 32">
<path d="M31.262 16.652h-30.523c-0.363 0-0.656-0.293-0.656-0.656s0.293-0.656 0.656-0.656h28.937l-3.984-3.984c-0.256-0.256-0.256-0.673 0-0.929s0.673-0.256 0.929 0l5.106 5.106c0.189 0.189 0.244 0.47 0.142 0.716-0.103 0.244-0.343 0.404-0.607 0.404z"></path>
<path d="M26.15 21.764c-0.168 0-0.336-0.064-0.464-0.193-0.256-0.256-0.256-0.673 0-0.929l5.112-5.112c0.256-0.256 0.673-0.256 0.929 0s0.256 0.673 0 0.929l-5.112 5.112c-0.129 0.129-0.297 0.193-0.466 0.193z"></path>
</symbol>
<symbol id="icon-copy-circle" viewBox="0 0 32 32">
<path fill="#f7af23" d="M16 32c8.836 0 16-7.163 16-16s-7.163-16-16-16c-8.836 0-16 7.163-16 16s7.163 16 16 16z"></path>
<path fill="#fff" d="M19.282 11.077h-9.026c-0.906 0-1.641 0.808-1.641 1.805v9.928c0 0.997 0.735 1.805 1.641 1.805h9.026c0.906 0 1.641-0.808 1.641-1.805v-9.928c0-0.997-0.735-1.805-1.641-1.805z"></path>
<path fill="#fff" d="M21.908 7.385h-8.123c-0.391 0.002-0.766 0.192-1.043 0.53s-0.433 0.796-0.434 1.275v1.015h7.168c0.424 0.002 1.162-0.029 1.448 0.256 0.615 0.615 0.614 1.182 0.615 1.701v8.761h0.369c0.391-0.001 0.766-0.192 1.043-0.53s0.433-0.797 0.434-1.275v-9.928c-0.001-0.478-0.157-0.937-0.434-1.275s-0.652-0.529-1.043-0.53z"></path>
</symbol>
<symbol id="icon-copy" viewBox="0 0 32 32">
<path d="M19.438 32h-11.938c-2.757 0-5-2.243-5-5v-16.938c0-2.757 2.243-5 5-5h11.938c2.757 0 5 2.243 5 5v16.938c0 2.757-2.243 5-5 5zM7.5 7.563c-1.378 0-2.5 1.122-2.5 2.5v16.938c0 1.378 1.122 2.5 2.5 2.5h11.938c1.378 0 2.5-1.122 2.5-2.5v-16.938c0-1.378-1.122-2.5-2.5-2.5h-11.938zM29.438 23.875v-18.875c0-2.757-2.243-5-5-5h-13.875c-0.69 0-1.25 0.56-1.25 1.25s0.56 1.25 1.25 1.25h13.875c1.378 0 2.5 1.122 2.5 2.5v18.875c0 0.69 0.559 1.25 1.25 1.25s1.25-0.56 1.25-1.25z"></path>
</symbol>
<symbol id="icon-check" viewBox="0 0 32 32">
<path d="M13.713 23.815c-0.223 0.001-0.444-0.043-0.65-0.128s-0.393-0.21-0.55-0.368l-7.213-7.208c-0.288-0.324-0.441-0.746-0.429-1.179s0.191-0.845 0.497-1.152c0.307-0.307 0.719-0.484 1.152-0.497s0.855 0.141 1.179 0.429l6.012 6 10.815-10.815c0.324-0.288 0.746-0.441 1.179-0.429s0.846 0.191 1.152 0.497c0.307 0.307 0.484 0.719 0.497 1.152s-0.141 0.855-0.429 1.179l-12.017 12.019c-0.319 0.317-0.75 0.496-1.2 0.496l0.004 0.004z"></path>
</symbol>
<symbol id="icon-check-alt" viewBox="0 0 32 32">
<path d="M11.965 25.044c-0.417 0-0.8-0.139-1.113-0.452l-6.922-6.922c-0.626-0.626-0.626-1.6 0-2.226s1.6-0.626 2.226 0l5.843 5.809 13.878-13.843c0.626-0.626 1.6-0.626 2.226 0s0.626 1.6 0 2.226l-14.991 14.957c-0.348 0.313-0.73 0.452-1.148 0.452z"></path>
</symbol>
<symbol id="icon-heart-fill" viewBox="0 0 32 32">
<path d="M9.993 4.008c-2.032-0.108-4.070 0.572-5.57 2.072-3.002 3.008-2.688 8.056 0.524 11.272l10.35 10.358c0.187 0.187 0.441 0.292 0.706 0.292s0.519-0.105 0.706-0.292l10.346-10.358c3.212-3.216 3.524-8.264 0.52-11.27-3.002-3.006-8.040-2.686-11.25 0.528l-0.324 0.324-0.324-0.324c-1.606-1.61-3.65-2.494-5.684-2.602z"></path>
</symbol>
<symbol id="icon-orthodox" viewBox="0 0 32 32">
<path d="M13.867 0h4.267v32h-4.267v-32z"></path>
<path d="M26.667 9.6v4.267h-21.333v-4.267h21.333z"></path>
<path d="M22.4 3.2v4.267h-12.8v-4.267h12.8z"></path>
<path d="M22.4 23.467v4.267l-12.8-3.2v-4.267l12.8 3.2z"></path>
</symbol>
<symbol id="icon-share" viewBox="0 0 32 32">
<path d="M24 21.44c-1.013 0-1.92 0.4-2.613 1.027l-9.507-5.533c0.067-0.307 0.12-0.613 0.12-0.933s-0.053-0.627-0.12-0.933l9.4-5.48c0.72 0.667 1.667 1.080 2.72 1.080 2.213 0 4-1.787 4-4s-1.787-4-4-4c-2.213 0-4 1.787-4 4 0 0.32 0.053 0.627 0.12 0.933l-9.4 5.48c-0.72-0.667-1.667-1.080-2.72-1.080-2.213 0-4 1.787-4 4s1.787 4 4 4c1.053 0 2-0.413 2.72-1.080l9.493 5.547c-0.067 0.28-0.107 0.573-0.107 0.867 0 2.147 1.747 3.893 3.893 3.893s3.893-1.747 3.893-3.893c0-2.147-1.747-3.893-3.893-3.893z"></path>
</symbol>
<symbol id="icon-flag" viewBox="0 0 32 32">
<path d="M5.715 4.571c0 0.857-0.381 1.512-1.143 1.964v22.607c0 0.155-0.057 0.289-0.17 0.402s-0.247 0.17-0.402 0.17h-1.143c-0.155 0-0.289-0.056-0.402-0.17s-0.17-0.247-0.17-0.402v-22.607c-0.762-0.452-1.143-1.107-1.143-1.964 0-0.631 0.223-1.17 0.67-1.616s0.985-0.67 1.616-0.67c0.631 0 1.17 0.223 1.616 0.67s0.67 0.985 0.67 1.616zM32.001 5.714v13.625c0 0.298-0.074 0.527-0.223 0.688s-0.384 0.324-0.705 0.491c-2.56 1.381-4.756 2.071-6.589 2.071-0.726 0-1.461-0.131-2.205-0.393s-1.39-0.548-1.937-0.857c-0.548-0.31-1.235-0.595-2.063-0.857s-1.676-0.393-2.545-0.393c-2.286 0-5.048 0.869-8.286 2.607-0.202 0.107-0.399 0.161-0.589 0.161-0.31 0-0.577-0.113-0.804-0.339s-0.339-0.494-0.339-0.804v-13.25c0-0.381 0.184-0.708 0.554-0.982 0.25-0.167 0.72-0.423 1.411-0.768 2.81-1.429 5.315-2.143 7.518-2.143 1.274 0 2.464 0.173 3.571 0.518s2.411 0.869 3.911 1.571c0.452 0.226 0.976 0.339 1.571 0.339 0.643 0 1.342-0.125 2.098-0.375s1.411-0.53 1.964-0.839c0.554-0.31 1.077-0.589 1.571-0.839s0.818-0.375 0.973-0.375c0.309 0 0.577 0.113 0.804 0.339s0.339 0.494 0.339 0.804z"></path>
</symbol>
<symbol id="icon-candle" viewBox="0 0 32 32">
<path d="M16.627 6.275h-1.255v2.824h1.255v-2.824z"></path>
<path d="M14.486 6.789c-0.010-0.009-0.010-0.009-0.020-0.019-0.619-0.762-0.599-1.845 0.010-2.616 0.658-0.838 1.533-2.184 1.081-2.899 0 0 2.338 1.798 1.985 2.965 0 0 0.992-0.612 0.914-1.318 0 0 0.521 3.896-1.503 4.282h-1.611c-0.334 0-0.648-0.141-0.855-0.395zM20.705 10.206v16.442c-3.134-0.188-6.278-0.179-9.412 0.019v-16.471c0-0.809 0.688-1.468 1.533-1.468h6.347c0.845 0.019 1.533 0.668 1.533 1.478z"></path>
<path d="M12.731 14.255c0-0.71-1.273-2.648-1.273-2.648s-1.273 1.928-1.273 2.648c0 0.71 0.57 1.285 1.273 1.285 0.703 0.010 1.273-0.566 1.273-1.285zM21.442 17.488c0-0.499-0.893-1.947-0.893-1.947s-0.893 1.449-0.893 1.947c0 0.499 0.399 0.902 0.893 0.902s0.893-0.403 0.893-0.902zM15.999 28.539c1.52 0 3.030 0.058 4.55 0.153 3.8 0.249 7.581 0.806 11.305 1.669 0.218 0.048 0.18 0.384-0.038 0.384h-31.625c-0.228 0-0.266-0.326-0.038-0.384 3.733-0.863 7.514-1.42 11.305-1.669 1.51-0.105 3.021-0.153 4.541-0.153z"></path>
</symbol>
<symbol id="icon-candle-alt" viewBox="0 0 32 32">
<path d="M16.41 5.976h-1.58v3.556h1.58v-3.556z"></path>
<path d="M13.942 6.969c-0.013-0.012-0.013-0.012-0.027-0.024-0.842-0.96-0.815-2.323 0.013-3.295 0.895-1.055 2.084-2.75 1.47-3.65 0 0 3.18 2.264 2.699 3.733 0 0 1.349-0.77 1.243-1.659 0 0 0.708 4.907-2.044 5.393h-2.191c-0.454 0-0.882-0.178-1.162-0.498zM22.4 11.271v20.705c-4.262-0.237-8.538-0.225-12.8 0.024v-20.741c0-1.019 0.935-1.849 2.084-1.849h8.631c1.149 0.024 2.084 0.841 2.084 1.861z"></path>
</symbol>
<symbol id="icon-email-fill" viewBox="0 0 32 32">
<path d="M0 6.675v-0.834c0-0.539 0.211-1.056 0.586-1.437s0.884-0.595 1.414-0.595h28c0.53 0 1.039 0.214 1.414 0.595s0.586 0.898 0.586 1.437v0.834l-16 10.159-16-10.159zM16.53 18.893c-0.159 0.101-0.343 0.154-0.53 0.154s-0.371-0.053-0.53-0.154l-15.47-9.822v17.088c0 0.539 0.211 1.056 0.586 1.437s0.884 0.595 1.414 0.595h28c0.53 0 1.039-0.214 1.414-0.595s0.586-0.898 0.586-1.437v-17.088l-15.47 9.822z"></path>
</symbol>
<symbol id="icon-email" viewBox="0 0 32 32">
<path d="M28.375 3.692h-24.75c-1.999 0-3.625 1.662-3.625 3.705v17.206c0 2.043 1.626 3.705 3.625 3.705h24.75c1.999 0 3.625-1.662 3.625-3.705v-17.206c0-2.043-1.626-3.705-3.625-3.705zM31 7.397v17.206c0 0.577-0.18 1.112-0.485 1.55l-11.081-13.132 10.897-7.41c0.415 0.475 0.668 1.1 0.668 1.786zM28.375 4.714c0.381-0 0.758 0.085 1.104 0.25l-13.479 9.165-13.479-9.165c0.346-0.165 0.722-0.25 1.104-0.25h24.75zM1 24.603v-17.206c0-0.685 0.253-1.311 0.668-1.786l10.897 7.41-11.081 13.132c-0.305-0.438-0.484-0.973-0.484-1.55zM3.625 27.286c-0.502 0-0.994-0.147-1.416-0.426l11.212-13.258 2.302 1.565c0.082 0.056 0.178 0.086 0.277 0.086s0.195-0.030 0.277-0.086l2.302-1.565 11.212 13.258c-0.422 0.278-0.914 0.426-1.416 0.426h-24.75z"></path>
</symbol>
<symbol id="icon-camera" viewBox="0 0 32 32">
<path d="M16 10.848c-3.36 0-6.080 2.72-6.080 6.080s2.72 6.080 6.080 6.080c3.36 0 6.080-2.72 6.080-6.080 0-3.328-2.72-6.080-6.080-6.080zM16 21.728c-2.656 0-4.8-2.144-4.8-4.8s2.144-4.8 4.8-4.8c2.656 0 4.8 2.144 4.8 4.8s-2.144 4.8-4.8 4.8zM26.56 9.568l-4.8 0.032-2.016-2.944c-0.128-0.16-0.32-0.256-0.512-0.256h-6.464c-0.192 0-0.384 0.096-0.512 0.256l-2.016 2.944h-4.8c-1.408 0-2.56 1.12-2.56 2.528v10.912c0 1.408 1.152 2.56 2.56 2.56h21.12c1.408 0 2.56-1.152 2.56-2.56v-11.2c0-1.408-1.152-2.272-2.56-2.272zM27.84 23.040c0 0.704-0.576 1.28-1.28 1.28h-21.12c-0.704 0-1.28-0.576-1.28-1.28v-10.912c0-0.704 0.576-1.248 1.28-1.248h5.12c0.192 0 0.384-0.096 0.512-0.256l2.016-2.944h5.824l2.016 2.944c0.128 0.16 0.32 0.256 0.512 0.256l5.12-0.032c0.704 0 1.28 0.288 1.28 0.992v11.2z"></path>
</symbol>
<symbol id="icon-chevrons-down" viewBox="0 0 32 32">
<path d="M28 15.106l-1.752-1.568-10.248 9.25-10.248-9.25-1.752 1.568 12 10.74 12-10.74z"></path>
<path d="M28 7.722l-1.752-1.568-10.248 9.25-10.248-9.25-1.752 1.568 12 10.74 12-10.74z"></path>
</symbol>
<symbol id="icon-send" viewBox="0 0 32 32">
<path d="M31.345 16c0-0.195-0.057-0.385-0.163-0.548s-0.258-0.291-0.437-0.369l-27.577-12.021c-0.17-0.074-0.357-0.099-0.54-0.073s-0.356 0.103-0.498 0.221c-0.142 0.118-0.249 0.274-0.308 0.45s-0.068 0.364-0.027 0.545l2.121 9.192c0.038 0.167 0.119 0.321 0.234 0.448s0.261 0.222 0.423 0.276l5.64 1.879-5.64 1.879c-0.162 0.054-0.308 0.149-0.423 0.276s-0.196 0.281-0.234 0.448l-2.121 9.192c-0.038 0.165-0.034 0.337 0.013 0.501s0.134 0.311 0.254 0.431l0.065 0.065c0.143 0.119 0.315 0.195 0.499 0.221s0.371 0 0.541-0.074l27.577-12.021c0.179-0.078 0.332-0.206 0.439-0.369s0.164-0.354 0.164-0.55z"></path>
</symbol>
<symbol id="icon-privatbank" viewBox="0 0 32 32">
<path fill="#373435" d="M0 31.998h12.506v-12.512h-12.506v12.512z"></path>
<path fill="#60b238" d="M25.388 6.614c0 4.255 0 14.516 0 18.77-1.188 0-1.397 0-2.551 0-1.101-9.283-6.932-15.114-16.212-16.216 0-1.155 0-1.363 0-2.554 4.253 0 14.51 0 18.763 0zM0.013 0v15.573h3.307c8.703 0 13.116 4.414 13.116 13.118v3.309h15.565v-32h-31.988z"></path>
</symbol>
<symbol id="icon-play-fill" viewBox="0 0 32 32">
<path d="M32 16c0 8.837-7.163 16-16 16s-16-7.163-16-16c0-8.837 7.163-16 16-16s16 7.163 16 16z"></path>
<path fill="#fff" style="fill: var(--color2, #fff)" d="M23.853 16.185c0 0.090-0.023 0.178-0.067 0.256s-0.108 0.143-0.185 0.189l-11.305 6.709c-0.078 0.046-0.167 0.071-0.258 0.072s-0.18-0.023-0.259-0.068-0.144-0.11-0.19-0.189c-0.046-0.079-0.069-0.168-0.069-0.259v-13.418c0-0.091 0.024-0.18 0.069-0.259s0.111-0.144 0.19-0.189 0.168-0.068 0.259-0.068c0.091 0.001 0.18 0.025 0.258 0.072l11.305 6.709c0.077 0.046 0.141 0.111 0.185 0.189s0.067 0.166 0.067 0.256z"></path>
</symbol>
<symbol id="icon-play" viewBox="0 0 32 32">
<path d="M16 2c7.8 0 14 6.2 14 14s-6.2 14-14 14c-7.8 0-14-6.2-14-14s6.2-14 14-14zM16 0c-8.8 0-16 7.2-16 16s7.2 16 16 16c8.8 0 16-7.2 16-16s-7.2-16-16-16z"></path>
<path d="M12 8v16l12-8-12-8z"></path>
</symbol>
<symbol id="icon-list-bullets" viewBox="0 0 32 32">
<path d="M3.478 29.217c1.153 0 2.087-0.934 2.087-2.087s-0.934-2.087-2.087-2.087c-1.153 0-2.087 0.934-2.087 2.087s0.934 2.087 2.087 2.087z"></path>
<path d="M10.435 26.435h19.478c0.384 0 0.696 0.311 0.696 0.696s-0.311 0.696-0.696 0.696h-19.478c-0.384 0-0.696-0.311-0.696-0.696s0.311-0.696 0.696-0.696z"></path>
<path d="M3.478 18.087c1.153 0 2.087-0.934 2.087-2.087s-0.934-2.087-2.087-2.087c-1.153 0-2.087 0.934-2.087 2.087s0.934 2.087 2.087 2.087z"></path>
<path d="M10.435 15.304h19.478c0.384 0 0.696 0.311 0.696 0.696s-0.311 0.696-0.696 0.696h-19.478c-0.384 0-0.696-0.311-0.696-0.696s0.311-0.696 0.696-0.696z"></path>
<path d="M3.478 6.957c1.153 0 2.087-0.934 2.087-2.087s-0.934-2.087-2.087-2.087c-1.153 0-2.087 0.934-2.087 2.087s0.934 2.087 2.087 2.087z"></path>
<path d="M10.435 4.174h19.478c0.384 0 0.696 0.311 0.696 0.696s-0.311 0.696-0.696 0.696h-19.478c-0.384 0-0.696-0.311-0.696-0.696s0.311-0.696 0.696-0.696z"></path>
</symbol>
<symbol id="icon-islam" viewBox="0 0 32 32">
<path d="M26.667 19.239l3.296 2.094-0.872-3.947 2.909-2.653-3.835-0.348-1.499-3.719-1.499 3.719-3.835 0.348 2.909 2.653-0.872 3.947 3.296-2.094z"></path>
<path d="M21.424 3c-7.325 0-13.263 5.821-13.263 13s5.938 13 13.263 13c2.284 0 4.433-0.566 6.309-1.563-2.943 2.821-6.968 4.563-11.41 4.563-9.015 0-16.323-7.164-16.323-16s7.308-16 16.323-16c4.442 0 8.467 1.741 11.41 4.563-1.876-0.997-4.025-1.563-6.309-1.563z"></path>
</symbol>
<symbol id="icon-judaism" viewBox="0 0 32 32">
<path d="M29.867 8h-9.244l-4.622-8-4.622 8h-9.244l4.623 8-4.623 8h9.244l4.622 8 4.622-8h9.244l-4.623-8 4.623-8zM21.679 16l-2.839 4.914h-5.679l-2.839-4.914 2.839-4.914h5.679l2.839 4.914zM16 6.171l1.057 1.829h-2.113l1.057-1.829zM7.482 11.085h2.114l-1.057 1.829-1.057-1.829zM7.482 20.915l1.057-1.829 1.057 1.829h-2.113zM16 25.829l-1.056-1.829h2.113l-1.057 1.829zM24.518 20.915h-2.114l1.057-1.829 1.057 1.829zM22.405 11.085h2.114l-1.057 1.829-1.057-1.829z"></path>
</symbol>
<symbol id="icon-taoism" viewBox="0 0 32 32">
<path fill="#fff" d="M-0.001 16c0-8.802 7.108-15.945 15.897-16h0.104c8.837-0.001 16.001 7.163 16.001 16 0 8.802-7.108 15.945-15.897 16h-0.104c-8.837 0.001-16.001-7.163-16.001-16z"></path>
<path d="M32 16c0 8.837-7.163 16-16 16s-16-7.163-16-16c0-8.837 7.163-16 16-16s16 7.163 16 16zM0.96 16c0 8.306 6.734 15.040 15.040 15.040s15.040-6.734 15.040-15.040c0-8.306-6.734-15.040-15.040-15.040s-15.040 6.734-15.040 15.040z"></path>
<path d="M-0.001 16c0-8.802 7.108-15.945 15.897-16-2.113 0.027-4.13 0.889-5.61 2.397s-2.303 3.541-2.289 5.654 0.863 4.135 2.362 5.624c1.499 1.489 3.527 2.325 5.64 2.324s4.141 0.835 5.64 2.324c1.499 1.489 2.349 3.511 2.362 5.624s-0.809 4.146-2.289 5.654c-1.48 1.508-3.496 2.37-5.61 2.397h-0.104c-8.837 0.001-16.001-7.163-16.001-16z"></path>
<path d="M15.999 5.923c-1.147 0-2.076 0.93-2.076 2.077s0.93 2.077 2.076 2.077c1.147 0 2.077-0.93 2.077-2.077s-0.93-2.077-2.077-2.077z"></path>
<path fill="#fff" d="M15.999 21.924c-1.147 0-2.076 0.93-2.076 2.076s0.93 2.077 2.076 2.077c1.147 0 2.077-0.93 2.077-2.077s-0.93-2.076-2.077-2.076z"></path>
</symbol>
<symbol id="icon-pen" viewBox="0 0 32 32">
<path d="M26.38 9.579l-2.085 2.085-4.021-3.898 2.146-2.146c0.525-0.525 1.237-0.82 1.98-0.82s1.455 0.295 1.98 0.82c0.525 0.525 0.82 1.237 0.82 1.98s-0.295 1.455-0.82 1.98zM23.074 12.883l-12.817 12.817-5.457 1.52 1.497-5.478 12.769-12.769 4.008 3.91z"></path>
</symbol>
<symbol id="icon-trash" viewBox="0 0 32 32">
<path d="M20 4c0.354 0 0.693 0.14 0.943 0.391s0.391 0.589 0.391 0.943h2.667c0.354 0 0.693 0.14 0.943 0.391s0.391 0.589 0.391 0.943c0 0.354-0.14 0.693-0.391 0.943s-0.589 0.391-0.943 0.391h-16c-0.354 0-0.693-0.14-0.943-0.391s-0.391-0.589-0.391-0.943c0-0.354 0.14-0.693 0.391-0.943s0.589-0.391 0.943-0.391h2.667c0-0.354 0.14-0.693 0.391-0.943s0.589-0.391 0.943-0.391h8z"></path>
<path d="M8 9.334h16v16c0 0.707-0.281 1.385-0.781 1.886s-1.178 0.781-1.886 0.781h-10.667c-0.707 0-1.386-0.281-1.886-0.781s-0.781-1.178-0.781-1.886v-16zM12.667 12c-0.177 0-0.346 0.070-0.471 0.195s-0.195 0.295-0.195 0.471v12c0 0.177 0.070 0.346 0.195 0.472s0.295 0.195 0.471 0.195 0.346-0.070 0.471-0.195c0.125-0.125 0.195-0.295 0.195-0.472v-12c0-0.177-0.070-0.346-0.195-0.471s-0.295-0.195-0.471-0.195zM19.333 12c-0.177 0-0.346 0.070-0.471 0.195s-0.195 0.295-0.195 0.471v12c0 0.177 0.070 0.346 0.195 0.472s0.295 0.195 0.471 0.195 0.346-0.070 0.472-0.195c0.125-0.125 0.195-0.295 0.195-0.472v-12c0-0.177-0.070-0.346-0.195-0.471s-0.295-0.195-0.472-0.195z"></path>
</symbol>
<symbol id="icon-cog" viewBox="0 0 32 32">
<path d="M30.044 12.787h-1.531c-0.412 0-0.894-0.375-1.056-0.819-0.144-0.412-0.319-0.819-0.513-1.219-0.206-0.419-0.131-1.025 0.163-1.319l1.094-1.094c0.763-0.763 0.763-2.006 0-2.769l-1.769-1.769c-0.369-0.369-0.862-0.575-1.388-0.575s-1.019 0.2-1.387 0.575l-1.088 1.094c-0.175 0.175-0.469 0.281-0.781 0.281-0.194 0-0.381-0.037-0.538-0.119-0.394-0.194-0.806-0.362-1.219-0.513-0.444-0.156-0.819-0.644-0.819-1.056v-1.531c0-1.075-0.881-1.956-1.963-1.956h-2.5c-1.081 0-1.956 0.881-1.956 1.956v1.531c0 0.413-0.375 0.9-0.819 1.056-0.412 0.144-0.825 0.319-1.219 0.506-0.156 0.075-0.344 0.119-0.537 0.119-0.313 0-0.606-0.106-0.781-0.281l-1.088-1.087c-0.369-0.369-0.862-0.575-1.388-0.575s-1.019 0.206-1.388 0.575l-1.775 1.775c-0.369 0.369-0.575 0.862-0.575 1.388s0.206 1.013 0.575 1.381l1.094 1.094c0.294 0.294 0.369 0.9 0.169 1.319-0.194 0.4-0.362 0.806-0.513 1.219-0.156 0.444-0.644 0.819-1.056 0.819h-1.531c-1.081-0.006-1.962 0.875-1.962 1.956v2.5c0 1.081 0.881 1.956 1.956 1.956h1.531c0.413 0 0.9 0.375 1.056 0.819 0.144 0.412 0.319 0.819 0.513 1.219 0.206 0.419 0.125 1.025-0.169 1.319l-1.094 1.094c-0.763 0.762-0.763 2.006 0 2.769l1.775 1.775c0.369 0.369 0.862 0.575 1.388 0.575s1.013-0.206 1.388-0.575l1.094-1.094c0.175-0.175 0.469-0.281 0.781-0.281 0.194 0 0.381 0.038 0.537 0.119 0.394 0.194 0.806 0.363 1.219 0.506 0.444 0.156 0.819 0.644 0.819 1.056v1.531c0 1.081 0.881 1.956 1.956 1.956h2.5c1.081 0 1.963-0.881 1.963-1.956v-1.531c0-0.412 0.375-0.9 0.819-1.056 0.412-0.144 0.825-0.319 1.219-0.506 0.15-0.075 0.344-0.119 0.538-0.119 0.312 0 0.606 0.106 0.781 0.281l1.088 1.094c0.369 0.369 0.862 0.575 1.387 0.575s1.013-0.206 1.388-0.575l1.769-1.775c0.763-0.762 0.763-2.006 0-2.769l-1.088-1.088c-0.294-0.294-0.369-0.9-0.162-1.319 0.194-0.394 0.362-0.806 0.506-1.219 0.156-0.444 0.644-0.819 1.056-0.819h1.531c1.081 0 1.956-0.881 1.956-1.956v-2.506c0-1.081-0.881-1.963-1.956-1.963zM16 21.744c-3.169 0-5.744-2.575-5.744-5.744 0-3.162 2.575-5.744 5.744-5.744s5.744 2.575 5.744 5.744c0 3.163-2.575 5.744-5.744 5.744z"></path>
</symbol>
<symbol id="icon-comments" viewBox="0 0 32 32">
<path d="M25.143 13.714c0 1.655-0.56 3.185-1.679 4.589s-2.646 2.515-4.58 3.33c-1.935 0.816-4.039 1.223-6.313 1.223-1.024 0-2.071-0.095-3.143-0.286-1.476 1.048-3.131 1.81-4.964 2.286-0.429 0.107-0.94 0.202-1.536 0.286h-0.054c-0.131 0-0.253-0.048-0.366-0.143s-0.182-0.22-0.205-0.375c-0.012-0.036-0.018-0.074-0.018-0.116s0.003-0.080 0.009-0.116c0.006-0.036 0.018-0.071 0.036-0.107l0.045-0.089 0.063-0.098 0.071-0.089 0.080-0.089 0.071-0.080c0.060-0.072 0.196-0.22 0.411-0.447s0.369-0.402 0.464-0.527 0.229-0.298 0.402-0.518c0.173-0.22 0.321-0.449 0.446-0.687s0.247-0.5 0.366-0.786c-1.476-0.857-2.637-1.911-3.482-3.161s-1.268-2.583-1.268-4c0-1.655 0.56-3.184 1.679-4.589s2.646-2.515 4.58-3.33c1.935-0.816 4.039-1.223 6.313-1.223s4.378 0.408 6.313 1.223c1.934 0.815 3.461 1.926 4.58 3.33s1.679 2.935 1.679 4.589zM32 18.286c0 1.428-0.423 2.765-1.268 4.009s-2.006 2.295-3.482 3.152c0.119 0.286 0.241 0.548 0.366 0.786s0.274 0.467 0.447 0.688c0.172 0.22 0.307 0.393 0.402 0.518s0.25 0.301 0.464 0.527c0.214 0.226 0.351 0.375 0.411 0.446 0.012 0.012 0.036 0.039 0.071 0.080s0.063 0.072 0.080 0.089c0.018 0.018 0.042 0.048 0.072 0.089s0.051 0.074 0.062 0.098l0.045 0.089 0.036 0.107 0.009 0.116-0.018 0.116c-0.036 0.167-0.113 0.298-0.232 0.393s-0.25 0.137-0.393 0.125c-0.595-0.083-1.107-0.179-1.536-0.286-1.833-0.476-3.488-1.238-4.964-2.286-1.071 0.19-2.119 0.286-3.143 0.286-3.226 0-6.036-0.786-8.429-2.357 0.69 0.048 1.214 0.072 1.571 0.072 1.917 0 3.756-0.268 5.518-0.804s3.333-1.304 4.714-2.304c1.488-1.095 2.631-2.357 3.429-3.786s1.196-2.941 1.196-4.536c0-0.917-0.137-1.821-0.411-2.714 1.536 0.845 2.75 1.905 3.643 3.179s1.339 2.643 1.339 4.107z"></path>
</symbol>
<symbol id="icon-email-fill-alt" viewBox="0 0 32 32">
<path d="M26.667 5.333h-21.333c-1.467 0-2.653 1.2-2.653 2.667l-0.013 16c0 1.467 1.2 2.667 2.667 2.667h21.333c1.467 0 2.667-1.2 2.667-2.667v-16c0-1.467-1.2-2.667-2.667-2.667zM26.133 11l-9.427 5.893c-0.427 0.267-0.987 0.267-1.413 0l-9.427-5.893c-0.333-0.213-0.533-0.573-0.533-0.96 0-0.893 0.973-1.427 1.733-0.96l8.933 5.587 8.933-5.587c0.76-0.467 1.733 0.067 1.733 0.96 0 0.387-0.2 0.747-0.533 0.96z"></path>
</symbol>
<symbol id="icon-bell" viewBox="0 0 32 32">
<path d="M16 29.333c1.467 0 2.667-1.2 2.667-2.667h-5.333c0 1.467 1.187 2.667 2.667 2.667zM24 21.333v-6.667c0-4.093-2.187-7.52-6-8.427v-0.907c0-1.107-0.893-2-2-2s-2 0.893-2 2v0.907c-3.827 0.907-6 4.32-6 8.427v6.667l-1.72 1.72c-0.84 0.84-0.253 2.28 0.933 2.28h17.56c1.187 0 1.787-1.44 0.947-2.28l-1.72-1.72z"></path>
</symbol>
<symbol id="icon-sign-out" viewBox="0 0 32 32">
<path d="M22.667 2.667h-13.333c-2.267 0-4 1.733-4 4v8h11.467l-3.067-3.067c-0.533-0.533-0.533-1.333 0-1.867s1.333-0.533 1.867 0l5.333 5.333c0.533 0.533 0.533 1.333 0 1.867l-5.333 5.333c-0.533 0.533-1.333 0.533-1.867 0s-0.533-1.333 0-1.867l3.067-3.067h-11.467v8c0 2.267 1.733 4 4 4h13.333c2.267 0 4-1.733 4-4v-18.667c0-2.267-1.733-4-4-4z"></path>
</symbol>
<symbol id="icon-exclamation" viewBox="0 0 32 32">
<path d="M19.459 24.273v4.454c0 0.345-0.114 0.643-0.342 0.895s-0.498 0.378-0.811 0.378h-4.612c-0.312 0-0.582-0.126-0.811-0.378s-0.342-0.55-0.342-0.895v-4.454c0-0.345 0.114-0.643 0.342-0.895s0.498-0.378 0.811-0.378h4.612c0.312 0 0.582 0.126 0.811 0.378s0.342 0.55 0.342 0.895zM19.999 3.273l-0.504 15.273c-0.012 0.345-0.135 0.643-0.369 0.895s-0.507 0.378-0.82 0.378h-4.612c-0.312 0-0.585-0.126-0.82-0.378s-0.357-0.55-0.369-0.895l-0.504-15.273c-0.012-0.345 0.093-0.643 0.315-0.895s0.489-0.378 0.802-0.378h5.764c0.312 0 0.579 0.126 0.802 0.378s0.327 0.55 0.315 0.895z"></path>
</symbol>
<symbol id="icon-thumb-up" viewBox="0 0 32 32">
<path d="M28 12h-8v-6c0-2.206-1.794-4-4-4h-3c-0.265 0-0.52 0.105-0.707 0.293s-0.293 0.442-0.293 0.707v4.734l-3.868 6.77c-0.087 0.151-0.133 0.322-0.132 0.496v14c0 0.265 0.105 0.52 0.293 0.707s0.442 0.293 0.707 0.293h16.050c0.773-0 1.53-0.225 2.179-0.647s1.161-1.022 1.475-1.729l3.208-7.218c0.058-0.128 0.088-0.266 0.088-0.406v-4c0-2.206-1.794-4-4-4zM0 15v14c0 0.265 0.105 0.52 0.293 0.707s0.442 0.293 0.707 0.293h5v-16h-5c-0.265 0-0.52 0.105-0.707 0.293s-0.293 0.442-0.293 0.707v0z"></path>
</symbol>
<symbol id="icon-download" viewBox="0 0 32 32">
<path d="M20.772 13.273c0.264-0.264 0.692-0.264 0.957 0s0.264 0.692 0 0.957l-5.25 5.249c-0.264 0.264-0.692 0.264-0.957 0l-5.25-5.249c-0.264-0.264-0.264-0.692 0-0.957s0.692-0.264 0.957 0l4.772 4.77 4.772-4.77z"></path>
<path d="M15.323 18.996v-13.996c0-0.374 0.303-0.677 0.677-0.677s0.677 0.303 0.677 0.677v13.996c0 0.374-0.303 0.677-0.677 0.677s-0.677-0.303-0.677-0.677z"></path>
<path d="M4.323 26v-7c0-0.374 0.303-0.677 0.677-0.677s0.677 0.303 0.677 0.677v7c0 0.086 0.034 0.168 0.095 0.228s0.143 0.095 0.228 0.095h20c0.086 0 0.168-0.034 0.228-0.095s0.095-0.143 0.095-0.228v-7c0-0.374 0.303-0.677 0.677-0.677s0.677 0.303 0.677 0.677v7c0 0.445-0.176 0.872-0.49 1.186s-0.742 0.49-1.186 0.49h-20c-0.445 0-0.872-0.176-1.186-0.49s-0.49-0.742-0.49-1.186z"></path>
</symbol>
<symbol id="icon-link" viewBox="0 0 32 32">
<path d="M26.368 14.273l-3.872 3.872c-0.256 0.256-0.64 0.256-0.896 0s-0.256-0.64 0-0.896l3.872-3.872c1.888-1.888 1.888-4.96 0-6.848-0.928-0.928-2.112-1.408-3.424-1.408-1.28 0-2.496 0.512-3.424 1.408l-3.872 3.872c-1.888 1.888-1.888 4.96 0 6.848 0.448 0.448 0.992 0.832 1.6 1.056 0.32 0.128 0.48 0.512 0.352 0.832-0.288 0.672-1.024 0.288-0.832 0.352-0.768-0.32-1.44-0.768-2.016-1.344-2.4-2.368-2.4-6.272 0-8.64l3.872-3.872c1.152-1.152 2.688-1.792 4.32-1.792s3.168 0.64 4.32 1.792c2.4 2.368 2.4 6.272 0 8.64zM16.128 12.513c-0.32-0.128-0.704 0.032-0.832 0.352s0.032 0.704 0.352 0.832c0.608 0.256 1.152 0.608 1.6 1.056 1.888 1.888 1.888 4.96 0 6.848l-3.872 3.872c-0.928 0.928-2.112 1.408-3.424 1.408-1.28 0-2.496-0.512-3.424-1.408-1.888-1.888-1.888-4.96 0-6.848l3.872-3.872c0.256-0.256 0.256-0.64 0-0.896s-0.64-0.256-0.896 0l-3.872 3.872c-2.368 2.368-2.368 6.272 0 8.64 1.152 1.152 2.688 1.792 4.32 1.792s3.168-0.64 4.32-1.792l3.872-3.872c2.4-2.368 2.4-6.272 0-8.64-0.576-0.576-1.248-1.024-2.016-1.344z"></path>
</symbol>
<symbol id="icon-plus" viewBox="0 0 32 32">
<path d="M16 4.8c0.884 0 1.6 0.716 1.6 1.6v19.2c0 0.884-0.716 1.6-1.6 1.6s-1.6-0.716-1.6-1.6v-19.2c0-0.884 0.716-1.6 1.6-1.6z"></path>
<path d="M27.2 16c0 0.884-0.716 1.6-1.6 1.6h-19.2c-0.884 0-1.6-0.716-1.6-1.6s0.716-1.6 1.6-1.6h19.2c0.884 0 1.6 0.716 1.6 1.6z"></path>
</symbol>
</defs>
</svg>