<svg width="77" height="80" viewBox="0 0 77 80" fill="none" xmlns="http://www.w3.org/2000/svg">
<g clip-path="url(#clip0_1_6106)">
<path d="M39.941 52.9166C46.5889 52.9166 51.983 47.5398 51.9891 40.9072C51.9952 34.2745 46.6109 28.8977 39.9631 28.8977C33.3152 28.8977 27.9211 34.2745 27.915 40.9072C27.9089 47.5398 33.2931 52.9166 39.941 52.9166Z" fill="#FAD101"/>
<path d="M39.9391 54.8144C47.6375 54.8144 53.884 48.588 53.891 40.9072C53.8981 33.2265 47.6631 27 39.9647 27C32.2663 27 26.0198 33.2265 26.0127 40.9072C26.0057 48.588 32.2407 54.8144 39.9391 54.8144Z" stroke="#323232" stroke-linecap="round" stroke-linejoin="round"/>
<path d="M52.4526 51.2068L58.6265 57.3925C59.0456 57.8142 59.2809 58.3852 59.2809 58.9804C59.2809 59.5757 59.0456 60.1467 58.6265 60.5683V60.5683C58.2064 60.9883 57.6374 61.2241 57.0442 61.2241C56.451 61.2241 55.882 60.9883 55.462 60.5683L49.2949 54.3791" stroke="#323232" stroke-linecap="round" stroke-linejoin="round"/>
<path d="M43.7794 57.365C46.4592 56.3939 48.8928 54.8435 50.9077 52.8236C52.9225 50.8038 54.4692 48.3641 55.4378 45.6777" stroke="#323232" stroke-linecap="round" stroke-linejoin="round"/>
<path d="M58.3852 45.4497V0.691162H26.5641L18.6149 8.66006V45.4255" stroke="#323232" stroke-linecap="round" stroke-linejoin="round"/>
<path d="M28.2601 3.9292V10.3603H21.8448" stroke="#323232" stroke-linecap="round" stroke-linejoin="round"/>
<path d="M58.3852 14.3171H70.6675C71.4073 14.3167 72.14 14.4624 72.8236 14.746C73.5072 15.0297 74.1283 15.4456 74.6515 15.97C75.1746 16.4944 75.5895 17.1171 75.8724 17.8024C76.1553 18.4877 76.3007 19.2221 76.3002 19.9638V64.9677C76.2966 66.4629 75.7015 67.8956 74.6456 68.9515C73.5896 70.0075 72.159 70.6005 70.6675 70.6005H6.32217C4.83095 70.5996 3.40086 70.0063 2.34511 68.9505C1.28936 67.8948 0.694013 66.4626 0.689453 64.9677V19.9638C0.689453 18.4662 1.2829 17.03 2.33924 15.971C3.39558 14.9121 4.82828 14.3171 6.32217 14.3171H18.6149" stroke="#323232" stroke-linecap="round" stroke-linejoin="round"/>
<path d="M19.2147 70.6006L15.7744 79.309H38.5018H61.2257L57.7888 70.6006" stroke="#323232" stroke-linecap="round" stroke-linejoin="round"/>
<path d="M28.9978 21.3184H48.0056" stroke="#323232" stroke-linecap="round" stroke-linejoin="round"/>
<path d="M28.9978 16.9988H48.0056" stroke="#323232" stroke-linecap="round" stroke-linejoin="round"/>
<path d="M37.0153 40.3137C37.0153 40.3137 40.7851 38.6931 40.2191 34.3473C40.4685 33.6542 41.376 34.2127 41.376 34.2127C41.376 34.2127 42.306 34.6939 42.1639 36.4566C42.1639 36.4566 41.9869 38.3989 41.9869 38.5759C41.9869 38.5759 41.8896 39.1693 42.6376 39.1394L46.4673 39.1095C46.4673 39.1095 47.8436 39.8151 46.5147 40.8548C46.5147 40.8548 47.6391 41.8271 46.2653 42.7871C46.2653 42.7871 47.4147 43.6697 46.0758 44.7443C46.0758 44.7443 47.0557 45.6045 45.8265 46.4896H38.6882L37.0153 46.0433" stroke="#323232" stroke-linecap="round" stroke-linejoin="round"/>
<path d="M35.457 39.3738H34.2453C33.3847 39.3738 32.687 40.0715 32.687 40.9321V45.7292C32.687 46.5898 33.3847 47.2875 34.2453 47.2875H35.457C36.3177 47.2875 37.0153 46.5898 37.0153 45.7292V40.9321C37.0153 40.0715 36.3177 39.3738 35.457 39.3738Z" stroke="#323232" stroke-miterlimit="10"/>
</g>
<defs>
<clipPath id="clip0_1_6106">
<rect width="77" height="80" fill="white"/>
</clipPath>
</defs>
</svg>
