<svg width="80" height="80" viewBox="0 0 80 80" fill="none" xmlns="http://www.w3.org/2000/svg">
<g clip-path="url(#clip0_1_6084)">
<path d="M39.0593 53.7588H21.2439" stroke="#323232" stroke-linecap="round" stroke-linejoin="round"/>
<path d="M44.4121 61.7988H15.8911" stroke="#323232" stroke-linecap="round" stroke-linejoin="round"/>
<path d="M59.8148 33.5967L64.9787 35.1536C66.4186 35.5869 67.74 36.3419 68.8419 37.3611C69.9438 38.3802 70.797 39.6364 71.3365 41.0338C73.1469 45.7295 75.5561 53.1241 76.7571 58.412C78.2503 64.9342 79.2874 69.1581 79.2874 78.6523" stroke="#323232" stroke-linecap="round" stroke-linejoin="round"/>
<path d="M0.712824 69.8319V6.92637C0.712818 5.28055 1.36857 3.70187 2.53632 2.53644C3.70407 1.37101 5.28853 0.713923 6.94233 0.709229H53.3429C54.9998 0.709229 56.5888 1.36425 57.7604 2.53019C58.932 3.69613 59.5902 5.27748 59.5902 6.92637V53.1985C59.5902 55.1597 57.5517 56.3549 55.9623 55.1846C51.1512 51.6593 48.4391 47.9637 46.4256 45.3357C46.1369 44.9524 45.7732 44.6312 45.3563 44.3916C44.9395 44.152 44.4782 43.9989 44.0003 43.9415C43.5224 43.8842 43.0377 43.9238 42.5756 44.058C42.1135 44.1921 41.6835 44.4181 41.3115 44.7222C41.2759 44.7576 41.2438 44.7825 41.2011 44.8179C37.7763 47.8112 41.7107 50.6095 45.834 57.1103C47.0671 59.0361 48.4035 60.9867 48.8917 63.2211C49.9359 68.0373 53.097 72.85 56.144 74.0771C57.1758 74.5041 58.0568 75.2267 58.6748 76.1531C59.2929 77.0795 59.6202 78.1679 59.6152 79.2799V79.2799H6.2866C5.55481 79.2804 4.83009 79.1374 4.15387 78.859C3.47765 78.5806 2.86318 78.1724 2.34556 77.6576C1.82794 77.1428 1.41732 76.5316 1.13717 75.8588C0.85702 75.186 0.712824 74.4649 0.712824 73.7367V69.8354" stroke="#323232" stroke-linecap="round" stroke-linejoin="round"/>
<path d="M41.0479 0.709229V3.74509C41.045 4.634 40.6882 5.48555 40.0556 6.11311C39.423 6.74067 38.5662 7.09306 37.6729 7.09306H22.623C22.1795 7.09306 21.7404 7.00607 21.3307 6.83706C20.921 6.66805 20.5488 6.42034 20.2354 6.10809C19.9219 5.79584 19.6734 5.42517 19.504 5.01728C19.3346 4.60938 19.2477 4.17226 19.2481 3.73091V0.709229" stroke="#323232" stroke-linecap="round" stroke-linejoin="round"/>
<path d="M6.28664 76.0987C5.65995 76.0978 5.05914 75.8499 4.61567 75.4092C4.17219 74.9686 3.92217 74.371 3.92028 73.7474V56.6174L23.4998 76.0987H6.28664Z" fill="#FAD101"/>
<path d="M50.29 13H11V42.4667H50.29V13Z" stroke="#323232" stroke-linecap="round" stroke-linejoin="round"/>
<path d="M30.8449 30.0054C34.2885 30.0054 37.0801 26.6548 37.0801 22.5217C37.0801 18.3886 34.2885 15.0381 30.8449 15.0381C27.4012 15.0381 24.6096 18.3886 24.6096 22.5217C24.6096 26.6548 27.4012 30.0054 30.8449 30.0054Z" stroke="#323232" stroke-linecap="round" stroke-linejoin="round"/>
<path d="M19.6895 38.7154V36.6749C19.6883 35.4391 20.0179 34.2256 20.6442 33.1603C21.2704 32.095 22.1705 31.2168 23.2508 30.6168C24.5919 29.883 26.0041 29.2872 27.4656 28.8386" stroke="#323232" stroke-linecap="round" stroke-linejoin="round"/>
<path d="M34.2288 28.8386C35.6889 29.2879 37.0999 29.8836 38.4402 30.6168C39.5203 31.2168 40.4201 32.0951 41.0461 33.1605C41.672 34.2258 42.0014 35.4393 41.9999 36.6749V38.7154" stroke="#323232" stroke-linecap="round" stroke-linejoin="round"/>
<path d="M37.7118 31.9338C36.6592 31.3577 35.5588 30.8735 34.4229 30.4866C33.3491 31.155 32.1096 31.5093 30.8448 31.5093C29.58 31.5093 28.3405 31.155 27.2668 30.4866C26.131 30.8738 25.0306 31.358 23.9778 31.9338C23.4043 32.2544 22.8945 32.6776 22.4738 33.1822C25.0385 34.5965 27.9228 35.33 30.8515 35.313C33.7803 35.3303 36.6646 34.5967 39.2292 33.1822C38.8045 32.6763 38.2901 32.2531 37.7118 31.9338Z" fill="#FAD101"/>
</g>
<defs>
<clipPath id="clip0_1_6084">
<rect width="80" height="80" fill="white" transform="matrix(-1 0 0 1 80 0)"/>
</clipPath>
</defs>
</svg>
