<svg width="80" height="80" viewBox="0 0 80 80" fill="none" xmlns="http://www.w3.org/2000/svg">
<g clip-path="url(#clip0_1_6126)">
<rect width="5" height="5" transform="matrix(-1 0 0 1 22.0001 25)" fill="#FAD101"/>
<rect width="4" height="5" transform="matrix(-1 0 0 1 32.0001 25)" fill="#FAD101"/>
<rect width="4" height="5" transform="matrix(-1 0 0 1 42.0001 25)" fill="#FAD101"/>
<rect width="4" height="5" transform="matrix(-1 0 0 1 52.0001 25)" fill="#FAD101"/>
<rect width="5" height="5" transform="matrix(-1 0 0 1 63.0001 25)" fill="#FAD101"/>
<rect width="5" height="5" transform="matrix(-1 0 0 1 73.0001 25)" fill="#FAD101"/>
<rect width="4" height="4" transform="matrix(-1 0 0 1 52.0001 36)" fill="#FAD101"/>
<rect width="4" height="4" transform="matrix(-1 0 0 1 42.0001 36)" fill="#FAD101"/>
<rect width="4" height="4" transform="matrix(-1 0 0 1 32.0001 36)" fill="#FAD101"/>
<rect width="5" height="5" transform="matrix(-1 0 0 1 12.0001 25)" fill="#FAD101"/>
<path d="M79.2246 48.9201V24.0685C79.2246 22.9359 78.7728 21.8496 77.9686 21.0487C77.1644 20.2478 76.0737 19.7979 74.9364 19.7979H5.00292C3.86562 19.7979 2.7749 20.2478 1.97071 21.0487C1.16651 21.8496 0.714722 22.9359 0.714722 24.0685V48.9201" stroke="#323232" stroke-linecap="round" stroke-linejoin="round"/>
<path d="M39.8982 19.7908C39.8982 18.442 40.4362 17.1485 41.3939 16.1947C42.3515 15.241 43.6504 14.7052 45.0048 14.7052H54.8605C55.9536 14.7042 57.0016 14.2711 57.7741 13.501C58.5467 12.7309 58.9807 11.6868 58.9807 10.5982V10.5982C58.9807 9.50962 58.5467 8.46554 57.7741 7.69544C57.0016 6.92534 55.9536 6.49223 54.8605 6.49129H24.1641C22.6249 6.49129 21.1488 5.88236 20.0605 4.79848C18.9721 3.71459 18.3607 2.24452 18.3607 0.71167V0.71167" stroke="#323232" stroke-linecap="round" stroke-linejoin="round"/>
<path d="M11.6568 29.9122V25.4529H7.1792V29.9122" stroke="#323232" stroke-linecap="round" stroke-linejoin="round"/>
<path d="M21.8412 29.9122V25.4529H17.3636V29.9122" stroke="#323232" stroke-linecap="round" stroke-linejoin="round"/>
<path d="M32.0257 29.9122V25.4529H27.5446V29.9122" stroke="#323232" stroke-linecap="round" stroke-linejoin="round"/>
<path d="M42.2103 29.9122V25.4529H37.7291V29.9122" stroke="#323232" stroke-linecap="round" stroke-linejoin="round"/>
<path d="M52.3947 29.9122V25.4529H47.9136V29.9122" stroke="#323232" stroke-linecap="round" stroke-linejoin="round"/>
<path d="M62.5756 29.9122V25.4529H58.098V29.9122" stroke="#323232" stroke-linecap="round" stroke-linejoin="round"/>
<path d="M72.7601 29.9122V25.4529H68.2825V29.9122" stroke="#323232" stroke-linecap="round" stroke-linejoin="round"/>
<path d="M32.0257 40.2544V35.7952H27.5446V40.2544" stroke="#323232" stroke-linecap="round" stroke-linejoin="round"/>
<path d="M42.2102 40.2544V35.7952H37.729V40.2544" stroke="#323232" stroke-linecap="round" stroke-linejoin="round"/>
<path d="M52.3947 40.2544V35.7952H47.9136V40.2544" stroke="#323232" stroke-linecap="round" stroke-linejoin="round"/>
<path d="M15.2445 54.3403V40.571C15.244 40.2384 15.3094 39.909 15.4369 39.6016C15.5644 39.2942 15.7514 39.0148 15.9874 38.7795C16.2234 38.5442 16.5036 38.3574 16.8121 38.2301C17.1206 38.1027 17.4513 38.0371 17.7853 38.0371V38.0371C18.1194 38.0371 18.4503 38.1027 18.7589 38.23C19.0676 38.3573 19.3481 38.544 19.5844 38.7793C19.8206 39.0146 20.0081 39.2939 20.1359 39.6013C20.2638 39.9088 20.3296 40.2383 20.3296 40.571V58.5007" stroke="#323232" stroke-linecap="round" stroke-linejoin="round"/>
<path d="M10.1594 54.3404V50.4256C10.1594 49.7545 10.4271 49.1109 10.9036 48.6364C11.3801 48.1619 12.0263 47.8953 12.7002 47.8953V47.8953" stroke="#323232" stroke-linecap="round" stroke-linejoin="round"/>
<path d="M5.07434 54.3404V52.0947C5.07434 51.4227 5.3424 50.7782 5.81956 50.303C6.29671 49.8278 6.94388 49.5608 7.61867 49.5608V49.5608" stroke="#323232" stroke-linecap="round" stroke-linejoin="round"/>
<path d="M4.11663 79.2882C4.21669 74.626 3.8379 73.7363 3.8379 73.7363C3.64607 72.8454 3.40751 71.9652 3.1232 71.0992C1.6497 66.5291 0.841026 61.7724 0.721802 56.974V54.8387C0.723688 54.17 0.991227 53.5293 1.46596 53.0565C1.9407 52.5838 2.58404 52.3173 3.25541 52.3154" stroke="#323232" stroke-linecap="round" stroke-linejoin="round"/>
<path d="M24.8966 50.9346C26.3974 50.9346 27.1908 51.7851 27.4445 52.625C27.4695 52.6998 27.4909 52.7781 27.5088 52.8564C27.6963 53.7093 27.6101 54.5994 27.2622 55.401C26.2046 58.0099 25.8558 60.8503 26.2509 63.6362C26.5555 65.8776 26.0129 68.1518 24.7286 70.0173C23.9103 71.2024 22.9419 72.5405 21.9091 73.7754C21.9091 73.7754 19.3862 76.2667 19.3862 79.2881" stroke="#323232" stroke-linecap="round" stroke-linejoin="round"/>
<path d="M3.25549 52.3047H5.07441" stroke="#323232" stroke-linecap="round" stroke-linejoin="round"/>
<path d="M7.61865 49.5608H10.3095" stroke="#323232" stroke-linecap="round" stroke-linejoin="round"/>
<path d="M12.7002 47.8845H15.2445" stroke="#323232" stroke-linecap="round" stroke-linejoin="round"/>
<path d="M64.7554 54.3403V40.571C64.7559 40.2384 64.6905 39.909 64.5631 39.6016C64.4356 39.2942 64.2485 39.0148 64.0125 38.7795C63.7766 38.5442 63.4963 38.3574 63.1878 38.2301C62.8793 38.1027 62.5486 38.0371 62.2147 38.0371V38.0371C61.881 38.0376 61.5507 38.1035 61.2426 38.2311C60.9346 38.3587 60.6547 38.5455 60.4191 38.7808C60.1835 39.016 59.9968 39.2953 59.8695 39.6024C59.7423 39.9096 59.677 40.2387 59.6775 40.571V58.5007" stroke="#323232" stroke-linecap="round" stroke-linejoin="round"/>
<path d="M69.8406 54.3404V50.4256C69.8406 50.0933 69.7748 49.7643 69.6472 49.4573C69.5195 49.1503 69.3323 48.8714 69.0964 48.6364C68.8605 48.4014 68.5804 48.215 68.2721 48.0879C67.9638 47.9607 67.6335 47.8953 67.2998 47.8953" stroke="#323232" stroke-linecap="round" stroke-linejoin="round"/>
<path d="M74.9256 54.3404V52.0947C74.9261 51.7621 74.8607 51.4327 74.7333 51.1253C74.6058 50.8179 74.4187 50.5385 74.1827 50.3032C73.9468 50.0678 73.6665 49.8811 73.358 49.7537C73.0495 49.6264 72.7188 49.5608 72.3849 49.5608" stroke="#323232" stroke-linecap="round" stroke-linejoin="round"/>
<path d="M75.8834 79.288C75.7833 74.6258 76.1621 73.7361 76.1621 73.7361C76.3531 72.845 76.5917 71.9647 76.8768 71.099C78.3475 66.5283 79.1549 61.7719 79.2747 56.9738L79.2925 54.8385C79.2925 54.5062 79.2268 54.1771 79.0991 53.8701C78.9714 53.5631 78.7843 53.2842 78.5484 53.0492C78.3124 52.8143 78.0323 52.6279 77.7241 52.5007C77.4158 52.3736 77.0854 52.3081 76.7518 52.3081" stroke="#323232" stroke-linecap="round" stroke-linejoin="round"/>
<path d="M55.107 50.9346C53.6026 50.9346 52.8093 51.7851 52.5556 52.625L52.4912 52.8564C52.3037 53.7093 52.39 54.5994 52.7378 55.401C53.7966 58.0096 54.1454 60.8503 53.7491 63.6362C53.4463 65.8775 53.9887 68.1511 55.2714 70.0173C56.0897 71.2024 57.0582 72.5405 58.0945 73.7754C58.0945 73.7754 60.6174 76.2667 60.6174 79.2881" stroke="#323232" stroke-linecap="round" stroke-linejoin="round"/>
<path d="M76.7446 52.3047H74.9257" stroke="#323232" stroke-linecap="round" stroke-linejoin="round"/>
<path d="M72.385 49.5608H69.6906" stroke="#323232" stroke-linecap="round" stroke-linejoin="round"/>
<path d="M67.2998 47.8845H64.7555" stroke="#323232" stroke-linecap="round" stroke-linejoin="round"/>
<path d="M51.8912 45.2527V47.7585H28.0446V45.2527H51.8912Z" fill="#FFC524" stroke="#323232"/>
</g>
<defs>
<clipPath id="clip0_1_6126">
<rect width="80" height="80" fill="white"/>
</clipPath>
</defs>
</svg>
