<svg aria-hidden="true" style="position: absolute; width: 0; height: 0; overflow: hidden;" version="1.1" xmlns="http://www.w3.org/2000/svg" xmlns:xlink="http://www.w3.org/1999/xlink">
<defs>
<symbol id="icon-search" viewBox="0 0 32 32">
<path d="M31.805 30.862l-9.737-9.737c2.022-2.245 3.265-5.206 3.265-8.459-0-6.984-5.682-12.667-12.667-12.667s-12.667 5.682-12.667 12.667c0 6.984 5.682 12.667 12.667 12.667 3.253 0 6.213-1.243 8.459-3.265l9.737 9.737c0.13 0.13 0.301 0.195 0.472 0.195s0.341-0.065 0.471-0.195c0.26-0.261 0.26-0.683 0-0.943zM12.667 24c-6.249 0-11.333-5.084-11.333-11.333s5.085-11.333 11.333-11.333c6.249 0 11.333 5.084 11.333 11.333s-5.085 11.333-11.333 11.333z"></path>
</symbol>
<symbol id="icon-coin" viewBox="0 0 32 32">
<path d="M3 15.667c-0.192 0-0.333 0.144-0.333 0.348v7.304c0 0.204 0.141 0.348 0.333 0.348h2.084c0.192 0 0.333-0.144 0.333-0.348v-7.304c0-0.204-0.141-0.348-0.333-0.348h-2.084zM28.123 15.988c-0.112-0.011-0.219 0.009-0.333 0.027-0.15 0.023-0.299 0.072-0.445 0.161l-6.281 3.558c-0.759 0.951-1.003 1.099-2.334 1.231-1.658 0.028-3.364 0.027-5.030 0.026v-0.856h4.947c0.669 0 0.986-0.155 1.223-0.321 0.107-0.080 0.187-0.204 0.278-0.321 0.108-0.19 0.222-0.378 0.222-0.696 0-0.539-0.164-0.827-0.445-1.044s-0.727-0.348-1.278-0.348h-2.418c-0.637 0-1.31-0.221-1.973-0.428s-1.334-0.405-1.723-0.428h-2.39c-0.719 0-1.354 0.208-1.945 0.428s-1.136 0.482-1.723 0.482h-0.167v5.324h15.007c0.212-0.009 0.374-0.038 0.472-0.081h0.028c0.156-0.056 0.218-0.080 0.222-0.080l6.725-4.12c0.564-0.343 0.742-1.095 0.389-1.659l-0.167-0.294c-0.202-0.322-0.526-0.518-0.862-0.562v0.001z"></path>
<path d="M17.393 2.333c-3.219 0-5.838 2.619-5.838 5.838s2.619 5.838 5.838 5.838c3.219 0 5.838-2.619 5.838-5.838s-2.619-5.838-5.838-5.838zM19.227 9.954c-0.176 0.257-0.407 0.45-0.71 0.594-0.223 0.099-0.456 0.16-0.696 0.182v0.785c0 0.12-0.097 0.216-0.216 0.216h-0.647c-0.12 0-0.216-0.097-0.216-0.216v-0.852c-0.122-0.030-0.242-0.072-0.362-0.127-0.324-0.132-0.585-0.347-0.768-0.636-0.184-0.269-0.282-0.582-0.298-0.953-0.005-0.117 0.085-0.217 0.202-0.225l0.581-0.040c0.117-0.007 0.216 0.076 0.23 0.19 0.023 0.195 0.078 0.356 0.159 0.466 0.091 0.136 0.207 0.226 0.383 0.298 0.373 0.164 0.847 0.164 1.175 0.038 0.145-0.062 0.248-0.134 0.316-0.222 0.058-0.084 0.087-0.172 0.087-0.277 0-0.099-0.025-0.171-0.087-0.25-0.032-0.043-0.115-0.123-0.333-0.21-0.106-0.035-0.383-0.114-0.803-0.215-0.491-0.122-0.775-0.215-0.951-0.311-0.262-0.139-0.46-0.312-0.583-0.513-0.127-0.205-0.191-0.439-0.191-0.695 0-0.279 0.078-0.544 0.231-0.789 0.159-0.239 0.393-0.427 0.681-0.548 0.096-0.044 0.206-0.080 0.33-0.11v-0.721c0-0.12 0.097-0.216 0.216-0.216h0.647c0.12 0 0.216 0.097 0.216 0.216v0.683c0.195 0.032 0.375 0.082 0.538 0.147 0.316 0.142 0.546 0.332 0.71 0.586 0.164 0.239 0.257 0.526 0.273 0.848 0.006 0.118-0.084 0.219-0.202 0.227l-0.595 0.040c-0.115 0.008-0.214-0.074-0.229-0.187-0.033-0.244-0.115-0.415-0.25-0.521-0.153-0.13-0.375-0.191-0.686-0.191-0.304 0-0.548 0.059-0.688 0.167-0.113 0.087-0.166 0.192-0.166 0.331 0 0.106 0.033 0.19 0.099 0.248 0.035 0.027 0.225 0.151 0.839 0.28 0.508 0.12 0.881 0.229 1.085 0.317 0.326 0.147 0.559 0.336 0.695 0.563 0.153 0.228 0.229 0.484 0.229 0.772 0 0.3-0.083 0.58-0.247 0.832z"></path>
</symbol>
<symbol id="icon-facebook" viewBox="0 0 32 32">
<path fill="#1778f2" d="M32 16c0-8.837-7.163-16-16-16s-16 7.163-16 16c0 8.837 7.163 16 16 16s16-7.163 16-16z"></path>
<path fill="#fdfdfd" d="M17.276 25.031v-8.565h2.875l0.431-3.338h-3.306v-2.131c0-0.966 0.268-1.625 1.654-1.625h1.767v-2.984c-0.856-0.090-1.715-0.134-2.576-0.131-2.548 0-4.293 1.555-4.293 4.412v2.46h-2.882v3.338h2.882v8.565h3.447z"></path>
</symbol>
<symbol id="icon-youtube" viewBox="0 0 32 32">
<path fill="#f00" d="M32 16c0-8.837-7.163-16-16-16s-16 7.163-16 16c0 8.837 7.163 16 16 16s16-7.163 16-16z"></path>
<path fill="#fff" d="M23.825 9.427c-1.565-0.428-7.825-0.428-7.825-0.428s-6.26 0-7.825 0.412c-0.84 0.231-1.532 0.923-1.763 1.779-0.412 1.565-0.412 4.81-0.412 4.81s0 3.262 0.412 4.811c0.231 0.857 0.906 1.532 1.763 1.763 1.582 0.428 7.825 0.428 7.825 0.428s6.26 0 7.825-0.412c0.857-0.231 1.532-0.906 1.763-1.763 0.412-1.565 0.412-4.811 0.412-4.811s0.016-3.262-0.412-4.827c-0.231-0.857-0.906-1.532-1.763-1.763zM19.212 16l-5.206 2.998v-5.997l5.206 2.998z"></path>
</symbol>
<symbol id="icon-twitter" viewBox="0 0 32 32">
<path fill="#55acee" d="M16 32c8.836 0 16-7.163 16-16s-7.163-16-16-16c-8.836 0-16 7.163-16 16s7.163 16 16 16z"></path>
<path fill="#f1f2f2" d="M25.801 11.498c-0.698 0.309-1.439 0.512-2.197 0.602 0.799-0.478 1.397-1.23 1.682-2.115-0.751 0.446-1.572 0.759-2.429 0.928-0.358-0.382-0.79-0.686-1.271-0.894s-0.998-0.314-1.522-0.314c-2.112 0-3.824 1.713-3.824 3.824 0 0.3 0.034 0.592 0.1 0.872-3.178-0.159-5.997-1.682-7.883-3.996-0.34 0.584-0.519 1.247-0.518 1.923 0 1.327 0.676 2.498 1.701 3.183-0.607-0.019-1.201-0.183-1.732-0.479l-0 0.048c0 1.853 1.319 3.399 3.068 3.75-0.328 0.090-0.667 0.135-1.007 0.134-0.247 0-0.486-0.024-0.72-0.068 0.487 1.519 1.899 2.625 3.573 2.656-1.355 1.063-3.028 1.64-4.75 1.637-0.308 0-0.613-0.018-0.912-0.054 1.748 1.124 3.783 1.721 5.862 1.718 7.034 0 10.881-5.827 10.881-10.882 0-0.166-0.004-0.331-0.011-0.495 0.749-0.541 1.395-1.211 1.909-1.979z"></path>
</symbol>
</defs>
</svg>
