<svg width="72" height="80" viewBox="0 0 72 80" fill="none" xmlns="http://www.w3.org/2000/svg">
<g clip-path="url(#clip0_1_6176)">
<ellipse cx="36" cy="19.5" rx="4" ry="4.5" fill="#FAD101"/>
<path d="M40.3224 0.757568H6.71655C5.35715 0.757568 4.05344 1.29121 3.0922 2.24111C2.13096 3.191 1.59094 4.47933 1.59094 5.82268V46.1807C1.59044 46.8462 1.72265 47.5052 1.98001 48.1202C2.23737 48.7352 2.61484 49.294 3.09084 49.7647C3.56685 50.2355 4.13206 50.6089 4.75418 50.8637C5.3763 51.1185 6.04312 51.2496 6.71655 51.2496H65.2834C65.9568 51.2496 66.6237 51.1185 67.2458 50.8637C67.8679 50.6089 68.4331 50.2355 68.9091 49.7647C69.3851 49.294 69.7626 48.7352 70.02 48.1202C70.2773 47.5052 70.4095 46.8462 70.409 46.1807V5.82268C70.409 5.15752 70.2764 4.49888 70.0189 3.88435C69.7613 3.26982 69.3837 2.71145 68.9078 2.24111C68.4318 1.77077 67.8668 1.39767 67.2449 1.14313C66.623 0.888581 65.9565 0.757568 65.2834 0.757568H40.3224Z" stroke="#323232" stroke-linecap="round" stroke-linejoin="round"/>
<path d="M18.4475 51.2495L15.3192 59.0612H36.0018H56.6806L53.5523 51.2495" stroke="#323232" stroke-linecap="round" stroke-linejoin="round"/>
<path d="M64.9345 64.9863L70.9227 75.6659C71.1293 76.0324 71.2353 76.4459 71.2302 76.8655C71.2251 77.285 71.109 77.6959 70.8936 78.0574C70.6781 78.4189 70.3707 78.7184 70.0019 78.9262C69.6331 79.1341 69.2157 79.243 68.7912 79.2421H3.20871C2.78416 79.243 2.36677 79.1341 1.99797 78.9262C1.62917 78.7184 1.32178 78.4189 1.10632 78.0574C0.89086 77.6959 0.774816 77.285 0.769708 76.8655C0.764599 76.4459 0.870603 76.0324 1.0772 75.6659L7.06538 64.9863H64.9345Z" stroke="#323232" stroke-linecap="round" stroke-linejoin="round"/>
<path d="M36.0019 26.5908C39.1503 26.5908 41.7026 23.5649 41.7026 19.8323C41.7026 16.0996 39.1503 13.0737 36.0019 13.0737C32.8535 13.0737 30.3013 16.0996 30.3013 19.8323C30.3013 23.5649 32.8535 26.5908 36.0019 26.5908Z" stroke="#323232" stroke-linecap="round" stroke-linejoin="round"/>
<path d="M25.8005 34.4745V32.6181C25.7995 31.5022 26.1009 30.4064 26.6732 29.4444C27.2455 28.4824 28.0681 27.6894 29.0553 27.1477C30.2825 26.4836 31.5747 25.9441 32.912 25.5376" stroke="#323232" stroke-linecap="round" stroke-linejoin="round"/>
<path d="M39.1034 25.5376C40.4331 25.9448 41.7175 26.4843 42.9371 27.1477C43.9243 27.6894 44.7468 28.4824 45.3192 29.4444C45.8915 30.4064 46.1928 31.5022 46.1918 32.6181V34.4745" stroke="#323232" stroke-linecap="round" stroke-linejoin="round"/>
<path d="M36.0019 43.4264C45.9171 43.4264 53.9549 35.4834 53.9549 25.6853C53.9549 15.8871 45.9171 7.94409 36.0019 7.94409C26.0867 7.94409 18.0488 15.8871 18.0488 25.6853C18.0488 35.4834 26.0867 43.4264 36.0019 43.4264Z" stroke="#323232" stroke-linecap="round" stroke-linejoin="round"/>
<path d="M36.0018 72.1161C26.7918 72.1522 17.605 71.2008 8.60263 69.2786L4.92615 75.8325H67.089L63.4125 69.2786C54.4064 71.2017 45.2157 72.1531 36.0018 72.1161V72.1161Z" fill="#FAD101"/>
</g>
<defs>
<clipPath id="clip0_1_6176">
<rect width="72" height="80" fill="white"/>
</clipPath>
</defs>
</svg>
