<svg width="209" height="50" viewBox="0 0 209 50" fill="none" xmlns="http://www.w3.org/2000/svg">
<path d="M62.8262 11.7209C62.1785 11.997 61.5911 12.3987 61.0975 12.9033C60.6808 13.3361 60.3631 13.8555 60.1669 14.4251C59.9934 14.9089 59.8866 15.4144 59.8493 15.9274H57.0244C57.0188 14.9812 57.2449 14.0482 57.6828 13.2111C58.1206 12.374 58.7567 11.6586 59.5345 11.1283C60.3543 10.5746 61.2692 10.1793 62.2324 9.9626C63.3683 9.70184 64.5304 9.57579 65.6953 9.58702C67.1049 9.55208 68.5109 9.74559 69.8596 10.1601C70.8801 10.4844 71.8329 10.9946 72.6707 11.6653C73.3618 12.224 73.9045 12.9466 74.2503 13.7685C74.5668 14.5232 74.732 15.3335 74.7363 16.1528C74.7357 16.9121 74.603 17.6654 74.3441 18.3785C74.0943 19.0889 73.7202 19.7484 73.2396 20.3259C72.7702 20.8867 72.1935 21.3465 71.544 21.678C70.8795 22.0177 70.1436 22.1914 69.3984 22.1844V22.3346H69.6745C71.3657 22.3445 72.9912 22.9951 74.2282 24.1569C74.8618 24.7587 75.3803 25.4725 75.758 26.263C76.1603 27.113 76.3626 28.045 76.349 28.9866C76.3384 29.928 76.151 30.8587 75.7967 31.7298C75.4009 32.6987 74.7796 33.5575 73.9852 34.2337C72.9905 35.0684 71.8404 35.6945 70.6024 36.0754C69.1977 36.5503 67.4608 36.7886 65.3915 36.7904C62.2269 36.7904 59.8917 36.1951 58.3858 35.0043C56.8798 33.8136 56.0892 32.0414 56.0137 29.6877H59.5594C59.5988 30.2137 59.68 30.7356 59.8024 31.2485C59.9503 31.8953 60.2326 32.5031 60.6308 33.0318C61.1172 33.6624 61.742 34.1709 62.4561 34.5175C63.2514 34.9292 64.321 35.136 65.6649 35.1379C66.8291 35.1775 67.9876 34.9591 69.0587 34.498C69.8761 34.1307 70.6023 33.5853 71.1851 32.9011C71.6909 32.2962 72.067 31.5924 72.2896 30.834C72.4872 30.1824 72.594 29.5064 72.6072 28.8253C72.6206 28.0022 72.4308 27.1886 72.0549 26.4577C71.6796 25.7526 71.1509 25.142 70.5085 24.6716C69.7925 24.1568 68.9883 23.7795 68.1364 23.5588C67.1383 23.2985 66.1104 23.1722 65.0795 23.1832H62.4672V21.5278H65.0795C66.521 21.5278 67.6578 21.321 68.4899 20.9074C69.2269 20.5716 69.8729 20.0621 70.3732 19.4218C70.7703 18.9028 71.045 18.2996 71.1768 17.6579C71.2751 17.1751 71.3315 16.6845 71.3452 16.1917C71.3629 15.5288 71.2409 14.8697 70.9872 14.2577C70.7335 13.6458 70.3538 13.095 69.8734 12.6418C68.8958 11.7014 67.4645 11.2312 65.5793 11.2312C64.6377 11.1987 63.6998 11.3655 62.8262 11.7209Z" fill="#3E9AF6"/>
<path d="M97.3387 10.0294L95.3228 12.8115H90.7361C89.4592 12.8042 88.183 12.873 86.9142 13.0174C85.723 13.1682 84.5948 13.6423 83.6502 14.3889C82.7555 15.09 82.0347 16.1231 81.488 17.4882C80.9309 18.8921 80.6496 20.3915 80.6595 21.9034V22.0898H80.8087C81.1021 21.4313 81.4779 20.8132 81.927 20.2508C82.4151 19.6341 82.9933 19.0957 83.6419 18.6539C84.3641 18.1641 85.1567 17.7888 85.9919 17.5411C86.9851 17.2524 88.0152 17.1137 89.0488 17.1293C90.4987 17.0858 91.9398 17.371 93.2655 17.9639C94.3698 18.4766 95.3491 19.2268 96.1347 20.1618C96.887 21.073 97.4503 22.1268 97.7915 23.2611C98.1542 24.4091 98.3405 25.6063 98.3438 26.811C98.3429 28.0201 98.167 29.2225 97.8219 30.3805C97.4829 31.541 96.9261 32.6252 96.1816 33.5743C95.4024 34.5532 94.4142 35.3425 93.2904 35.8835C91.9543 36.5069 90.493 36.8097 89.0212 36.7682C86.8838 36.7682 85.1496 36.3972 83.8186 35.6553C82.5906 35.0101 81.5353 34.0758 80.7424 32.9317C80.0367 31.8945 79.5421 30.7267 79.2871 29.4958C79.0548 28.427 78.9299 27.3374 78.9143 26.2435V25.2475C78.9143 24.4713 78.9143 23.6367 78.953 22.7436C78.9764 21.8377 79.0511 20.9339 79.1766 20.0366C79.3028 19.1022 79.5022 18.1794 79.7731 17.2768C80.0443 16.3533 80.4323 15.4687 80.9274 14.6449C81.5077 13.621 82.2884 12.7265 83.2222 12.0158C84.0526 11.4026 84.9783 10.9325 85.9615 10.6247C86.9426 10.3225 87.9576 10.1459 88.9825 10.0989C90.0291 10.0488 91.084 10.0238 92.1527 10.0238L97.3387 10.0294ZM83.1145 31.1595C83.4759 32.104 84.0365 32.9583 84.7575 33.6634C85.3641 34.246 86.0981 34.6768 86.9004 34.9209C87.5898 35.134 88.3056 35.2483 89.0267 35.2603C89.6237 35.2419 90.2147 35.1341 90.7802 34.9403C91.4987 34.6963 92.1498 34.2844 92.6801 33.7385C93.3564 33.023 93.8716 32.1689 94.1906 31.2346C94.603 30.157 94.8083 28.7539 94.8064 27.0253C94.8064 24.9479 94.5459 23.339 94.0249 22.1983C93.5039 21.0576 92.8946 20.223 92.1969 19.6944C91.5918 19.2069 90.8732 18.8833 90.1092 18.7541C89.5756 18.6805 89.0378 18.6424 88.4993 18.64C87.6726 18.6319 86.8534 18.7977 86.0941 19.1269C85.3364 19.4681 84.6729 19.9905 84.1611 20.6487C83.5684 21.4319 83.1375 22.3268 82.8936 23.2805C82.5747 24.5126 82.4242 25.7828 82.4462 27.0559C82.4536 28.7307 82.6763 30.0986 83.1145 31.1595Z" fill="#3E9AF6"/>
<path d="M104.124 27.7653C104.124 29.2936 104.347 30.5455 104.795 31.5211C105.17 32.4047 105.743 33.1891 106.468 33.8136C107.104 34.347 107.846 34.7377 108.644 34.9598C109.363 35.1631 110.106 35.2707 110.853 35.2798C111.424 35.2861 111.993 35.2159 112.546 35.0711C113.056 34.934 113.549 34.7389 114.015 34.4896C114.505 34.2227 114.967 33.9077 115.396 33.5493C115.854 33.1737 116.346 32.762 116.865 32.3113L118.058 33.5131C117.07 34.5587 115.875 35.3841 114.551 35.9363C113.153 36.5071 111.657 36.7908 110.149 36.771C108.683 36.81 107.225 36.5252 105.88 35.9363C104.732 35.416 103.713 34.6465 102.895 33.6828C102.112 32.7419 101.518 31.6574 101.144 30.489C100.759 29.3064 100.563 28.0696 100.564 26.8249C100.543 25.4485 100.77 24.0797 101.235 22.7853C101.655 21.6577 102.296 20.6265 103.118 19.7528C103.905 18.9211 104.859 18.2676 105.916 17.836C107.031 17.39 108.221 17.167 109.42 17.1794C110.578 17.1733 111.727 17.3768 112.814 17.7803C113.87 18.1725 114.831 18.7882 115.631 19.5859C116.478 20.4503 117.132 21.487 117.55 22.6267C118.051 24.0235 118.291 25.5015 118.259 26.9863V27.7653H104.124ZM114.979 26.2602C114.979 23.8305 114.49 21.921 113.513 20.5318C113.063 19.8627 112.451 19.3201 111.736 18.955C111.02 18.5899 110.224 18.4145 109.423 18.4452C108.585 18.4235 107.759 18.653 107.051 19.1046C106.372 19.5503 105.805 20.1483 105.394 20.8518C104.942 21.6293 104.617 22.4746 104.43 23.3557C104.218 24.3109 104.113 25.287 104.115 26.2657L114.979 26.2602Z" fill="#3E9AF6"/>
<path d="M121.615 17.5438H124.785V20.5875H124.934C125.854 18.2839 127.794 17.1321 130.752 17.1321C131.932 17.1193 133.101 17.3553 134.185 17.8248C135.219 18.2831 136.141 18.9629 136.888 19.8168C137.67 20.7256 138.271 21.7779 138.658 22.9161C139.099 24.2264 139.314 25.603 139.293 26.9863C139.31 28.3593 139.095 29.7252 138.658 31.0259C138.278 32.167 137.676 33.2205 136.888 34.1252C136.138 34.9708 135.216 35.6436 134.185 36.0977C132.542 36.7981 130.727 36.9748 128.982 36.604C128.405 36.4811 127.848 36.2789 127.325 36.0031C126.215 35.4239 125.362 34.4445 124.937 33.26H124.787V45.7349H121.615V17.5438ZM124.785 28.3273C124.77 29.2596 124.915 30.1876 125.213 31.0704C125.468 31.8159 125.853 32.5093 126.35 33.1181C126.79 33.6552 127.343 34.0873 127.968 34.3831C128.594 34.679 129.277 34.8313 129.968 34.8291C130.726 34.8333 131.476 34.6858 132.177 34.3951C132.896 34.0897 133.53 33.6122 134.024 33.004C134.604 32.2754 135.035 31.4387 135.292 30.5418C135.627 29.3571 135.784 28.1288 135.759 26.8973C135.784 25.675 135.626 24.4558 135.292 23.2805C135.034 22.4007 134.607 21.5803 134.035 20.8657C133.545 20.2539 132.909 19.7757 132.188 19.4746C131.486 19.1876 130.736 19.0402 129.979 19.0406C129.275 19.0378 128.579 19.1987 127.946 19.5108C127.317 19.8234 126.754 20.2573 126.29 20.7878C125.802 21.3492 125.427 22 125.185 22.7046C124.921 23.4587 124.788 24.2531 124.793 25.0527L124.785 28.3273Z" fill="#3E9AF6"/>
<path d="M145.073 27.7653C145.073 29.2936 145.296 30.5455 145.741 31.5211C146.119 32.4036 146.691 33.1876 147.415 33.8136C148.052 34.3459 148.793 34.7365 149.591 34.9598C150.31 35.1631 151.053 35.2707 151.8 35.2798C152.371 35.2859 152.94 35.2157 153.493 35.0711C154.004 34.9365 154.499 34.7443 154.967 34.498C155.456 34.2297 155.919 33.9148 156.348 33.5576C156.806 33.1867 157.296 32.774 157.817 32.3196L159.007 33.5215C158.02 34.5681 156.825 35.3937 155.5 35.9447C154.104 36.5156 152.608 36.7994 151.101 36.7793C149.634 36.8187 148.176 36.5338 146.829 35.9447C145.683 35.4234 144.665 34.654 143.847 33.6912C143.064 32.7503 142.468 31.6658 142.093 30.4973C141.71 29.3143 141.516 28.0777 141.516 26.8333C141.501 25.4527 141.736 24.0809 142.209 22.7853C142.62 21.6594 143.251 20.6282 144.065 19.7528C144.852 18.9211 145.806 18.2676 146.862 17.836C147.978 17.3897 149.169 17.1667 150.37 17.1794C151.527 17.1733 152.677 17.3768 153.763 17.7803C154.815 18.1696 155.772 18.7815 156.569 19.5748C157.422 20.4372 158.081 21.4742 158.502 22.6156C159.002 24.0163 159.241 25.4981 159.206 26.9863V27.7653H145.073ZM155.926 26.2602C155.926 23.8305 155.438 21.921 154.462 20.5318C154.012 19.8625 153.4 19.3197 152.684 18.9547C151.968 18.5896 151.171 18.4143 150.37 18.4452C149.535 18.4261 148.714 18.6555 148.008 19.1046C147.328 19.5542 146.761 20.1572 146.352 20.8657C145.899 21.6426 145.573 22.4881 145.388 23.3696C145.176 24.3248 145.071 25.3009 145.073 26.2796L155.926 26.2602Z" fill="#3E9AF6"/>
<path d="M173.751 27.2395V17.5438H176.921V27.2395L185.984 17.5438H188.259L180.911 25.509L185.606 32.047C185.845 32.3905 186.108 32.7168 186.393 33.0235C186.685 33.3441 187.002 33.64 187.343 33.9082C187.658 34.157 187.996 34.3768 188.351 34.5648C188.64 34.7335 188.966 34.829 189.3 34.843H190.344V36.3453C190.02 36.4455 189.648 36.5456 189.226 36.6458C188.798 36.7465 188.359 36.797 187.92 36.796C186.962 36.8094 186.034 36.4678 185.31 35.8362C184.566 35.2007 183.902 34.4756 183.333 33.6773L178.937 27.5427L176.921 29.7211V36.3342H173.751V29.7183L171.738 27.5427L167.339 33.6634C166.771 34.4616 166.108 35.1867 165.364 35.8223C164.64 36.4541 163.71 36.7957 162.752 36.7821C162.313 36.783 161.876 36.7326 161.449 36.6319C161.023 36.5317 160.65 36.4316 160.327 36.3314V34.8291H161.374C161.702 34.8163 162.022 34.7206 162.305 34.5509C162.652 34.3599 162.982 34.1403 163.293 33.8943C163.637 33.6235 163.961 33.3278 164.262 33.0096C164.556 32.7065 164.825 32.3799 165.066 32.033L169.76 25.4951L162.415 17.5299H164.69L173.751 27.2395Z" fill="#3E9AF6"/>
<path d="M205.264 17.5438H208.995V36.3314H205.825V19.8752L196.314 36.3314H192.584V17.5438H195.754V34.1141L205.264 17.5438Z" fill="#3E9AF6"/>
<path d="M18.7121 17.8194C16.1689 16.7065 13.4212 16.3282 10.9249 16.8095C8.42852 17.2908 6.18899 18.6401 4.89387 20.5069C3.59875 22.3737 3.17901 24.8692 3.93841 26.7917C4.65638 28.7392 6.48722 30.3472 8.56659 30.9871C10.6874 31.6687 13.1395 31.5157 15.4315 30.7395C17.7733 30.0022 19.9962 28.5416 22.3655 27.1227C24.7349 25.7039 27.2312 24.2043 30.0644 23.3892C32.8618 22.6352 36.0457 22.6324 38.4703 24.1348C35.742 23.4949 33.0579 24.0986 30.7382 25.2309C28.4186 26.3632 26.3199 28.013 24.1108 29.7018C21.9016 31.3905 19.5654 33.1071 16.7156 34.2894C13.8658 35.4718 10.53 35.7834 7.37089 34.7902C4.21179 33.797 1.45035 31.3488 0.392713 27.988C-0.07267 26.3697 -0.125341 24.6594 0.239574 23.0152C0.604489 21.371 1.3752 19.8461 2.48037 18.5817C4.63705 16.0778 7.77406 14.9149 10.7647 14.8704C13.6796 14.859 16.5009 15.9059 18.7121 17.8194Z" fill="#3E9AF6"/>
<path d="M27.6233 30.0801C32.0831 33.8137 38.6525 33.9751 42.4081 30.7311C43.3061 29.9557 44.0156 28.9829 44.4819 27.8878C44.9359 26.8312 45.1164 25.6759 45.0066 24.5298C44.8271 22.3709 43.2835 20.4123 41.2345 19.3774C39.1855 18.3424 36.6229 18.2228 34.2066 18.846C31.7517 19.4274 29.3906 20.8658 26.9385 22.3375C24.4863 23.8093 21.9182 25.4507 18.9883 26.366C16.0915 27.2368 12.7529 27.3175 10.2124 25.7679C13.0622 26.4523 15.8761 25.7679 18.2896 24.541C20.7335 23.3196 22.8764 21.5168 25.2015 19.753C27.5267 17.9891 30.0727 16.2141 33.1821 15.2014C36.2777 14.236 39.8538 14.2277 43.0184 15.8079C44.5876 16.6094 45.9457 17.7746 46.981 19.2077C48.0443 20.6879 48.6557 22.4486 48.7401 24.2739C48.8018 26.0212 48.4238 27.7558 47.6411 29.3163C46.8584 30.8768 45.6966 32.2124 44.2638 33.1989C42.9223 34.1083 41.4105 34.7321 39.8212 35.0321C38.2319 35.332 36.5985 35.3018 35.0212 34.9432C31.9974 34.2867 29.2305 32.5506 27.6233 30.0801Z" fill="#FAD101"/>
<path d="M27.6233 30.0801C29.1393 31.0706 30.1086 32.7565 30.8845 34.384C31.2518 35.2187 31.5583 36.07 31.8455 36.913C32.156 37.815 32.3707 38.7475 32.4862 39.6951C32.7752 41.7571 32.4282 43.8589 31.4921 45.7156C30.9766 46.7048 30.2718 47.5813 29.4182 48.2946C28.5202 49.0229 27.4705 49.5374 26.3475 49.7997C25.2461 50.0516 24.1052 50.0734 22.9951 49.8637C21.8924 49.6426 20.8476 49.1926 19.9271 48.5422C18.1521 47.2816 16.9331 45.3751 16.5278 43.2256C16.1247 41.1841 16.5343 39.0647 17.6683 37.3247C18.7728 35.6861 20.4628 34.5426 22.2246 34.2644C19.3693 36.4066 18.4746 39.8676 19.5267 42.4021C19.9854 43.6425 20.853 44.6865 21.9844 45.3594C23.0254 45.988 24.2684 46.1836 25.45 45.9047C27.6951 45.4568 29.316 42.8444 29.3878 39.8258C29.4219 39.0342 29.3988 38.241 29.3188 37.4527C29.2525 36.6014 29.1531 35.7834 29.0427 34.9488C28.8024 33.2768 28.4628 31.6492 27.6233 30.0801Z" fill="#FAD101"/>
<path d="M18.7121 17.8194C17.359 16.7065 16.4256 15.0762 15.8181 13.368C15.2062 11.5821 14.9968 9.68139 15.2051 7.80381C15.4873 5.72393 16.4746 3.80632 17.9997 2.37592C19.583 0.879372 21.6638 0.0321081 23.8346 0C24.9641 0.000778366 26.0798 0.24952 27.1041 0.728912C28.162 1.24412 29.0688 2.02736 29.7358 3.00189C30.8931 4.82288 31.29 7.03051 30.8404 9.14478C30.4482 11.2008 29.4265 12.7615 28.3716 14.186C27.2855 15.5816 25.9795 16.7884 24.5056 17.7582C25.3347 16.2903 26.0627 14.7668 26.6844 13.1983C27.2836 11.7015 27.742 10.113 27.742 8.78032C27.7586 7.38927 27.3692 6.05664 26.6761 5.22479C25.983 4.39294 25.0027 3.99232 23.8153 3.98954C22.584 4.01598 21.3959 4.45118 20.4352 5.22758C19.3981 6.05592 18.6291 7.17643 18.2261 8.44647C17.7944 9.91564 17.617 11.4487 17.7014 12.9785C17.7567 14.639 18.0987 16.2771 18.7121 17.8194Z" fill="#3E9AF6"/>
<path d="M36.2748 11.5402C37.17 11.5402 37.8957 10.809 37.8957 9.90708C37.8957 9.00514 37.17 8.27398 36.2748 8.27398C35.3795 8.27398 34.6538 9.00514 34.6538 9.90708C34.6538 10.809 35.3795 11.5402 36.2748 11.5402Z" fill="#FAD101"/>
<path d="M12.2999 40.6827C13.1952 40.6827 13.9209 39.9516 13.9209 39.0496C13.9209 38.1477 13.1952 37.4165 12.2999 37.4165C11.4047 37.4165 10.679 38.1477 10.679 39.0496C10.679 39.9516 11.4047 40.6827 12.2999 40.6827Z" fill="#3E9AF6"/>
</svg>
