<svg width="312" height="312" viewBox="0 0 312 312" fill="none" xmlns="http://www.w3.org/2000/svg">
<g clip-path="url(#clip0_4198_13656)">
<rect width="312" height="312" fill="#3E9AF6"/>
<path d="M156 226C191.544 226 220.333 197.211 220.333 161.667C220.333 126.123 191.544 97.3334 156 97.3334C120.456 97.3334 91.6668 126.123 91.6668 161.667C91.6668 197.211 120.456 226 156 226ZM156 258.167C113.058 258.167 27.3335 279.718 27.3335 322.5V338.583C27.3335 347.429 34.571 354.667 43.4168 354.667H268.583C277.429 354.667 284.667 347.429 284.667 338.583V322.5C284.667 279.718 198.943 258.167 156 258.167Z" fill="white"/>
</g>
<defs>
<clipPath id="clip0_4198_13656">
<rect width="312" height="312" fill="white"/>
</clipPath>
</defs>
</svg>
