<svg width="680" height="713" viewBox="0 0 680 713" fill="none" xmlns="http://www.w3.org/2000/svg">
<path d="M400.784 134.467C400.784 134.467 409.894 131.697 410.854 135.776C411.814 139.856 385.374 193.693 301.014 215.6C216.654 237.507 168.154 249.997 168.154 249.997L178.324 212.125C189.254 188.455 208.444 143.683 342.914 77.2056C439.314 29.5126 508.004 -6.39539 513.344 0.957608C518.684 8.31061 477.684 53.0816 433.114 74.5356C433.114 74.5356 455.984 64.3126 459.654 69.6006C463.334 74.8886 423.394 118.502 402.194 132.553L400.734 134.417L400.784 134.467Z" fill="url(#paint0_linear_2_2)"/>
<mask id="mask0_2_2" style="mask-type:luminance" maskUnits="userSpaceOnUse" x="168" y="0" width="346" height="250">
<path d="M400.784 134.467C400.784 134.467 409.894 131.697 410.854 135.776C411.814 139.856 385.374 193.693 301.014 215.6C216.654 237.507 168.154 249.997 168.154 249.997L178.324 212.125C189.254 188.455 208.444 143.683 342.914 77.2056C439.314 29.5126 508.004 -6.39539 513.344 0.957608C518.684 8.31061 477.684 53.0816 433.114 74.5356C433.114 74.5356 455.984 64.3126 459.654 69.6006C463.334 74.8886 423.394 118.502 402.194 132.553L400.734 134.417L400.784 134.467Z" fill="white"/>
</mask>
<g mask="url(#mask0_2_2)">
<path d="M365.724 139.805C365.724 139.805 374.844 137.035 375.804 141.115C376.754 145.194 350.314 199.031 265.954 220.938C181.594 242.846 122.824 253.673 122.824 253.673L140.754 208.851C140.754 208.851 199.524 144.69 307.664 77.1046C398.864 20.0946 473.004 -1.05736 478.344 6.24564C483.684 13.5476 442.684 58.3696 398.114 79.8236C398.114 79.8236 420.974 69.6006 424.654 74.8886C428.334 80.1766 388.394 123.79 367.194 137.841L365.724 139.704V139.805Z" fill="url(#paint1_linear_2_2)"/>
<path style="mix-blend-mode:screen" d="M116.524 129.911C74.8044 82.1447 110.674 -17.4304 196.644 -92.4954C282.604 -167.561 386.104 -189.691 427.814 -141.925C469.534 -94.1584 433.664 5.41562 347.704 80.4816C261.744 155.547 158.234 177.678 116.524 129.911Z" fill="url(#paint2_radial_2_2)"/>
</g>
<mask id="mask1_2_2" style="mask-type:luminance" maskUnits="userSpaceOnUse" x="26" y="133" width="416" height="484">
<path d="M27.4844 164.634C32.5244 142.424 62.6945 121.725 100.314 142.726C158.234 175.008 228.684 249.695 272.304 300.208C272.304 300.208 280.314 309.625 280.364 309.625C287.564 318.137 293.554 325.439 296.784 329.468C296.784 329.468 289.374 364.923 318.794 378.923C348.204 392.924 428.234 438.35 425.004 448.272C406.224 454.819 376.754 437.041 376.754 437.041C376.754 437.041 445.004 482.719 441.274 493.345C437.594 504.022 372.324 467.762 372.324 467.762C406.974 490.173 446.814 530.714 441.224 544.513C435.634 558.313 368.044 516.613 368.044 516.613C368.044 516.613 431.954 576.193 424.754 588.073C417.554 600.013 353.644 550.405 353.644 550.405C353.644 550.405 385.224 603.993 372.984 615.573C360.744 627.153 311.384 561.833 311.384 561.833C311.384 561.833 324.684 586.863 320.904 590.093C317.124 593.313 288.474 576.643 272.454 536.455C272.454 536.455 268.174 540.132 263.744 532.829C243.394 498.936 243.594 450.286 231.454 430.846C169.514 417.098 101.014 370.362 80.4145 335.864C60.0745 301.819 69.8944 258.156 68.8844 246.774C67.8744 235.392 61.2845 226.025 46.5745 213.031C31.8645 200.038 23.8045 180.649 27.4345 164.583L27.4844 164.634Z" fill="white"/>
</mask>
<g mask="url(#mask1_2_2)">
<path d="M27.4844 164.634C32.5244 142.424 62.6945 121.726 100.314 142.726C158.434 175.159 229.094 250.148 272.304 300.208C279.704 308.82 289.684 320.605 296.784 329.468C296.784 329.468 289.374 364.923 318.794 378.923C348.204 392.924 428.234 438.35 425.004 448.272C406.224 454.819 376.754 437.041 376.754 437.041C376.754 437.041 445.004 482.719 441.274 493.346C437.594 504.022 372.324 467.762 372.324 467.762C406.974 490.173 446.814 530.714 441.224 544.513C435.634 558.313 368.044 516.613 368.044 516.613C368.044 516.613 431.954 576.193 424.754 588.073C417.554 600.013 353.644 550.406 353.644 550.406C353.644 550.406 385.224 603.993 372.984 615.573C360.744 627.153 311.384 561.833 311.384 561.833C311.384 561.833 324.684 586.863 320.904 590.093C317.124 593.313 288.474 576.643 272.454 536.455C272.454 536.455 268.174 540.132 263.744 532.829C243.394 498.936 243.594 450.286 231.454 430.847C169.464 417.098 101.014 370.312 80.4145 335.864C60.0745 301.82 69.8944 258.156 68.8844 246.774C67.8744 235.392 61.2845 226.025 46.5745 213.032C31.8645 200.038 23.8045 180.649 27.4345 164.583L27.4844 164.634Z" fill="#D2E2F8"/>
<path style="mix-blend-mode:multiply" d="M177.574 201.398C240.724 259.163 296.784 329.468 296.784 329.468C296.784 329.468 289.374 364.923 318.794 378.923C348.204 392.924 428.234 438.35 425.004 448.272C406.224 454.819 376.754 437.041 376.754 437.041C376.754 437.041 445.004 482.719 441.274 493.346C437.594 504.022 372.324 467.762 372.324 467.762C406.974 490.173 446.814 530.714 441.224 544.513C435.634 558.313 368.044 516.613 368.044 516.613C368.044 516.613 431.954 576.193 424.754 588.073C417.554 600.013 353.644 550.406 353.644 550.406C353.644 550.406 385.224 603.993 372.984 615.573C360.744 627.153 311.384 561.833 311.384 561.833C311.384 561.833 324.684 586.863 320.904 590.093C317.124 593.313 288.474 576.643 272.454 536.455C272.454 536.455 268.174 540.132 263.744 532.829C243.394 498.936 243.594 450.286 231.454 430.846C242.384 433.264 253.164 434.674 263.334 434.775C277.894 434.926 288.524 431.803 295.824 426.666C300.204 423.544 302.774 418.86 303.324 413.975C303.884 408.989 302.424 403.802 298.844 399.723C282.674 381.391 258.554 379.78 222.794 357.469C205.574 346.742 185.884 323.525 176.614 305.647C175.304 310.582 173.644 315.468 171.724 320.302C168.704 327.857 165.234 334.252 161.354 338.785C153.694 347.749 148.404 334.504 148.404 334.504C146.444 348.253 141.204 371.369 127.604 376.002C125.094 376.859 122.174 376.808 118.994 375.952C108.014 367.391 96.3845 356.966 87.5745 346.037L177.524 201.348L177.574 201.398Z" fill="url(#paint3_linear_2_2)"/>
<path d="M27.4844 164.634C32.5244 142.424 62.6945 121.726 100.314 142.726C135.764 162.519 175.354 198.175 209.604 233.227C199.074 237.256 190.214 244.155 183.664 252.817C177.674 260.724 173.644 270.192 172.084 280.416C170.624 290.186 168.004 299.906 164.124 309.424C161.104 316.978 157.624 323.374 153.744 327.907C146.094 336.871 141.914 313.302 141.914 313.302C141.914 313.302 139.644 358.426 120.054 365.175C113.804 367.34 105.044 363.916 96.1845 355.807C90.2945 349.714 85.3545 343.721 81.6745 337.979C69.0845 317.532 66.5145 294.92 67.5745 271.149C68.0745 260.17 69.2344 251.458 68.8844 246.875C67.8744 235.543 61.2845 226.126 46.5745 213.132C31.8645 200.139 23.8045 180.75 27.4345 164.684L27.4844 164.634Z" fill="url(#paint4_linear_2_2)"/>
<g style="mix-blend-mode:multiply">
<path d="M206.504 428.986C104.344 378.101 44.4644 290.835 72.7344 234.072C101.014 177.309 206.754 172.543 308.904 223.428C411.054 274.313 470.944 361.579 442.664 418.342C414.384 475.106 308.654 479.871 206.504 428.986Z" fill="url(#paint5_radial_2_2)"/>
</g>
<g style="mix-blend-mode:multiply">
<path d="M266.334 435.176C164.174 384.291 104.294 297.025 132.564 240.262C160.844 183.499 266.584 178.733 368.734 229.618C470.884 280.503 530.774 367.769 502.494 424.533C474.214 481.296 368.484 486.061 266.334 435.176Z" fill="url(#paint6_radial_2_2)"/>
</g>
<g style="mix-blend-mode:multiply">
<path d="M266.364 486.899C316.474 480.906 354.694 456.279 351.774 431.954C348.854 407.579 305.894 392.723 255.784 398.716C205.674 404.709 167.444 429.336 170.364 453.66C173.284 477.985 216.244 492.892 266.364 486.899Z" fill="url(#paint7_radial_2_2)"/>
</g>
<g style="mix-blend-mode:multiply">
<path d="M94.1044 217.045C89.0844 103.034 136.384 8.3496 199.744 5.5606C263.094 2.7726 318.524 92.9366 323.544 206.948C328.564 320.958 281.264 415.643 217.914 418.431C154.554 421.219 99.1244 331.056 94.1044 217.045Z" fill="url(#paint8_radial_2_2)"/>
</g>
<g style="mix-blend-mode:multiply">
<path d="M155.924 252.948C79.6944 168.019 44.3944 75.3896 77.0744 46.0536C109.764 16.7176 198.054 61.7846 274.284 146.713C350.514 231.642 385.824 324.271 353.134 353.607C320.454 382.943 232.154 337.876 155.924 252.948Z" fill="url(#paint9_radial_2_2)"/>
</g>
<path style="mix-blend-mode:screen" d="M5.59433 452.641C-90.1757 390.57 -139.846 297.111 -105.356 243.896C-70.8656 190.681 34.7344 197.86 130.504 259.931C226.274 322.002 275.944 415.461 241.454 468.676C206.954 521.891 101.354 514.712 5.59433 452.641Z" fill="url(#paint10_radial_2_2)"/>
<path style="mix-blend-mode:screen" d="M152.214 800.323C56.4444 738.253 26.0644 615.033 84.3544 525.101C142.654 435.171 267.544 412.588 363.304 474.659C459.074 536.731 489.454 659.953 431.164 749.883C372.874 839.813 247.984 862.393 152.214 800.323Z" fill="url(#paint11_radial_2_2)"/>
</g>
<path d="M219.324 177.98C277.644 132.654 672.644 9.46861 679.544 22.1596C686.444 34.8506 613.514 82.7956 574.894 96.2416C574.894 96.2416 633.014 69.4496 638.044 77.4566C643.084 85.4646 613.464 118.2 567.334 135.927C576.254 132.251 593.124 132.05 595.384 139.251C597.654 146.453 577.554 178.382 506.294 197.47C517.874 198.578 546.834 202.002 549.404 213.334C551.924 224.665 515.864 248.889 472.044 248.033C485.344 248.335 498.184 257.3 496.474 264.552C494.764 271.804 462.734 292.654 396.244 283.286C396.244 283.286 420.974 292.502 417.254 304.69C411.154 324.633 324.784 311.791 324.784 311.791C324.784 311.791 335.414 318.842 335.154 324.835C334.954 329.065 327.954 338.281 282.674 340.8C247.274 342.764 206.884 322.266 190.364 289.128C168.854 246.018 182.854 206.333 219.374 177.98H219.324Z" fill="url(#paint12_linear_2_2)"/>
<mask id="mask2_2_2" style="mask-type:luminance" maskUnits="userSpaceOnUse" x="180" y="21" width="501" height="320">
<path d="M219.324 177.98C277.644 132.654 672.644 9.46861 679.544 22.1596C686.444 34.8506 613.514 82.7956 574.894 96.2416C574.894 96.2416 633.014 69.4496 638.044 77.4566C643.084 85.4646 613.464 118.2 567.334 135.927C576.254 132.251 593.124 132.05 595.384 139.251C597.654 146.453 577.554 178.382 506.294 197.47C517.874 198.578 546.834 202.002 549.404 213.334C551.924 224.665 515.864 248.889 472.044 248.033C485.344 248.335 498.184 257.3 496.474 264.552C494.764 271.804 462.734 292.654 396.244 283.286C396.244 283.286 420.974 292.502 417.254 304.69C411.154 324.633 324.784 311.791 324.784 311.791C324.784 311.791 335.414 318.842 335.154 324.835C334.954 329.065 327.954 338.281 282.674 340.8C247.274 342.764 206.884 322.266 190.364 289.128C168.854 246.018 182.854 206.333 219.374 177.98H219.324Z" fill="white"/>
</mask>
<g mask="url(#mask2_2_2)">
<path d="M238.054 144.741C269.934 111.2 434.024 2.06559 483.634 35.6066C527.194 8.71259 673.804 -56.2534 680.654 -43.5624C687.504 -30.8714 614.624 17.0726 575.994 30.5196C575.994 30.5196 634.114 3.72758 639.154 11.7346C644.194 19.7926 614.574 52.4776 568.444 70.2046C577.354 66.5286 594.224 66.3266 596.494 73.5286C598.764 80.7306 578.664 112.66 507.404 131.747C518.984 132.855 548.544 138.597 548.604 151.338C548.654 164.13 504.224 189.311 460.414 188.455C473.704 188.757 489.074 204.52 487.354 211.772C485.644 219.024 453.614 239.874 387.134 230.507C387.134 230.507 411.864 239.723 408.134 251.911C402.044 271.854 324.634 249.896 324.634 249.896C324.634 249.896 354.444 271.703 350.724 282.531C345.234 298.395 320.804 294.668 296.474 292.049C296.474 292.049 311.184 303.381 300.154 310.381C283.434 321.007 213.884 322.72 187.594 283.437C160.794 243.4 179.834 205.83 238.004 144.69L238.054 144.741Z" fill="url(#paint13_linear_2_2)"/>
</g>
<path d="M216.854 711.163L359.934 638.383L503.024 565.613C505.134 564.503 506.644 562.643 507.354 560.533C508.054 558.413 507.904 555.993 506.844 553.883L461.724 465.243L416.594 376.607C415.484 374.491 413.624 372.981 411.514 372.276C409.394 371.57 406.974 371.722 404.864 372.779L261.774 445.552L118.694 518.325C116.574 519.433 115.064 521.296 114.364 523.411C113.654 525.527 113.804 527.944 114.864 530.059L159.994 618.693L205.114 707.333C206.224 709.453 208.094 710.963 210.204 711.663C212.324 712.373 214.734 712.223 216.854 711.163Z" fill="white"/>
<path d="M313.804 547.736C308.214 550.607 301.914 551.866 295.674 551.513L120.404 540.887L114.914 530.059C113.814 527.944 113.704 525.527 114.414 523.411C115.114 521.296 116.634 519.433 118.744 518.325L261.824 445.552L404.914 372.779C407.024 371.671 409.444 371.571 411.564 372.276C413.674 372.981 415.534 374.492 416.644 376.607L422.134 387.434L327.554 535.347C324.174 540.635 319.444 544.966 313.804 547.787V547.736Z" fill="#F7F7F7"/>
<path d="M294.914 521.598L300.404 518.828L305.894 516.059C307.764 515.102 309.874 514.699 311.894 514.8C313.954 514.9 315.964 515.555 317.734 516.713L322.864 520.037L328.004 523.361C329.764 524.519 331.174 526.081 332.084 527.944C332.994 529.757 333.444 531.822 333.344 533.937L333.044 540.081L332.744 546.225C332.644 548.341 331.934 550.355 330.824 552.067C329.714 553.783 328.154 555.193 326.244 556.143L320.754 558.913L315.264 561.683C313.404 562.643 311.284 563.043 309.274 562.943C307.204 562.843 305.194 562.193 303.424 561.033L298.294 557.703L293.154 554.383C291.394 553.223 289.984 551.664 289.074 549.801C288.164 547.988 287.714 545.923 287.814 543.808L288.114 537.664L288.424 531.52C288.524 529.405 289.224 527.39 290.334 525.678C291.444 523.965 293.004 522.555 294.914 521.598Z" fill="#F7F7F7"/>
<path d="M296.274 541.038C300.764 541.29 305.144 540.333 309.014 538.369C312.894 536.405 316.274 533.433 318.684 529.606L416.594 376.506C415.484 374.391 413.624 372.88 411.514 372.175C409.394 371.47 406.974 371.621 404.864 372.678L261.774 445.451L118.694 518.224C116.574 519.332 115.064 521.196 114.364 523.311C113.654 525.426 113.804 527.843 114.864 529.959L296.274 540.988V541.038Z" fill="white"/>
<path d="M294.164 522.001L299.344 519.332L304.534 516.663C306.354 515.756 308.314 515.353 310.224 515.454C312.194 515.555 314.104 516.159 315.764 517.267L320.654 520.44L325.534 523.613C327.254 524.721 328.564 526.232 329.414 527.944C330.324 529.656 330.724 531.62 330.624 533.635L330.324 539.477L330.024 545.319C329.924 547.333 329.264 549.247 328.204 550.859C327.154 552.473 325.634 553.833 323.874 554.733L318.684 557.403L313.504 560.073C311.684 560.983 309.724 561.383 307.814 561.283C305.844 561.183 303.934 560.583 302.274 559.473L297.384 556.293L292.504 553.123C290.784 552.017 289.474 550.506 288.624 548.794C287.714 547.081 287.314 545.117 287.414 543.103L287.714 537.261L288.014 531.419C288.114 529.404 288.774 527.491 289.834 525.879C290.884 524.268 292.394 522.908 294.164 522.001Z" fill="#FFE356"/>
<path d="M322.764 552.473C324.124 551.765 325.284 550.758 326.094 549.499C326.894 548.24 327.404 546.779 327.504 545.218L328.104 533.534C328.204 532.023 327.854 530.513 327.204 529.153C326.544 527.793 325.484 526.635 324.224 525.829L314.454 519.483C313.194 518.677 311.684 518.174 310.174 518.073C308.664 517.972 307.154 518.325 305.794 518.98L295.374 524.268C294.014 524.973 292.854 525.98 292.044 527.289C291.244 528.548 290.734 530.009 290.634 531.57L290.034 543.254C289.934 544.765 290.284 546.276 290.984 547.636C291.694 548.995 292.704 550.154 293.964 550.959L303.734 557.303C304.994 558.113 306.504 558.613 308.014 558.713C309.524 558.813 311.034 558.463 312.394 557.813L322.814 552.523L322.764 552.473Z" fill="#FAD101"/>
<path d="M270.694 449.782C274.824 451.444 278.044 450.84 277.994 446.358C280.214 447.617 281.424 449.581 281.624 451.847C279.504 452.301 276.134 451.998 270.694 449.833V449.782Z" fill="#FF5C6B"/>
<path d="M253.464 421.127C253.464 421.127 255.784 438.552 262.734 444.595C265.354 446.912 268.224 448.725 270.744 449.732C276.184 451.948 279.554 452.25 281.674 451.747C281.774 452.804 281.624 453.963 281.214 455.121C280.004 458.697 277.744 460.661 274.264 459.956C274.264 459.956 274.114 464.941 270.694 466.301C267.264 467.661 263.334 465.294 263.334 465.294C263.334 465.294 262.684 467.611 261.174 468.467C259.664 469.323 256.334 470.481 253.364 468.265C250.394 466.049 245.714 459.502 244.054 452.754C241.634 442.984 243.994 420.875 244.254 414.982C246.924 419.112 250.294 421.378 253.464 421.076V421.127Z" fill="url(#paint14_linear_2_2)"/>
<path style="mix-blend-mode:multiply" d="M260.364 449.48C253.774 438.904 251.954 424.753 251.554 420.975C252.204 421.127 252.814 421.177 253.464 421.076C253.464 421.076 255.784 438.501 262.734 444.545C265.354 446.861 268.224 448.674 270.744 449.682C276.184 451.898 279.554 452.2 281.674 451.696C281.774 452.754 281.624 453.912 281.214 455.07C280.014 458.646 277.744 460.61 274.264 459.905C274.264 459.905 265.954 458.394 260.364 449.38V449.48Z" fill="url(#paint15_linear_2_2)"/>
<path style="mix-blend-mode:screen" d="M248.584 454.013C254.224 468.567 263.644 478.489 269.634 476.172C275.624 473.855 275.934 460.157 270.344 445.602C264.694 431.048 255.284 421.127 249.284 423.443C243.294 425.76 242.994 439.458 248.584 454.013Z" fill="url(#paint16_radial_2_2)"/>
<path style="mix-blend-mode:multiply" d="M273.364 459.15C290.734 468.165 307.154 471.035 310.024 465.546C312.894 460.056 301.064 448.272 283.684 439.257C266.314 430.242 249.894 427.371 247.024 432.861C244.154 438.35 255.984 450.135 273.364 459.15Z" fill="url(#paint17_radial_2_2)"/>
<path style="mix-blend-mode:multiply" d="M248.534 419.666C248.684 424.803 249.594 443.185 253.614 453.409C256.894 461.718 263.284 465.344 263.284 465.344C263.284 465.344 262.634 467.661 261.124 468.517C259.614 469.373 256.284 470.531 253.314 468.316C250.344 466.1 245.664 459.553 244.004 452.804C241.584 443.034 243.944 420.925 244.204 415.033C245.514 417.047 246.974 418.608 248.484 419.666H248.534Z" fill="url(#paint18_linear_2_2)"/>
<path style="mix-blend-mode:multiply" d="M252.964 470.33C264.044 486.496 277.194 496.72 282.274 493.245C287.364 489.719 282.524 473.805 271.444 457.639C260.364 441.473 247.224 431.249 242.134 434.724C237.054 438.199 241.884 454.164 252.964 470.33Z" fill="url(#paint19_radial_2_2)"/>
<path style="mix-blend-mode:multiply" d="M253.674 453.408C249.594 443.185 248.734 424.803 248.584 419.666C249.544 420.321 250.594 420.774 251.604 421.026C252.004 424.803 253.874 438.904 260.414 449.531C266.004 458.545 274.314 460.056 274.314 460.056C274.314 460.056 274.164 465.042 270.744 466.402C267.314 467.762 263.394 465.395 263.394 465.395C263.394 465.395 256.994 461.718 253.724 453.459L253.674 453.408Z" fill="url(#paint20_linear_2_2)"/>
<path style="mix-blend-mode:multiply" d="M262.934 467.459C274.014 483.626 287.164 493.849 292.244 490.374C297.334 486.849 292.504 470.934 281.424 454.768C270.344 438.602 257.194 428.379 252.104 431.854C247.024 435.379 251.854 451.293 262.934 467.459Z" fill="url(#paint21_radial_2_2)"/>
<path d="M290.134 435.782C294.564 435.883 297.384 434.17 295.724 429.94C298.244 430.343 300.104 431.753 301.064 433.767C299.244 434.976 295.974 435.883 290.134 435.782Z" fill="#FF5C6B"/>
<path d="M263.794 415.184C263.794 415.184 272.154 430.645 280.814 433.818C284.084 435.027 287.414 435.732 290.134 435.782C295.974 435.883 299.244 434.976 301.064 433.767C301.514 434.724 301.814 435.883 301.864 437.091C302.014 440.868 300.604 443.487 297.134 444.041C297.134 444.041 298.794 448.775 296.074 451.243C293.354 453.711 288.874 452.905 288.874 452.905C288.874 452.905 289.074 455.322 288.014 456.632C286.964 457.941 284.244 460.207 280.664 459.2C277.084 458.193 270.394 453.761 266.414 448.07C260.674 439.761 254.974 418.306 253.114 412.716C257.094 415.637 261.024 416.544 263.894 415.134L263.794 415.184Z" fill="url(#paint22_linear_2_2)"/>
<path style="mix-blend-mode:multiply" d="M280.364 439.207C270.444 431.652 263.644 419.112 261.974 415.738C262.634 415.637 263.234 415.436 263.794 415.184C263.794 415.184 272.154 430.645 280.814 433.818C284.084 435.027 287.414 435.732 290.134 435.782C295.974 435.883 299.244 434.976 301.064 433.767C301.514 434.724 301.814 435.883 301.864 437.091C302.014 440.868 300.604 443.487 297.134 444.041C297.134 444.041 288.824 445.602 280.414 439.156L280.364 439.207Z" fill="url(#paint23_linear_2_2)"/>
<path style="mix-blend-mode:multiply" d="M295.974 443.538C315.464 445.753 331.784 442.581 332.484 436.436C333.194 430.292 317.984 423.493 298.494 421.278C279.004 419.062 262.684 422.234 261.984 428.379C261.274 434.523 276.484 441.322 295.974 443.538Z" fill="url(#paint24_radial_2_2)"/>
<path style="mix-blend-mode:multiply" d="M258.704 415.536C260.724 420.27 268.074 437.142 275.524 445.25C281.574 451.847 288.824 452.955 288.824 452.955C288.824 452.955 289.024 455.373 287.964 456.682C286.904 457.991 284.194 460.258 280.614 459.251C277.034 458.243 270.344 453.811 266.364 448.121C260.614 439.811 254.924 418.357 253.064 412.766C255.024 414.177 256.944 415.134 258.754 415.536H258.704Z" fill="url(#paint25_linear_2_2)"/>
<path style="mix-blend-mode:multiply" d="M280.864 461.315C296.984 472.445 312.894 477.33 316.424 472.244C319.944 467.157 309.724 454.013 293.604 442.883C277.494 431.753 261.574 426.868 258.054 431.954C254.524 437.041 264.744 450.185 280.864 461.315Z" fill="url(#paint26_radial_2_2)"/>
<path style="mix-blend-mode:multiply" d="M275.524 445.25C268.074 437.142 260.724 420.321 258.704 415.536C259.864 415.788 260.974 415.889 261.974 415.738C263.694 419.112 270.444 431.652 280.364 439.206C288.774 445.602 297.084 444.092 297.084 444.092C297.084 444.092 298.744 448.826 296.024 451.293C293.304 453.761 288.824 452.955 288.824 452.955C288.824 452.955 281.574 451.797 275.524 445.25Z" fill="url(#paint27_linear_2_2)"/>
<path style="mix-blend-mode:multiply" d="M289.174 455.02C305.294 466.15 321.204 471.035 324.734 465.949C328.254 460.862 318.034 447.718 301.914 436.588C285.804 425.458 269.884 420.573 266.364 425.659C262.834 430.746 273.064 443.89 289.174 455.02Z" fill="url(#paint28_radial_2_2)"/>
<path d="M31.1144 172.138C29.5544 174.958 26.3744 175.613 23.9144 175.21L5.32446 172.238C14.3445 170.274 25.6745 170.778 31.0645 172.138H31.1144Z" fill="url(#paint29_linear_2_2)"/>
<path d="M30.3045 158.49C30.8645 158.49 31.3644 158.741 31.7644 159.044C32.2244 159.396 32.5745 159.9 32.6745 160.454C33.2745 164.432 32.7745 168.209 31.3145 171.735C31.1145 172.188 30.8144 172.49 30.4044 172.742C29.8544 173.044 29.1944 173.195 28.4944 173.044C25.6744 172.591 16.6044 171.684 11.0144 171.886C6.23442 172.037 3.00443 172.49 1.14443 172.792C0.794426 172.843 0.444392 172.742 0.234392 172.49C-0.0156083 172.238 -0.0656327 171.886 0.0843673 171.584C1.75437 168.713 5.67447 164.029 14.4445 160.756C20.2345 158.641 27.6344 158.288 30.2044 158.49H30.3045Z" fill="url(#paint30_linear_2_2)"/>
<path style="mix-blend-mode:multiply" d="M19.7844 160.907C8.29442 170.778 4.57444 183.822 11.4244 189.966C18.2644 196.16 33.1744 193.139 44.6144 183.268C56.0944 173.397 59.8244 160.353 52.9744 154.209C46.1244 148.014 31.2144 151.036 19.7844 160.907Z" fill="url(#paint31_radial_2_2)"/>
<path d="M31.4145 165.893C27.2845 167.555 22.9045 167.152 21.6945 165.037C20.4845 162.921 22.9044 159.9 27.0344 158.238C31.1644 156.576 34.2844 157.432 35.4944 159.547C36.7044 161.662 35.4944 164.18 31.3644 165.842L31.4145 165.893Z" fill="#FFD5E8"/>
<path d="M67.7744 159.094C68.7344 164.483 65.3544 169.569 60.2744 170.476C55.1844 171.382 50.3043 167.756 49.3443 162.367C48.3843 156.979 51.7643 151.892 56.8443 150.986C61.9343 150.079 66.8244 153.705 67.7744 159.094Z" fill="url(#paint32_linear_2_2)"/>
<path d="M65.9643 159.446C66.7143 163.777 64.0044 167.907 59.9244 168.612C55.7944 169.368 51.8644 166.447 51.1044 162.116C50.3544 157.784 53.0744 153.655 57.1544 152.95C61.2344 152.245 65.2043 155.115 65.9643 159.446Z" fill="white"/>
<path d="M57.5544 155.065C57.5544 155.065 57.1545 155.166 56.9445 155.216C57.3045 155.619 57.5544 156.122 57.6544 156.676C57.9544 158.439 56.7944 160.151 55.0344 160.504C54.3844 160.605 53.7244 160.504 53.1244 160.252C53.1244 160.705 53.1244 161.209 53.1744 161.713C53.7244 164.835 56.5945 166.95 59.5645 166.447C62.5345 165.893 64.5045 162.921 63.9445 159.799C63.3945 156.676 60.5244 154.561 57.5544 155.065Z" fill="#000A55"/>
<defs>
<linearGradient id="paint0_linear_2_2" x1="317.134" y1="60.0326" x2="393.324" y2="270.928" gradientUnits="userSpaceOnUse">
<stop stop-color="#F0F7FE"/>
<stop offset="0.47" stop-color="#D9E7F9"/>
<stop offset="1" stop-color="#BBD2F4"/>
</linearGradient>
<linearGradient id="paint1_linear_2_2" x1="483.414" y1="16.9746" x2="161.784" y2="245.443" gradientUnits="userSpaceOnUse">
<stop stop-color="white"/>
<stop offset="0.34" stop-color="#FCFDFE"/>
<stop offset="0.59" stop-color="#F2F7FD"/>
<stop offset="0.8" stop-color="#E3EEFB"/>
<stop offset="0.99" stop-color="#CDE1F9"/>
<stop offset="1" stop-color="#CCE0F9"/>
</linearGradient>
<radialGradient id="paint2_radial_2_2" cx="0" cy="0" r="1" gradientUnits="userSpaceOnUse" gradientTransform="translate(274.934 0.51462) rotate(-131.131) scale(115.06 206.197)">
<stop stop-color="#D5E5F9"/>
<stop offset="0.27" stop-color="#949FAD"/>
<stop offset="0.63" stop-color="#454A51"/>
<stop offset="0.88" stop-color="#131416"/>
<stop offset="1"/>
</radialGradient>
<linearGradient id="paint3_linear_2_2" x1="421.594" y1="382.454" x2="104.704" y2="439.989" gradientUnits="userSpaceOnUse">
<stop stop-color="#D5E5F9"/>
<stop offset="0.43" stop-color="#E8F1FB"/>
<stop offset="1" stop-color="white"/>
</linearGradient>
<linearGradient id="paint4_linear_2_2" x1="181.164" y1="301.469" x2="4.75447" y2="191.142" gradientUnits="userSpaceOnUse">
<stop stop-color="#DEECFE"/>
<stop offset="0.5" stop-color="#EFF5FE"/>
<stop offset="1" stop-color="white"/>
</linearGradient>
<radialGradient id="paint5_radial_2_2" cx="0" cy="0" r="1" gradientUnits="userSpaceOnUse" gradientTransform="translate(268.174 336.094) rotate(116.481) scale(115.059 206.199)">
<stop stop-color="#B6D8FC"/>
<stop offset="0.04" stop-color="#BCDBFC"/>
<stop offset="0.23" stop-color="#D9EBFD"/>
<stop offset="0.43" stop-color="#EEF6FE"/>
<stop offset="0.62" stop-color="#FAFCFE"/>
<stop offset="0.8" stop-color="white"/>
</radialGradient>
<radialGradient id="paint6_radial_2_2" cx="0" cy="0" r="1" gradientUnits="userSpaceOnUse" gradientTransform="translate(327.874 342.209) rotate(116.481) scale(115.059 206.199)">
<stop stop-color="#B6D8FC"/>
<stop offset="0.04" stop-color="#BCDBFC"/>
<stop offset="0.23" stop-color="#D9EBFD"/>
<stop offset="0.43" stop-color="#EEF6FE"/>
<stop offset="0.62" stop-color="#FAFCFE"/>
<stop offset="0.8" stop-color="white"/>
</radialGradient>
<radialGradient id="paint7_radial_2_2" cx="0" cy="0" r="1" gradientUnits="userSpaceOnUse" gradientTransform="translate(282.534 443.063) rotate(83.1697) scale(44.2746 91.2158)">
<stop stop-color="#B6D8FC"/>
<stop offset="0.04" stop-color="#BCDBFC"/>
<stop offset="0.23" stop-color="#D9EBFD"/>
<stop offset="0.43" stop-color="#EEF6FE"/>
<stop offset="0.62" stop-color="#FAFCFE"/>
<stop offset="0.8" stop-color="white"/>
</radialGradient>
<radialGradient id="paint8_radial_2_2" cx="0" cy="0" r="1" gradientUnits="userSpaceOnUse" gradientTransform="translate(190.904 190.763) rotate(-2.5199) scale(115.062 206.193)">
<stop stop-color="#B6D8FC"/>
<stop offset="0.04" stop-color="#BCDBFC"/>
<stop offset="0.23" stop-color="#D9EBFD"/>
<stop offset="0.43" stop-color="#EEF6FE"/>
<stop offset="0.62" stop-color="#FAFCFE"/>
<stop offset="0.8" stop-color="white"/>
</radialGradient>
<radialGradient id="paint9_radial_2_2" cx="0" cy="0" r="1" gradientUnits="userSpaceOnUse" gradientTransform="translate(184.534 204.657) rotate(-41.9089) scale(79.7447 206.196)">
<stop stop-color="#B6D8FC"/>
<stop offset="0.04" stop-color="#BCDBFC"/>
<stop offset="0.23" stop-color="#D9EBFD"/>
<stop offset="0.43" stop-color="#EEF6FE"/>
<stop offset="0.62" stop-color="#FAFCFE"/>
<stop offset="0.8" stop-color="white"/>
</radialGradient>
<radialGradient id="paint10_radial_2_2" cx="0" cy="0" r="1" gradientUnits="userSpaceOnUse" gradientTransform="translate(76.5943 366.04) rotate(122.951) scale(115.059 206.198)">
<stop stop-color="#D5E5F9"/>
<stop offset="0.27" stop-color="#949FAD"/>
<stop offset="0.63" stop-color="#454A51"/>
<stop offset="0.88" stop-color="#131416"/>
<stop offset="1"/>
</radialGradient>
<radialGradient id="paint11_radial_2_2" cx="0" cy="0" r="1" gradientUnits="userSpaceOnUse" gradientTransform="translate(267.374 644.563) rotate(122.951) scale(193.664 206.198)">
<stop stop-color="#D5E5F9"/>
<stop offset="0.27" stop-color="#949FAD"/>
<stop offset="0.63" stop-color="#454A51"/>
<stop offset="0.88" stop-color="#131416"/>
<stop offset="1"/>
</radialGradient>
<linearGradient id="paint12_linear_2_2" x1="433.454" y1="119.336" x2="364.244" y2="352.468" gradientUnits="userSpaceOnUse">
<stop stop-color="#F0F7FE"/>
<stop offset="0.47" stop-color="#D9E7F9"/>
<stop offset="1" stop-color="#BBD2F4"/>
</linearGradient>
<linearGradient id="paint13_linear_2_2" x1="436.234" y1="72.0486" x2="359.574" y2="330.33" gradientUnits="userSpaceOnUse">
<stop stop-color="white"/>
<stop offset="0.34" stop-color="#FCFDFE"/>
<stop offset="0.59" stop-color="#F2F7FD"/>
<stop offset="0.8" stop-color="#E3EEFB"/>
<stop offset="0.99" stop-color="#CDE1F9"/>
<stop offset="1" stop-color="#CCE0F9"/>
</linearGradient>
<linearGradient id="paint14_linear_2_2" x1="265.804" y1="468.526" x2="256.524" y2="417.438" gradientUnits="userSpaceOnUse">
<stop stop-color="#FF8293"/>
<stop offset="0.76" stop-color="#FFB6CE"/>
<stop offset="1" stop-color="#C2CAFA"/>
</linearGradient>
<linearGradient id="paint15_linear_2_2" x1="282.854" y1="442.924" x2="249.364" y2="438.77" gradientUnits="userSpaceOnUse">
<stop stop-color="#FFDDEF"/>
<stop offset="0.7" stop-color="white"/>
</linearGradient>
<radialGradient id="paint16_radial_2_2" cx="0" cy="0" r="1" gradientUnits="userSpaceOnUse" gradientTransform="translate(262.414 456.558) rotate(158.871) scale(11.6843 28.2753)">
<stop stop-color="#741C2C"/>
<stop offset="1"/>
</radialGradient>
<radialGradient id="paint17_radial_2_2" cx="0" cy="0" r="1" gradientUnits="userSpaceOnUse" gradientTransform="translate(250.074 504.089) rotate(117.401) scale(11.3456 35.4558)">
<stop stop-color="#FFDDEF"/>
<stop offset="0.7" stop-color="white"/>
</radialGradient>
<linearGradient id="paint18_linear_2_2" x1="265.944" y1="444.227" x2="241.004" y2="441.134" gradientUnits="userSpaceOnUse">
<stop stop-color="#FFDDEF"/>
<stop offset="0.7" stop-color="white"/>
</linearGradient>
<radialGradient id="paint19_radial_2_2" cx="0" cy="0" r="1" gradientUnits="userSpaceOnUse" gradientTransform="translate(220.654 492.089) rotate(145.531) scale(11.3458 35.4552)">
<stop stop-color="#FFDDEF"/>
<stop offset="0.7" stop-color="white"/>
</radialGradient>
<linearGradient id="paint20_linear_2_2" x1="276.094" y1="445.435" x2="245.814" y2="441.679" gradientUnits="userSpaceOnUse">
<stop stop-color="#FFDDEF"/>
<stop offset="0.7" stop-color="white"/>
</linearGradient>
<radialGradient id="paint21_radial_2_2" cx="0" cy="0" r="1" gradientUnits="userSpaceOnUse" gradientTransform="translate(230.774 489.114) rotate(145.531) scale(11.3458 35.4552)">
<stop stop-color="#FFDDEF"/>
<stop offset="0.7" stop-color="white"/>
</radialGradient>
<linearGradient id="paint22_linear_2_2" x1="292.154" y1="455.808" x2="266.614" y2="411.256" gradientUnits="userSpaceOnUse">
<stop stop-color="#FF8293"/>
<stop offset="0.76" stop-color="#FFB6CE"/>
<stop offset="1" stop-color="#BDC8FA"/>
</linearGradient>
<linearGradient id="paint23_linear_2_2" x1="298.974" y1="424.973" x2="266.164" y2="433.052" gradientUnits="userSpaceOnUse">
<stop stop-color="#FFDDEF"/>
<stop offset="0.7" stop-color="white"/>
</linearGradient>
<radialGradient id="paint24_radial_2_2" cx="0" cy="0" r="1" gradientUnits="userSpaceOnUse" gradientTransform="translate(290.194 493.723) rotate(96.4903) scale(11.3455 35.4561)">
<stop stop-color="#FFDDEF"/>
<stop offset="0.7" stop-color="white"/>
</radialGradient>
<linearGradient id="paint25_linear_2_2" x1="283.644" y1="432.222" x2="259.244" y2="438.23" gradientUnits="userSpaceOnUse">
<stop stop-color="#FFDDEF"/>
<stop offset="0.7" stop-color="white"/>
</linearGradient>
<radialGradient id="paint26_radial_2_2" cx="0" cy="0" r="1" gradientUnits="userSpaceOnUse" gradientTransform="translate(252.574 502.426) rotate(124.621) scale(11.3457 35.4557)">
<stop stop-color="#FFDDEF"/>
<stop offset="0.7" stop-color="white"/>
</radialGradient>
<linearGradient id="paint27_linear_2_2" x1="293.514" y1="429.742" x2="263.924" y2="437.025" gradientUnits="userSpaceOnUse">
<stop stop-color="#FFDDEF"/>
<stop offset="0.7" stop-color="white"/>
</linearGradient>
<radialGradient id="paint28_radial_2_2" cx="0" cy="0" r="1" gradientUnits="userSpaceOnUse" gradientTransform="translate(260.964 496.037) rotate(124.621) scale(11.3457 35.4557)">
<stop stop-color="#FFDDEF"/>
<stop offset="0.7" stop-color="white"/>
</radialGradient>
<linearGradient id="paint29_linear_2_2" x1="29.1844" y1="176.466" x2="7.11439" y2="167.488" gradientUnits="userSpaceOnUse">
<stop stop-color="#FF8798"/>
<stop offset="1" stop-color="#FFB6CE"/>
</linearGradient>
<linearGradient id="paint30_linear_2_2" x1="32.1445" y1="162.773" x2="1.33439" y2="174.759" gradientUnits="userSpaceOnUse">
<stop stop-color="#FFC9E0"/>
<stop offset="1" stop-color="#FFE5F3"/>
</linearGradient>
<radialGradient id="paint31_radial_2_2" cx="0" cy="0" r="1" gradientTransform="matrix(-12.4393 -11.1882 18.1045 -20.129 255.454 357.525)" gradientUnits="userSpaceOnUse">
<stop stop-color="#FFC7DD"/>
<stop offset="0.06" stop-color="#FFD0E2"/>
<stop offset="0.23" stop-color="#FFE5EF"/>
<stop offset="0.42" stop-color="#FFF3F8"/>
<stop offset="0.64" stop-color="#FFFCFD"/>
<stop offset="1" stop-color="white"/>
</radialGradient>
<linearGradient id="paint32_linear_2_2" x1="66.8244" y1="156.908" x2="49.4743" y2="164.247" gradientUnits="userSpaceOnUse">
<stop stop-color="#FF8798"/>
<stop offset="1" stop-color="#FFB6CE"/>
</linearGradient>
</defs>
</svg>
