<svg width="73" height="60" viewBox="0 0 73 60" fill="none" xmlns="http://www.w3.org/2000/svg">
<path d="M0 38.9655C0 24.8659 6.72722 13.0268 20.1817 3.44828C23.3339 1.14943 25.6788 0 27.2164 0C28.2928 0 28.831 0.689655 28.831 2.06897C28.831 3.37165 28.6003 4.3295 28.139 4.94253C27.7546 5.47893 27.2549 5.97701 26.6398 6.43678C26.0247 6.89655 25.4097 7.31801 24.7946 7.70115C24.1796 8.08429 23.4492 8.659 22.6035 9.42529C15.069 15.8621 11.3017 22.1456 11.3017 28.2759C11.3017 31.5709 12.6472 33.2184 15.3381 33.2184C26.6398 33.2184 32.2907 37.8544 32.2907 47.1264C32.2907 50.728 30.9068 53.7931 28.139 56.3218C25.3712 58.7739 22.3344 60 19.0284 60C12.9547 60 8.26488 57.6628 4.95893 52.9885C1.65298 48.2375 0 43.5632 0 38.9655ZM40.8246 38.9655C40.8246 24.636 47.3597 12.9119 60.4297 3.7931C63.505 1.26437 65.8115 0 67.3491 0C68.8868 0 69.6556 0.689655 69.6556 2.06897C69.6556 3.37165 69.425 4.29119 68.9637 4.82759C68.5793 5.36398 68.0795 5.90038 67.4645 6.43678C66.8494 6.89655 66.2343 7.31801 65.6193 7.70115C65.0042 8.08429 64.3123 8.659 63.5434 9.42529C55.7783 16.3218 51.8957 22.6054 51.8957 28.2759C51.8957 31.5709 53.3181 33.2184 56.1627 33.2184C67.3876 33.2184 73 37.8161 73 47.0115C73 50.5364 71.6161 53.6015 68.8483 56.2069C66.1575 58.7356 63.1206 60 59.7378 60C53.8178 60 49.1664 57.7011 45.7836 53.1034C42.4776 48.4291 40.8246 43.7165 40.8246 38.9655Z" fill="#FAD101"/>
</svg>
