<svg width="474" height="399" viewBox="0 0 474 399" fill="none" xmlns="http://www.w3.org/2000/svg">
<g clip-path="url(#clip0_908_6476)">
<path d="M345.152 290.262C344.539 290.203 343.921 290.203 343.308 290.262C339.474 290.66 336.141 293.372 334.027 296.529C332.681 298.64 331.568 300.891 330.709 303.242C329.704 305.807 328.756 308.392 327.68 310.929C325.649 315.881 323.145 320.626 320.206 325.101C317.256 329.405 313.882 333.403 310.133 337.034C306.934 340.177 303.502 343.074 299.866 345.701C303.286 342.605 306.543 339.334 309.626 335.903C311.603 333.702 313.397 331.345 314.992 328.854C316.414 326.611 317.741 323.818 317.414 321.091C317.106 318.498 314.887 316.879 312.351 317.025C309.555 317.186 307.246 318.957 305.241 320.741C300.297 325.124 295.344 329.493 290.016 333.413C287.143 335.587 284.091 337.514 280.892 339.173C277.702 340.773 274.374 342.066 271.056 343.363C267.183 344.778 263.449 346.549 259.903 348.655C256.75 350.627 253.865 352.998 251.319 355.707C248.12 359.092 245.048 362.808 242.972 367.011C240.626 371.745 239.962 376.899 240.422 382.116C240.92 387.796 242.479 393.306 242.792 398.986H268.995C268.862 393.353 271.132 387.711 274.611 383.332C276.461 381.111 278.643 379.188 281.082 377.633C283.634 375.916 286.288 374.356 289.031 372.961C292.258 371.3 295.572 369.809 298.89 368.341C304.336 365.922 309.612 363.281 314.167 359.385C319.381 354.931 323.348 349.189 327.026 343.467C329.182 340.107 331.165 336.641 332.97 333.081C338.223 322.709 341.96 311.638 344.067 300.207C344.678 297.017 345.214 293.547 345.64 290.324C345.617 290.324 345.332 290.281 345.152 290.262Z" fill="#3E9AF6"/>
<path d="M125.283 290.262C125.896 290.203 126.514 290.203 127.127 290.262C130.961 290.66 134.294 293.372 136.412 296.529C137.753 298.64 138.857 300.891 139.707 303.242C140.712 305.807 141.664 308.392 142.736 310.929C144.767 315.882 147.272 320.628 150.215 325.101C153.161 329.406 156.534 333.404 160.283 337.034C163.483 340.175 166.915 343.073 170.55 345.701C167.131 342.603 163.874 339.333 160.79 335.903C158.813 333.702 157.019 331.345 155.425 328.854C154.003 326.611 152.675 323.818 153.002 321.091C153.311 318.498 155.529 316.879 158.069 317.025C160.861 317.186 163.17 318.957 165.179 320.741C170.123 325.124 175.077 329.493 180.404 333.413C183.278 335.587 186.33 337.514 189.529 339.173C192.719 340.773 196.046 342.066 199.364 343.363C203.238 344.778 206.972 346.549 210.518 348.655C213.671 350.627 216.556 352.998 219.102 355.707C222.301 359.092 225.373 362.808 227.449 367.011C229.819 371.745 230.459 376.899 229.999 382.116C229.501 387.796 227.942 393.306 227.605 398.986H201.403C201.535 393.353 199.265 387.711 195.786 383.332C193.956 381.11 191.794 379.183 189.377 377.619C186.825 375.902 184.17 374.342 181.428 372.947C178.2 371.285 174.887 369.794 171.569 368.327C166.127 365.908 160.852 363.267 156.292 359.371C151.078 354.917 147.111 349.175 143.432 343.452C141.28 340.092 139.299 336.63 137.488 333.067C132.238 322.694 128.502 311.624 126.392 300.193C125.781 297.003 125.245 293.533 124.818 290.31C124.818 290.324 125.103 290.281 125.283 290.262Z" fill="#FAD101"/>
<path d="M263.81 300.6C264.321 300.238 264.775 299.8 265.156 299.303C264.897 299.978 264.823 300.711 264.943 301.424C265.062 302.19 265.471 302.881 266.085 303.355C266.354 303.596 266.669 303.78 267.011 303.896C267.353 304.013 267.716 304.059 268.076 304.032C268.404 303.977 268.716 303.852 268.992 303.665C269.267 303.479 269.5 303.236 269.673 302.953C269.826 302.694 269.919 302.405 269.943 302.105C269.984 301.734 269.931 301.358 269.787 301.012C269.758 300.949 269.724 300.887 269.688 300.827C270.062 300.969 270.458 301.045 270.858 301.05C271.252 301.049 271.64 300.961 271.996 300.794C272.362 300.612 272.685 300.354 272.944 300.037C273.14 299.807 273.277 299.532 273.342 299.237C273.417 298.911 273.395 298.571 273.28 298.257C273.134 297.865 272.881 297.521 272.55 297.263C272.128 296.98 271.637 296.816 271.128 296.79C270.627 296.736 270.12 296.749 269.621 296.828C269.208 296.886 268.798 296.968 268.393 297.074C267.959 297.194 267.532 297.338 267.114 297.505L266.791 297.632C266.981 297.367 267.099 296.955 266.791 296.723C266.497 296.501 266.128 296.724 265.919 296.97C265.976 296.496 266.028 296.023 266.047 295.55C266.06 295.15 266.049 294.75 266.014 294.352C265.979 293.862 265.894 293.377 265.763 292.904C265.632 292.414 265.39 291.96 265.057 291.578C264.749 291.248 264.355 291.01 263.919 290.892C263.584 290.806 263.231 290.821 262.905 290.934C262.615 291.041 262.357 291.217 262.151 291.446C262.031 291.584 261.926 291.735 261.838 291.895C261.738 292.076 261.655 292.266 261.592 292.463C261.477 292.839 261.45 293.235 261.511 293.623C261.576 294.026 261.72 294.411 261.933 294.759L262.075 294.982C261.728 294.885 261.361 294.885 261.013 294.982C260.705 295.054 260.417 295.195 260.17 295.393C259.925 295.606 259.728 295.866 259.59 296.159C259.452 296.451 259.377 296.769 259.369 297.093C259.362 297.437 259.447 297.777 259.615 298.077C259.798 298.396 260.033 298.681 260.312 298.92C260.605 299.176 260.94 299.381 261.302 299.526C261.659 299.664 262.039 299.733 262.421 299.729C263.196 299.718 263.951 299.479 264.592 299.043L264.701 298.972C264.305 299.464 263.986 300.013 263.753 300.6H263.81Z" fill="#FAD101"/>
<path d="M281.504 280.824C282.26 280.405 282.95 279.877 283.552 279.257C283.088 280.141 282.87 281.133 282.922 282.13C282.962 283.202 283.411 284.218 284.178 284.97C284.507 285.343 284.909 285.645 285.359 285.859C285.808 286.073 286.297 286.194 286.794 286.215C287.254 286.192 287.704 286.071 288.113 285.859C288.521 285.648 288.88 285.351 289.164 284.989C289.417 284.663 289.589 284.282 289.667 283.877C289.786 283.374 289.775 282.849 289.634 282.353C289.603 282.26 289.567 282.17 289.524 282.083C290.015 282.328 290.544 282.489 291.089 282.556C291.627 282.62 292.173 282.564 292.686 282.39C293.216 282.197 293.701 281.896 294.108 281.505C294.412 281.219 294.644 280.866 294.786 280.473C294.938 280.038 294.961 279.568 294.852 279.12C294.7 278.562 294.392 278.058 293.966 277.666C293.453 277.194 292.823 276.867 292.141 276.72C291.463 276.572 290.768 276.512 290.074 276.54C289.498 276.55 288.924 276.596 288.354 276.677C287.74 276.774 287.133 276.903 286.534 277.065L286.06 277.188C286.363 276.857 286.59 276.313 286.23 275.948C285.86 275.598 285.32 275.839 284.993 276.147C285.149 275.522 285.296 274.893 285.396 274.254C285.478 273.706 285.527 273.155 285.543 272.602C285.572 271.926 285.533 271.248 285.424 270.58C285.324 269.889 285.066 269.23 284.671 268.654C284.305 268.15 283.804 267.761 283.225 267.532C282.78 267.359 282.292 267.324 281.827 267.433C281.412 267.53 281.029 267.73 280.713 268.015C280.526 268.186 280.357 268.376 280.21 268.583C280.043 268.811 279.902 269.057 279.789 269.317C279.57 269.813 279.467 270.351 279.485 270.893C279.512 271.455 279.648 272.007 279.888 272.516C279.934 272.626 279.987 272.734 280.044 272.838C279.583 272.653 279.08 272.597 278.589 272.677C278.155 272.725 277.736 272.871 277.366 273.103C276.999 273.356 276.687 273.682 276.452 274.061C276.217 274.44 276.064 274.863 276.001 275.304C275.936 275.775 276 276.254 276.186 276.691C276.381 277.158 276.659 277.587 277.006 277.955C277.364 278.355 277.789 278.69 278.262 278.944C278.729 279.194 279.239 279.355 279.765 279.418C280.828 279.525 281.899 279.32 282.846 278.826L283.002 278.746C282.394 279.36 281.883 280.062 281.485 280.828L281.504 280.824Z" fill="#FAD101"/>
<path d="M303.095 262.16C304.127 261.711 305.086 261.112 305.939 260.38C305.229 261.47 304.823 262.73 304.764 264.029C304.737 264.709 304.829 265.388 305.034 266.036C305.26 266.693 305.602 267.304 306.044 267.84C306.84 268.82 307.982 269.691 309.281 269.776C309.878 269.801 310.473 269.699 311.027 269.475C311.58 269.251 312.079 268.912 312.49 268.479C312.857 268.087 313.128 267.615 313.282 267.101C313.5 266.465 313.547 265.783 313.419 265.123C313.395 264.999 313.362 264.877 313.32 264.758C313.92 265.149 314.587 265.428 315.287 265.582C315.973 265.737 316.686 265.737 317.372 265.582C318.093 265.412 318.769 265.089 319.354 264.635C319.785 264.306 320.13 263.877 320.358 263.386C320.61 262.84 320.699 262.234 320.614 261.639C320.493 260.899 320.164 260.208 319.666 259.646C319.055 258.982 318.278 258.492 317.415 258.226C316.553 257.955 315.659 257.796 314.756 257.753C314.01 257.697 313.261 257.686 312.514 257.72C311.707 257.77 310.903 257.863 310.106 257.999L309.494 258.098C309.926 257.705 310.286 257.028 309.869 256.517C309.433 256.044 308.703 256.262 308.243 256.621C308.518 255.831 308.788 255.031 308.997 254.217C309.173 253.519 309.304 252.811 309.39 252.096C309.513 251.225 309.547 250.343 309.49 249.464C309.444 248.556 309.191 247.671 308.75 246.875C308.338 246.178 307.736 245.612 307.015 245.242C306.458 244.965 305.831 244.861 305.214 244.944C304.667 245.019 304.147 245.228 303.702 245.554C303.439 245.754 303.197 245.981 302.982 246.231C302.737 246.508 302.523 246.809 302.342 247.131C302.001 247.747 301.802 248.431 301.759 249.133C301.719 249.866 301.827 250.6 302.076 251.291C302.124 251.438 302.181 251.585 302.242 251.727C301.667 251.428 301.021 251.292 300.375 251.334C299.806 251.345 299.248 251.483 298.739 251.736C298.232 252.019 297.789 252.403 297.437 252.865C297.085 253.327 296.833 253.856 296.696 254.42C296.557 255.023 296.58 255.652 296.763 256.243C296.962 256.87 297.268 257.458 297.668 257.98C298.086 258.535 298.596 259.016 299.175 259.4C299.753 259.776 300.396 260.039 301.071 260.176C302.436 260.447 303.85 260.312 305.138 259.788L305.352 259.703C304.485 260.422 303.734 261.27 303.124 262.216L303.095 262.16Z" fill="#FAD101"/>
<path d="M331.165 242.478C332.393 242.044 333.55 241.43 334.597 240.655C333.689 241.855 333.12 243.275 332.947 244.769C332.862 245.55 332.914 246.339 333.099 247.102C333.303 247.88 333.649 248.613 334.118 249.266C334.957 250.458 336.203 251.557 337.697 251.76C338.38 251.835 339.072 251.764 339.726 251.551C340.38 251.338 340.981 250.988 341.489 250.525C341.945 250.1 342.295 249.575 342.512 248.991C342.815 248.276 342.926 247.495 342.835 246.724C342.813 246.58 342.782 246.438 342.745 246.298C343.406 246.794 344.151 247.169 344.944 247.405C345.728 247.631 346.551 247.681 347.357 247.552C348.206 247.41 349.014 247.087 349.727 246.605C350.248 246.257 350.679 245.79 350.983 245.242C351.319 244.634 351.47 243.942 351.419 243.249C351.333 242.387 351.004 241.566 350.471 240.883C349.823 240.065 348.967 239.435 347.992 239.06C347.02 238.67 346.002 238.408 344.963 238.279C344.107 238.154 343.244 238.082 342.38 238.061C341.444 238.057 340.509 238.099 339.578 238.189L338.863 238.26C339.394 237.839 339.863 237.086 339.422 236.461C338.948 235.851 338.095 236.069 337.526 236.461C337.905 235.567 338.28 234.672 338.588 233.749C338.846 232.958 339.055 232.152 339.213 231.335C339.424 230.337 339.533 229.321 339.54 228.301C339.56 227.25 339.338 226.209 338.891 225.257C338.473 224.42 337.826 223.719 337.024 223.236C336.402 222.876 335.687 222.711 334.971 222.763C334.332 222.804 333.714 223.006 333.175 223.35C332.855 223.556 332.559 223.797 332.293 224.069C331.987 224.369 331.714 224.701 331.478 225.058C331.035 225.742 330.75 226.514 330.643 227.321C330.544 228.164 330.61 229.017 330.838 229.835C330.885 230.01 330.937 230.18 330.994 230.351C330.356 229.957 329.621 229.748 328.871 229.749C328.222 229.719 327.575 229.832 326.975 230.081C326.366 230.365 325.824 230.773 325.381 231.277C324.938 231.781 324.604 232.371 324.401 233.011C324.19 233.694 324.166 234.421 324.33 235.117C324.509 235.859 324.815 236.563 325.235 237.2C325.671 237.879 326.219 238.479 326.856 238.975C327.491 239.452 328.21 239.807 328.975 240.021C330.533 240.444 332.18 240.403 333.715 239.903L333.966 239.818C332.91 240.58 331.975 241.498 331.193 242.539L331.165 242.478Z" fill="#FAD101"/>
<path d="M361.819 223.572C363.254 223.137 364.615 222.489 365.858 221.65C364.754 222.985 364.027 224.59 363.753 226.299C363.615 227.194 363.635 228.107 363.81 228.997C364.006 229.901 364.367 230.761 364.876 231.534C365.777 232.954 367.161 234.275 368.872 234.582C369.657 234.705 370.459 234.659 371.224 234.447C371.989 234.235 372.7 233.861 373.309 233.352C373.853 232.884 374.283 232.298 374.565 231.638C374.943 230.828 375.106 229.935 375.039 229.044C375.02 228.877 374.991 228.711 374.954 228.547C375.693 229.152 376.534 229.621 377.437 229.934C378.326 230.232 379.269 230.332 380.201 230.227C381.191 230.103 382.144 229.767 382.993 229.243C383.612 228.868 384.132 228.35 384.509 227.733C384.924 227.05 385.133 226.263 385.111 225.466C385.054 224.462 384.713 223.495 384.126 222.678C383.421 221.705 382.468 220.938 381.367 220.457C380.268 219.962 379.11 219.609 377.921 219.407C376.942 219.221 375.953 219.095 374.958 219.028C373.883 218.969 372.806 218.969 371.73 219.028L370.901 219.071C371.536 218.597 372.114 217.769 371.636 217.026C371.133 216.301 370.128 216.51 369.465 216.922C369.939 215.913 370.413 214.9 370.825 213.854C371.163 212.956 371.444 212.038 371.664 211.104C371.957 209.968 372.134 208.806 372.195 207.634C372.268 206.426 372.066 205.217 371.602 204.099C371.162 203.116 370.452 202.277 369.555 201.68C368.86 201.229 368.046 200.995 367.218 201.008C366.48 201.028 365.759 201.229 365.118 201.595C364.741 201.819 364.388 202.082 364.066 202.38C363.699 202.711 363.369 203.079 363.08 203.478C362.537 204.242 362.171 205.117 362.009 206.039C361.85 207.003 361.883 207.989 362.103 208.941C362.151 209.144 362.203 209.343 362.26 209.542C361.544 209.061 360.709 208.784 359.847 208.742C359.094 208.675 358.334 208.775 357.624 209.036C356.909 209.332 356.264 209.773 355.729 210.331C355.194 210.889 354.78 211.552 354.515 212.278C354.238 213.053 354.175 213.889 354.33 214.697C354.501 215.558 354.822 216.383 355.278 217.135C355.746 217.938 356.347 218.657 357.055 219.26C357.757 219.839 358.561 220.282 359.425 220.566C361.191 221.127 363.082 221.161 364.867 220.666C364.966 220.642 365.064 220.614 365.161 220.581C363.913 221.408 362.794 222.416 361.843 223.572H361.819Z" fill="#FAD101"/>
<path d="M396.312 201.751C397.615 201.277 399.511 200.056 400.886 198.911C399.747 200.651 399.093 202.662 398.99 204.738C398.94 205.825 399.081 206.913 399.407 207.952C399.759 209.006 400.301 209.987 401.004 210.849C402.27 212.425 404.09 213.831 406.176 213.977C407.129 214.023 408.082 213.864 408.969 213.511C409.856 213.158 410.657 212.62 411.318 211.932C411.909 211.305 412.346 210.55 412.598 209.727C412.95 208.711 413.033 207.622 412.84 206.565C412.797 206.367 412.742 206.173 412.674 205.982C413.634 206.61 414.698 207.062 415.817 207.317C416.909 207.56 418.042 207.56 419.135 207.317C420.292 207.039 421.377 206.516 422.315 205.784C423.007 205.257 423.562 204.572 423.932 203.786C424.34 202.917 424.49 201.95 424.363 200.998C424.157 199.811 423.618 198.706 422.808 197.812C421.842 196.739 420.604 195.944 419.225 195.512C417.844 195.059 416.41 194.787 414.959 194.703C413.765 194.606 412.567 194.582 411.371 194.632C410.078 194.703 408.79 194.845 407.512 195.058L406.531 195.214C407.228 194.589 407.811 193.505 407.143 192.681C406.446 191.881 405.275 192.26 404.536 192.838C405.01 191.569 405.422 190.296 405.763 188.994C406.053 187.879 406.27 186.747 406.413 185.605C406.616 184.209 406.678 182.796 406.597 181.387C406.529 179.935 406.132 178.518 405.436 177.241C404.783 176.121 403.825 175.21 402.673 174.614C401.785 174.165 400.783 173.992 399.796 174.117C398.92 174.224 398.086 174.55 397.369 175.063C396.945 175.379 396.558 175.739 396.212 176.138C395.814 176.571 395.466 177.048 395.174 177.558C394.625 178.541 394.301 179.634 394.226 180.758C394.158 181.929 394.319 183.103 394.7 184.213C394.781 184.445 394.871 184.687 394.965 184.909C394.047 184.426 393.015 184.204 391.979 184.265C391.071 184.278 390.177 184.493 389.363 184.895C388.545 185.338 387.829 185.945 387.258 186.678C386.686 187.411 386.274 188.255 386.045 189.155C385.82 190.118 385.851 191.123 386.135 192.071C386.444 193.076 386.926 194.021 387.557 194.864C388.219 195.764 389.03 196.545 389.955 197.173C390.875 197.777 391.899 198.204 392.975 198.433C395.156 198.872 397.419 198.669 399.487 197.85L399.829 197.708C398.478 198.868 396.918 200.511 396.245 201.713L396.312 201.751Z" fill="#FAD101"/>
<path d="M429.705 171.698C430.862 170.784 432.341 168.858 433.331 167.267C432.785 169.415 432.821 171.67 433.436 173.8C433.763 174.912 434.284 175.959 434.976 176.89C435.698 177.832 436.587 178.634 437.597 179.257C439.417 180.403 441.74 181.184 443.887 180.611C444.865 180.327 445.77 179.836 446.541 179.172C447.312 178.508 447.931 177.686 448.357 176.763C448.733 175.926 448.91 175.014 448.874 174.098C448.877 172.951 448.582 171.824 448.016 170.827C447.907 170.643 447.785 170.468 447.651 170.301C448.835 170.597 450.063 170.682 451.277 170.552C452.472 170.417 453.621 170.018 454.642 169.383C455.711 168.701 456.62 167.799 457.311 166.737C457.827 165.966 458.152 165.083 458.259 164.162C458.365 163.144 458.176 162.117 457.714 161.204C457.097 160.075 456.174 159.143 455.05 158.515C453.703 157.772 452.18 157.404 450.642 157.45C449.098 157.47 447.563 157.691 446.077 158.108C444.841 158.427 443.625 158.821 442.437 159.287C441.161 159.809 439.915 160.398 438.702 161.052L437.754 161.554C438.228 160.683 438.446 159.386 437.488 158.79C436.507 158.226 435.459 159.017 434.919 159.855C434.919 158.435 434.919 156.986 434.815 155.557C434.716 154.333 434.539 153.117 434.284 151.917C434.004 150.441 433.573 148.998 432.999 147.609C432.43 146.163 431.535 144.867 430.383 143.822C429.337 142.92 428.054 142.335 426.686 142.137C425.635 141.994 424.566 142.167 423.614 142.634C422.773 143.057 422.05 143.681 421.51 144.452C421.192 144.917 420.927 145.415 420.718 145.938C420.47 146.519 420.289 147.125 420.178 147.746C419.964 148.927 420.018 150.14 420.334 151.297C420.674 152.503 421.251 153.629 422.031 154.61C422.192 154.823 422.363 155.026 422.538 155.225C421.445 155.055 420.327 155.189 419.306 155.613C418.397 155.943 417.573 156.47 416.893 157.157C416.227 157.89 415.72 158.753 415.406 159.691C415.091 160.63 414.974 161.624 415.063 162.61C415.169 163.657 415.55 164.658 416.168 165.511C416.833 166.417 417.651 167.2 418.585 167.826C419.568 168.501 420.657 169.005 421.808 169.317C422.944 169.607 424.124 169.68 425.287 169.535C427.636 169.224 429.843 168.237 431.639 166.695L431.938 166.434C430.99 168.067 429.98 170.268 429.719 171.712L429.705 171.698Z" fill="#FAD101"/>
<path d="M450.433 130.27C451.153 129.016 451.808 126.73 452.13 124.893C452.41 127.06 453.27 129.112 454.618 130.834C455.327 131.731 456.187 132.498 457.159 133.101C458.165 133.698 459.272 134.105 460.425 134.303C462.51 134.687 464.928 134.554 466.682 133.243C467.47 132.623 468.117 131.842 468.579 130.952C469.041 130.063 469.307 129.084 469.36 128.083C469.397 127.181 469.225 126.282 468.857 125.456C468.438 124.407 467.754 123.484 466.871 122.777C466.704 122.649 466.528 122.532 466.345 122.427C467.539 122.267 468.694 121.897 469.758 121.334C470.801 120.772 471.706 119.987 472.408 119.033C473.136 118.018 473.638 116.859 473.882 115.634C474.068 114.741 474.037 113.816 473.792 112.936C473.516 111.966 472.967 111.094 472.209 110.428C471.23 109.621 470.044 109.105 468.786 108.941C467.28 108.752 465.751 108.971 464.359 109.576C462.953 110.16 461.629 110.924 460.42 111.848C459.407 112.592 458.44 113.396 457.524 114.257C456.546 115.2 455.621 116.196 454.751 117.239L454.092 118.039C454.216 117.064 453.931 115.805 452.836 115.606C451.736 115.445 451.063 116.553 450.874 117.499C450.362 116.183 449.831 114.872 449.205 113.604C448.667 112.519 448.059 111.471 447.385 110.465C446.589 109.216 445.666 108.052 444.631 106.991C443.574 105.88 442.277 105.025 440.839 104.492C439.551 104.051 438.163 103.986 436.839 104.302C435.823 104.554 434.906 105.105 434.208 105.883C433.592 106.577 433.158 107.413 432.947 108.316C432.828 108.857 432.768 109.41 432.767 109.964C432.756 110.586 432.812 111.208 432.933 111.819C433.167 112.975 433.652 114.066 434.355 115.014C435.111 115.989 436.052 116.806 437.123 117.419C437.346 117.551 437.597 117.679 437.815 117.793C436.752 118.038 435.776 118.571 434.995 119.331C434.284 119.968 433.723 120.754 433.35 121.632C433.012 122.546 432.866 123.52 432.922 124.493C432.977 125.467 433.233 126.418 433.672 127.288C434.157 128.208 434.874 128.985 435.753 129.541C436.693 130.129 437.73 130.545 438.815 130.772C439.96 131.036 441.142 131.1 442.309 130.961C443.455 130.814 444.563 130.451 445.575 129.892C447.611 128.746 449.271 127.034 450.352 124.964C450.409 124.846 450.471 124.732 450.528 124.619C450.248 126.465 450.139 128.841 450.433 130.256V130.27Z" fill="#FAD101"/>
<path d="M453.917 86.4713C454.065 84.711 453.948 82.9384 453.571 81.2125C454.555 83.0037 456 84.5004 457.756 85.5483C458.678 86.0911 459.687 86.4691 460.738 86.6654C461.816 86.8431 462.918 86.8238 463.99 86.6086C465.942 86.2394 468 85.3069 469.085 83.5697C469.563 82.7634 469.863 81.8643 469.964 80.9328C470.065 80.0013 469.966 79.0588 469.673 78.1688C469.397 77.3708 468.943 76.6457 468.346 76.0482C467.623 75.2773 466.714 74.7052 465.705 74.3868C465.516 74.3302 465.323 74.2875 465.127 74.259C466.112 73.7151 466.993 73.002 467.729 72.1525C468.446 71.3086 468.968 70.3182 469.26 69.2509C469.549 68.1198 469.593 66.9401 469.388 65.7907C469.247 64.95 468.908 64.1549 468.398 63.4713C467.829 62.7188 467.056 62.1454 466.17 61.8193C465.043 61.4455 463.834 61.3979 462.681 61.6821C461.304 62.0263 460.045 62.7342 459.036 63.7317C458.01 64.7166 457.116 65.8304 456.377 67.0451C455.745 68.0369 455.174 69.0659 454.666 70.1266C454.13 71.2794 453.655 72.4597 453.244 73.6625L452.931 74.5856C452.708 73.6957 452.031 72.6922 451.011 72.891C449.997 73.1277 449.788 74.311 449.95 75.2199C449.059 74.2732 448.148 73.2839 447.177 72.3798C446.34 71.6171 445.455 70.9088 444.527 70.2592C443.408 69.4422 442.209 68.7397 440.948 68.1622C439.656 67.5502 438.24 67.2426 436.81 67.2629C435.537 67.3136 434.304 67.7239 433.255 68.4462C432.458 69.011 431.847 69.8004 431.502 70.7136C431.201 71.5267 431.106 72.4017 431.227 73.2602C431.306 73.7719 431.441 74.2735 431.63 74.756C431.83 75.3028 432.089 75.8265 432.402 76.318C433.003 77.247 433.803 78.0312 434.744 78.6138C435.735 79.2045 436.831 79.5983 437.972 79.7735C438.213 79.8161 438.446 79.8445 438.702 79.8681C437.86 80.4413 437.191 81.2336 436.768 82.1591C436.363 82.9541 436.14 83.8286 436.114 84.72C436.129 85.631 436.332 86.5291 436.71 87.3582C437.089 88.1873 437.634 88.9296 438.313 89.5387C439.045 90.1786 439.932 90.6145 440.887 90.8025C441.905 90.9949 442.95 91.0077 443.973 90.8404C445.061 90.6793 446.114 90.3352 447.087 89.8227C448.033 89.3031 448.874 88.6112 449.566 87.7825C450.95 86.1013 451.813 84.0532 452.049 81.8893C452.049 81.7663 452.078 81.6479 452.087 81.5249C452.471 83.2289 453.182 85.34 453.917 86.4713Z" fill="#FAD101"/>
<path d="M438.227 46.2935C437.668 44.8675 436.9 43.5323 435.947 42.3316C437.395 43.3531 439.091 43.9678 440.858 44.1114C441.781 44.1822 442.71 44.0925 443.603 43.8463C444.509 43.5739 445.359 43.1393 446.11 42.5635C447.485 41.5316 448.731 40.0217 448.911 38.2608C448.975 37.452 448.865 36.639 448.588 35.8764C448.31 35.1138 447.873 34.4193 447.305 33.8397C446.788 33.3212 446.159 32.9291 445.465 32.6942C444.609 32.368 443.684 32.2685 442.778 32.4055C442.608 32.4347 442.44 32.4759 442.275 32.5285C442.838 31.7315 443.252 30.84 443.498 29.8967C443.736 28.9677 443.763 27.9976 443.579 27.0566C443.373 26.0681 442.958 25.1352 442.361 24.3207C441.931 23.7224 441.363 23.2355 440.706 22.9006C439.975 22.531 439.152 22.3798 438.336 22.4651C437.322 22.5977 436.365 23.0145 435.578 23.6674C434.636 24.4575 433.926 25.4883 433.525 26.6495C433.101 27.8037 432.83 29.0084 432.72 30.2328C432.606 31.2448 432.554 32.2628 432.563 33.2812C432.593 34.3799 432.68 35.4764 432.824 36.5662C432.857 36.8455 432.895 37.1248 432.933 37.404C432.421 36.7934 431.511 36.2727 430.79 36.8171C430.089 37.3851 430.383 38.3886 430.852 39.0324C429.785 38.6158 428.714 38.2135 427.615 37.8916C426.681 37.6166 425.731 37.4016 424.771 37.2478C423.588 37.0391 422.387 36.9503 421.187 36.9828C419.937 36.9985 418.708 37.3014 417.594 37.8679C416.625 38.392 415.825 39.1798 415.286 40.14C414.873 40.8909 414.696 41.7487 414.779 42.6014C414.857 43.3494 415.119 44.0666 415.542 44.6889C415.798 45.056 416.094 45.394 416.423 45.6971C416.789 46.0452 417.191 46.353 417.623 46.6154C418.444 47.1088 419.366 47.4143 420.32 47.51C421.316 47.5939 422.319 47.483 423.273 47.1834C423.477 47.1219 423.676 47.0556 423.875 46.9799C423.438 47.7458 423.22 48.6169 423.244 49.4981C423.237 50.27 423.398 51.0343 423.718 51.737C424.078 52.4399 424.579 53.0612 425.19 53.562C425.8 54.0629 426.508 54.4326 427.269 54.6481C428.083 54.8683 428.942 54.8683 429.757 54.6481C430.622 54.4098 431.439 54.0221 432.17 53.5026C432.954 52.9658 433.641 52.2981 434.198 51.5288C434.737 50.7656 435.128 49.9082 435.35 49.0011C435.785 47.1615 435.673 45.2351 435.028 43.4582C434.995 43.3588 434.957 43.2594 434.919 43.16C435.859 44.3724 436.977 45.4354 438.237 46.3125L438.227 46.2935Z" fill="#FAD101"/>
<path d="M411.812 21.7172C410.905 20.8589 409.877 20.1395 408.759 19.5824C410.182 19.835 411.646 19.7043 413.001 19.2038C413.709 18.9363 414.363 18.547 414.935 18.0535C415.516 17.5428 415.998 16.9299 416.357 16.2453C417.016 15.0099 417.41 13.462 416.936 12.0988C416.702 11.4797 416.338 10.9177 415.869 10.4507C415.4 9.98368 414.836 9.62243 414.215 9.39124C413.654 9.1875 413.054 9.11621 412.461 9.18296C411.717 9.23669 411 9.48303 410.38 9.89772C410.264 9.97539 410.155 10.0625 410.053 10.1581C410.194 9.37537 410.194 8.574 410.053 7.79132C409.896 7.02658 409.573 6.30577 409.105 5.68018C408.61 5.02123 407.98 4.4757 407.257 4.08026C406.731 3.78772 406.142 3.6254 405.541 3.60691C404.876 3.5773 404.217 3.74179 403.645 4.08026C402.941 4.53436 402.379 5.17744 402.024 5.93579C401.607 6.84615 401.443 7.85163 401.55 8.84689C401.638 9.84606 401.856 10.8295 402.199 11.7722C402.468 12.5574 402.785 13.3257 403.147 14.0727C403.548 14.8741 403.993 15.6531 404.479 16.4063C404.599 16.5988 404.722 16.7928 404.849 16.9885C404.256 16.7187 403.427 16.6429 403.062 17.2962C402.744 17.9589 403.308 18.5979 403.877 18.9103C402.929 18.9718 402.014 19.0428 401.09 19.1848C400.301 19.3068 399.52 19.4791 398.753 19.7008C397.807 19.9546 396.889 20.3035 396.013 20.7421C395.103 21.1875 394.307 21.8352 393.686 22.6355C393.154 23.3603 392.837 24.2198 392.771 25.1159C392.729 25.8033 392.894 26.4876 393.245 27.0803C393.562 27.6053 394.003 28.0443 394.53 28.3583C394.848 28.5405 395.185 28.6881 395.535 28.7985C395.923 28.9315 396.325 29.0204 396.734 29.0636C397.513 29.1435 398.299 29.0497 399.037 28.7891C399.802 28.5082 400.504 28.0804 401.104 27.53C401.232 27.4164 401.355 27.298 401.479 27.1702C401.418 27.8873 401.559 28.607 401.886 29.2482C402.143 29.8222 402.525 30.3316 403.005 30.7393C403.514 31.1342 404.099 31.4199 404.724 31.5788C405.349 31.7376 405.999 31.766 406.636 31.6623C407.312 31.5427 407.945 31.2472 408.47 30.8055C409.025 30.3297 409.494 29.7611 409.854 29.1252C410.237 28.4599 410.504 27.735 410.646 26.9809C410.778 26.2316 410.769 25.464 410.617 24.7183C410.302 23.21 409.552 21.8264 408.461 20.7374L408.28 20.5575C409.392 21.1254 410.582 21.5227 411.812 21.7362V21.7172Z" fill="#FAD101"/>
<path d="M381.821 11.6775C380.913 11.3063 379.955 11.0733 378.977 10.9864C380.094 10.7619 381.131 10.2458 381.982 9.49063C382.424 9.09191 382.793 8.61939 383.073 8.09425C383.347 7.55245 383.52 6.96545 383.585 6.36179C383.68 5.8028 383.662 5.23023 383.53 4.67866C383.398 4.12708 383.155 3.60791 382.817 3.15249C382.468 2.76491 382.04 2.45629 381.561 2.2473C381.083 2.03832 380.566 1.93379 380.044 1.94072C379.574 1.95429 379.114 2.07406 378.698 2.29099C378.167 2.54621 377.71 2.93231 377.37 3.41283C377.31 3.50539 377.257 3.60185 377.209 3.70157C377.084 3.08826 376.851 2.50182 376.522 1.96912C376.193 1.44769 375.752 1.00493 375.233 0.672141C374.678 0.329626 374.055 0.110097 373.408 0.0283862C372.937 -0.0375685 372.458 0.00949104 372.01 0.165657C371.514 0.342952 371.08 0.658346 370.758 1.07449C370.373 1.60852 370.146 2.24011 370.104 2.89688C370.053 3.68463 370.217 4.47137 370.578 5.17369C370.93 5.88123 371.373 6.53998 371.896 7.13335C372.315 7.63505 372.766 8.10937 373.247 8.5534C373.769 9.02926 374.318 9.47493 374.891 9.88824L375.332 10.2101C374.82 10.177 374.176 10.3711 374.109 10.9438C374.062 11.5213 374.664 11.829 375.171 11.8905C374.503 12.2029 373.839 12.5248 373.204 12.8893C372.661 13.2082 372.137 13.5591 371.635 13.9401C371.014 14.3977 370.441 14.9162 369.924 15.488C369.387 16.0773 368.993 16.7817 368.772 17.547C368.586 18.2305 368.598 18.9525 368.805 19.6298C368.974 20.146 369.292 20.6007 369.72 20.9362C370.102 21.2329 370.551 21.4297 371.028 21.509C371.314 21.5507 371.603 21.5618 371.891 21.5421C372.211 21.528 372.529 21.4788 372.839 21.3954C373.433 21.2303 373.984 20.9361 374.451 20.5339C374.929 20.1073 375.322 19.5932 375.607 19.0191C375.669 18.8961 375.726 18.773 375.778 18.6452C375.939 19.1922 376.249 19.6838 376.674 20.0652C377.03 20.4099 377.459 20.6703 377.93 20.8273C378.417 20.9722 378.928 21.0146 379.433 20.9519C379.937 20.8891 380.423 20.7226 380.859 20.4629C381.321 20.1815 381.701 19.783 381.959 19.3079C382.24 18.8022 382.429 18.251 382.518 17.6796C382.612 17.0766 382.604 16.4622 382.494 15.8619C382.375 15.2734 382.149 14.7119 381.826 14.2052C381.159 13.1902 380.21 12.391 379.096 11.9047L378.911 11.8242C379.891 11.924 380.88 11.8745 381.845 11.6775H381.821Z" fill="#FAD101"/>
<path d="M352.097 12.6289C351.299 12.5904 350.5 12.6718 349.727 12.8704C350.523 12.3979 351.177 11.7212 351.623 10.9107C351.858 10.4868 352.018 10.0257 352.097 9.54745C352.158 9.05744 352.13 8.56047 352.016 8.08007C351.938 7.62596 351.769 7.19243 351.518 6.80588C351.267 6.41933 350.94 6.08786 350.556 5.83166C350.184 5.62804 349.773 5.5066 349.35 5.47557C348.928 5.44453 348.503 5.50463 348.106 5.65179C347.745 5.78688 347.42 6.00404 347.158 6.28607C346.819 6.62333 346.574 7.04249 346.447 7.50258C346.424 7.58958 346.408 7.6782 346.399 7.76766C346.136 7.33293 345.799 6.94699 345.404 6.62688C345.009 6.31755 344.551 6.09787 344.062 5.98313C343.547 5.86949 343.013 5.86949 342.498 5.98313C342.12 6.05486 341.766 6.21731 341.465 6.45648C341.133 6.72544 340.885 7.08341 340.749 7.48838C340.599 8.00475 340.599 8.55299 340.749 9.06936C340.929 9.68377 341.269 10.2393 341.735 10.6788C342.192 11.1275 342.705 11.5157 343.261 11.8337C343.72 12.1041 344.195 12.346 344.683 12.5579C345.212 12.7798 345.753 12.971 346.304 13.1307L346.731 13.2585C346.328 13.3721 345.887 13.694 345.992 14.1531C346.115 14.6265 346.655 14.6785 347.063 14.5933C346.636 15.0146 346.214 15.4359 345.826 15.8903C345.495 16.281 345.19 16.692 344.911 17.121C344.559 17.6407 344.261 18.1941 344.02 18.773C343.764 19.3701 343.647 20.0176 343.678 20.6664C343.726 21.2394 343.935 21.7874 344.28 22.2474C344.549 22.5977 344.915 22.8611 345.333 23.0048C345.707 23.1276 346.106 23.1552 346.494 23.0852C346.724 23.0434 346.948 22.9751 347.162 22.8817C347.405 22.7816 347.637 22.6563 347.854 22.5077C348.269 22.2218 348.614 21.8465 348.864 21.4096C349.12 20.9557 349.281 20.455 349.338 19.9375C349.338 19.8239 349.338 19.715 349.371 19.6061C349.643 19.9766 350.012 20.2649 350.438 20.4392C350.804 20.6109 351.204 20.6982 351.608 20.6948C352.021 20.6728 352.425 20.566 352.794 20.3811C353.164 20.1962 353.491 19.9372 353.756 19.6203C354.033 19.2797 354.215 18.8712 354.282 18.4369C354.354 17.9748 354.343 17.5035 354.249 17.0453C354.159 16.5578 353.987 16.0889 353.741 15.6584C353.497 15.2407 353.175 14.8729 352.793 14.5744C352.008 13.974 351.064 13.6168 350.077 13.5472H349.916C350.694 13.3585 351.439 13.0537 352.125 12.6431L352.097 12.6289Z" fill="#FAD101"/>
<path d="M305.385 38.5164C305.027 38.7557 304.707 39.0477 304.437 39.3826C304.621 38.9335 304.684 38.4435 304.617 37.9625C304.581 37.7064 304.497 37.4591 304.37 37.2336C304.243 37.0028 304.073 36.7987 303.868 36.6324C303.687 36.4666 303.475 36.3391 303.244 36.2577C303.012 36.1764 302.767 36.1428 302.522 36.1591C302.297 36.1913 302.083 36.2714 301.892 36.3939C301.702 36.5165 301.54 36.6785 301.417 36.8691C301.319 37.0295 301.255 37.2083 301.228 37.3945C301.193 37.6474 301.224 37.9049 301.318 38.1424C301.318 38.185 301.361 38.2276 301.384 38.2702C301.132 38.1682 300.864 38.1121 300.593 38.1046C300.324 38.0975 300.057 38.1492 299.811 38.256C299.556 38.3757 299.328 38.5465 299.142 38.7578C299.007 38.913 298.909 39.0978 298.858 39.2974C298.801 39.5194 298.811 39.7532 298.886 39.9696C298.988 40.2369 299.164 40.47 299.393 40.6417C299.67 40.8494 299.997 40.9786 300.341 41.0157C300.683 41.0606 301.029 41.0606 301.37 41.0157C301.652 40.9829 301.932 40.9339 302.209 40.8689C302.506 40.7939 302.799 40.7022 303.086 40.5944L303.309 40.5139C303.171 40.689 303.086 40.9872 303.28 41.1293C303.479 41.2807 303.754 41.1293 303.877 40.973C303.83 41.2855 303.787 41.6026 303.768 41.9197C303.752 42.1925 303.752 42.4659 303.768 42.7386C303.786 43.0726 303.837 43.4041 303.92 43.7279C304.007 44.0641 304.169 44.3764 304.394 44.6415C304.601 44.8658 304.864 45.0295 305.157 45.1149C305.384 45.1834 305.627 45.1834 305.854 45.1149C306.051 45.0464 306.228 44.931 306.371 44.7788C306.455 44.6854 306.529 44.5839 306.593 44.4758C306.665 44.3546 306.724 44.226 306.769 44.0924C306.851 43.8374 306.877 43.5678 306.845 43.3019C306.803 43.0266 306.71 42.7615 306.57 42.5209C306.541 42.4688 306.508 42.4215 306.475 42.3694C306.712 42.4357 306.963 42.4357 307.2 42.3694C307.405 42.3307 307.599 42.2484 307.769 42.128C307.938 41.9868 308.076 41.812 308.174 41.6149C308.272 41.4177 308.327 41.2024 308.338 40.9825C308.348 40.7475 308.295 40.514 308.186 40.3056C308.064 40.0851 307.903 39.888 307.712 39.7234C307.517 39.5437 307.292 39.3981 307.049 39.2927C306.806 39.1952 306.547 39.1439 306.285 39.1412C305.758 39.1355 305.24 39.2853 304.797 39.5719L304.726 39.6193C304.997 39.2899 305.216 38.9211 305.375 38.5258L305.385 38.5164Z" fill="#FAD101"/>
<path d="M325.572 22.8817C324.978 23.0593 324.414 23.3241 323.899 23.6674C324.359 23.127 324.665 22.4731 324.785 21.774C324.851 21.4062 324.851 21.0295 324.785 20.6617C324.705 20.2893 324.561 19.9337 324.358 19.6108C324.186 19.2997 323.952 19.0266 323.671 18.8078C323.39 18.589 323.067 18.4291 322.723 18.3375C322.401 18.2811 322.071 18.2942 321.755 18.3758C321.438 18.4575 321.143 18.6058 320.889 18.8109C320.664 19.003 320.484 19.2422 320.363 19.5114C320.202 19.844 320.13 20.2126 320.154 20.5812C320.159 20.6496 320.168 20.7176 320.182 20.7847C319.883 20.5307 319.539 20.3334 319.168 20.2025C318.804 20.0737 318.415 20.0284 318.031 20.07C317.624 20.1171 317.233 20.2511 316.883 20.4629C316.627 20.6148 316.411 20.8258 316.253 21.0782C316.075 21.3611 315.986 21.6909 315.997 22.0249C316.015 22.4396 316.151 22.8404 316.39 23.1799C316.674 23.5913 317.064 23.9184 317.519 24.1266C317.972 24.3343 318.45 24.4838 318.941 24.5715C319.343 24.6541 319.75 24.711 320.159 24.7419C320.602 24.7656 321.047 24.7656 321.491 24.7419H321.832C321.571 24.9265 321.33 25.2721 321.524 25.5798C321.728 25.8827 322.145 25.7975 322.42 25.6318C322.216 26.0484 322.012 26.4649 321.846 26.8909C321.703 27.2602 321.582 27.638 321.486 28.0222C321.362 28.4867 321.284 28.9624 321.254 29.4423C321.217 29.9392 321.295 30.438 321.481 30.9002C321.665 31.2963 321.956 31.6338 322.32 31.8753C322.602 32.0601 322.931 32.1588 323.268 32.1593C323.571 32.1542 323.867 32.0745 324.131 31.9274C324.288 31.8369 324.436 31.7306 324.572 31.6102C324.725 31.4679 324.861 31.3091 324.979 31.1369C325.214 30.8263 325.376 30.4672 325.453 30.086C325.532 29.6907 325.532 29.2838 325.453 28.8885C325.453 28.8033 325.411 28.7228 325.392 28.6376C325.682 28.8445 326.026 28.9629 326.382 28.9784C326.692 29.0112 327.004 28.9739 327.297 28.8695C327.593 28.7507 327.861 28.5721 328.085 28.3448C328.308 28.1175 328.482 27.8465 328.596 27.5489C328.709 27.2287 328.739 26.8849 328.681 26.5501C328.614 26.1954 328.488 25.8545 328.307 25.5419C328.1 25.2131 327.839 24.9218 327.534 24.6804C327.243 24.4417 326.911 24.2588 326.553 24.1408C325.828 23.9029 325.048 23.8815 324.311 24.0792L324.188 24.1124C324.707 23.7761 325.174 23.3645 325.572 22.8911V22.8817Z" fill="#FAD101"/>
<path d="M210.191 300.6C209.68 300.238 209.226 299.8 208.845 299.303C209.104 299.978 209.178 300.711 209.058 301.424C208.939 302.19 208.53 302.881 207.916 303.355C207.647 303.596 207.332 303.78 206.99 303.896C206.647 304.013 206.285 304.059 205.925 304.032C205.597 303.977 205.285 303.852 205.009 303.665C204.733 303.479 204.501 303.236 204.328 302.953C204.174 302.694 204.082 302.405 204.057 302.105C204.016 301.734 204.07 301.358 204.214 301.012C204.243 300.949 204.277 300.887 204.313 300.827C203.939 300.969 203.543 301.045 203.143 301.05C202.749 301.049 202.361 300.961 202.005 300.794C201.639 300.612 201.316 300.354 201.057 300.037C200.861 299.807 200.724 299.532 200.659 299.237C200.584 298.911 200.606 298.571 200.72 298.257C200.867 297.865 201.12 297.521 201.45 297.263C201.873 296.98 202.364 296.816 202.872 296.79C203.374 296.736 203.881 296.749 204.38 296.828C204.793 296.886 205.203 296.968 205.607 297.074C206.042 297.194 206.469 297.338 206.887 297.505L207.209 297.632C207.02 297.367 206.901 296.955 207.209 296.723C207.503 296.501 207.873 296.724 208.082 296.97C208.025 296.496 207.973 296.023 207.954 295.55C207.941 295.15 207.952 294.75 207.987 294.352C208.022 293.862 208.107 293.377 208.238 292.904C208.369 292.414 208.61 291.96 208.944 291.578C209.252 291.248 209.646 291.01 210.082 290.892C210.417 290.806 210.77 290.821 211.096 290.934C211.385 291.041 211.644 291.217 211.85 291.446C211.97 291.584 212.074 291.735 212.163 291.895C212.263 292.076 212.346 292.266 212.409 292.463C212.523 292.839 212.551 293.235 212.49 293.623C212.424 294.026 212.281 294.411 212.068 294.759L211.926 294.982C212.273 294.885 212.64 294.885 212.988 294.982C213.296 295.054 213.584 295.195 213.831 295.393C214.076 295.606 214.273 295.866 214.411 296.159C214.549 296.451 214.624 296.769 214.632 297.093C214.639 297.437 214.554 297.777 214.386 298.077C214.203 298.396 213.968 298.681 213.689 298.92C213.396 299.176 213.061 299.381 212.698 299.526C212.342 299.664 211.962 299.733 211.58 299.729C210.804 299.718 210.049 299.479 209.409 299.043L209.3 298.972C209.687 299.466 209.999 300.015 210.224 300.6H210.191Z" fill="#3E9AF6"/>
<path d="M192.497 280.824C191.741 280.405 191.051 279.877 190.449 279.257C190.913 280.141 191.131 281.133 191.079 282.13C191.039 283.202 190.59 284.218 189.823 284.97C189.494 285.343 189.092 285.645 188.642 285.859C188.193 286.073 187.705 286.194 187.207 286.215C186.747 286.192 186.297 286.071 185.889 285.859C185.48 285.648 185.121 285.351 184.837 284.989C184.585 284.663 184.413 284.282 184.334 283.877C184.215 283.374 184.226 282.849 184.368 282.353C184.398 282.26 184.435 282.17 184.477 282.083C183.986 282.328 183.457 282.489 182.912 282.556C182.374 282.62 181.829 282.564 181.315 282.39C180.776 282.2 180.284 281.899 179.869 281.505C179.565 281.219 179.333 280.866 179.192 280.473C179.039 280.038 179.016 279.568 179.125 279.12C179.278 278.562 179.585 278.058 180.012 277.666C180.524 277.194 181.154 276.867 181.836 276.72C182.515 276.572 183.209 276.512 183.903 276.54C184.479 276.55 185.054 276.596 185.624 276.677C186.237 276.774 186.845 276.903 187.444 277.065L187.918 277.188C187.615 276.857 187.387 276.313 187.747 275.948C188.117 275.598 188.657 275.839 188.984 276.147C188.828 275.522 188.681 274.893 188.582 274.254C188.499 273.706 188.45 273.155 188.435 272.602C188.405 271.926 188.445 271.248 188.553 270.58C188.653 269.889 188.911 269.23 189.307 268.654C189.672 268.15 190.174 267.761 190.752 267.532C191.198 267.359 191.685 267.324 192.151 267.433C192.565 267.53 192.948 267.73 193.265 268.015C193.452 268.186 193.62 268.376 193.767 268.583C193.934 268.811 194.075 269.057 194.189 269.317C194.407 269.813 194.511 270.351 194.492 270.893C194.466 271.455 194.329 272.007 194.089 272.516C194.043 272.626 193.991 272.734 193.933 272.838C194.394 272.653 194.897 272.597 195.388 272.677C195.823 272.725 196.241 272.871 196.611 273.103C196.979 273.356 197.29 273.682 197.525 274.061C197.76 274.44 197.914 274.863 197.976 275.304C198.041 275.775 197.977 276.254 197.791 276.691C197.596 277.158 197.319 277.587 196.971 277.955C196.613 278.355 196.188 278.69 195.715 278.944C195.248 279.194 194.739 279.355 194.213 279.418C193.15 279.525 192.079 279.32 191.132 278.826L190.975 278.746C191.583 279.36 192.094 280.062 192.492 280.828L192.497 280.824Z" fill="#3E9AF6"/>
<path d="M170.906 262.16C169.874 261.711 168.915 261.112 168.062 260.38C168.772 261.47 169.178 262.73 169.237 264.029C169.264 264.709 169.172 265.388 168.967 266.036C168.741 266.693 168.399 267.304 167.957 267.84C167.161 268.82 166.019 269.691 164.72 269.776C164.123 269.801 163.528 269.699 162.974 269.475C162.421 269.251 161.922 268.912 161.511 268.479C161.144 268.087 160.873 267.615 160.719 267.101C160.501 266.465 160.454 265.783 160.582 265.123C160.606 264.999 160.639 264.877 160.681 264.758C160.081 265.149 159.414 265.428 158.714 265.582C158.028 265.737 157.315 265.737 156.629 265.582C155.908 265.412 155.232 265.089 154.647 264.635C154.216 264.306 153.871 263.877 153.643 263.386C153.391 262.84 153.302 262.234 153.387 261.639C153.508 260.899 153.837 260.208 154.335 259.646C154.946 258.982 155.723 258.492 156.586 258.226C157.448 257.955 158.342 257.796 159.245 257.753C159.991 257.697 160.74 257.686 161.487 257.72C162.294 257.77 163.098 257.863 163.895 257.999L164.507 258.098C164.075 257.705 163.715 257.028 164.132 256.517C164.568 256.044 165.298 256.262 165.758 256.621C165.483 255.831 165.213 255.031 165.004 254.217C164.828 253.519 164.697 252.811 164.611 252.096C164.488 251.225 164.454 250.343 164.511 249.464C164.557 248.556 164.81 247.671 165.251 246.875C165.663 246.178 166.265 245.612 166.986 245.242C167.543 244.965 168.17 244.861 168.787 244.944C169.334 245.019 169.854 245.228 170.299 245.554C170.563 245.754 170.804 245.981 171.019 246.231C171.264 246.508 171.478 246.809 171.659 247.131C172 247.747 172.199 248.431 172.242 249.133C172.282 249.866 172.174 250.6 171.925 251.291C171.877 251.438 171.82 251.585 171.759 251.727C172.334 251.428 172.98 251.292 173.626 251.334C174.195 251.345 174.753 251.483 175.262 251.736C175.769 252.019 176.212 252.403 176.564 252.865C176.916 253.327 177.168 253.856 177.305 254.42C177.444 255.023 177.421 255.652 177.238 256.243C177.039 256.87 176.733 257.458 176.333 257.98C175.915 258.535 175.405 259.016 174.826 259.4C174.248 259.776 173.605 260.039 172.93 260.176C171.565 260.447 170.151 260.312 168.863 259.788L168.649 259.703C169.516 260.422 170.267 261.27 170.877 262.216L170.906 262.16Z" fill="#3E9AF6"/>
<path d="M142.835 242.478C141.607 242.044 140.45 241.43 139.403 240.655C140.311 241.855 140.88 243.275 141.053 244.769C141.138 245.55 141.086 246.339 140.901 247.102C140.697 247.88 140.351 248.613 139.882 249.266C139.043 250.458 137.797 251.557 136.303 251.76C135.62 251.835 134.928 251.764 134.274 251.551C133.62 251.338 133.019 250.988 132.511 250.525C132.056 250.1 131.705 249.575 131.488 248.991C131.185 248.276 131.074 247.495 131.165 246.724C131.188 246.58 131.218 246.438 131.255 246.298C130.594 246.794 129.849 247.169 129.056 247.405C128.272 247.631 127.449 247.681 126.643 247.552C125.794 247.41 124.986 247.087 124.273 246.605C123.752 246.257 123.321 245.79 123.017 245.242C122.681 244.634 122.53 243.942 122.581 243.249C122.667 242.387 122.996 241.566 123.529 240.883C124.177 240.065 125.033 239.435 126.008 239.06C126.98 238.67 127.998 238.408 129.037 238.279C129.893 238.154 130.756 238.082 131.62 238.061C132.556 238.057 133.491 238.099 134.422 238.189L135.137 238.26C134.607 237.839 134.137 237.086 134.578 236.461C135.052 235.851 135.905 236.069 136.474 236.461C136.095 235.567 135.72 234.672 135.412 233.749C135.154 232.958 134.945 232.152 134.787 231.335C134.576 230.337 134.467 229.321 134.46 228.301C134.44 227.25 134.663 226.209 135.109 225.257C135.527 224.42 136.174 223.719 136.977 223.236C137.598 222.876 138.313 222.711 139.029 222.763C139.668 222.804 140.286 223.006 140.825 223.35C141.145 223.556 141.441 223.797 141.707 224.069C142.013 224.369 142.286 224.701 142.522 225.058C142.965 225.742 143.25 226.514 143.357 227.321C143.456 228.164 143.39 229.017 143.162 229.835C143.115 230.01 143.063 230.18 143.006 230.351C143.644 229.957 144.379 229.748 145.129 229.749C145.778 229.719 146.425 229.832 147.025 230.081C147.634 230.365 148.176 230.773 148.619 231.277C149.062 231.781 149.396 232.371 149.599 233.011C149.81 233.694 149.834 234.421 149.67 235.117C149.492 235.859 149.185 236.563 148.765 237.2C148.329 237.879 147.781 238.479 147.144 238.975C146.509 239.452 145.79 239.807 145.025 240.021C143.467 240.444 141.82 240.403 140.285 239.903L140.034 239.818C141.09 240.58 142.025 241.498 142.807 242.539L142.835 242.478Z" fill="#3E9AF6"/>
<path d="M112.182 223.572C110.747 223.137 109.386 222.489 108.143 221.65C109.247 222.985 109.973 224.59 110.248 226.299C110.385 227.194 110.366 228.107 110.191 228.997C109.995 229.901 109.633 230.761 109.124 231.534C108.224 232.954 106.84 234.275 105.128 234.582C104.344 234.705 103.542 234.659 102.777 234.447C102.011 234.235 101.3 233.861 100.692 233.352C100.147 232.884 99.7177 232.298 99.4357 231.638C99.0574 230.828 98.8942 229.935 98.9617 229.044C98.9809 228.877 99.0094 228.711 99.047 228.547C98.3073 229.152 97.4665 229.621 96.5632 229.934C95.6745 230.232 94.7314 230.332 93.7998 230.227C92.8092 230.103 91.8571 229.767 91.0079 229.243C90.3889 228.868 89.8688 228.35 89.4911 227.733C89.0769 227.05 88.8679 226.263 88.8892 225.466C88.9461 224.462 89.2881 223.495 89.8751 222.677C90.5796 221.705 91.5322 220.938 92.6338 220.457C93.7328 219.962 94.8909 219.609 96.0797 219.407C97.0587 219.221 98.048 219.095 99.0422 219.028C100.117 218.969 101.195 218.969 102.27 219.028L103.1 219.071C102.465 218.597 101.886 217.769 102.365 217.026C102.867 216.301 103.872 216.51 104.536 216.922C104.062 215.913 103.588 214.9 103.176 213.854C102.854 212.958 102.589 212.043 102.384 211.114C102.091 209.978 101.914 208.815 101.853 207.644C101.78 206.436 101.982 205.227 102.446 204.108C102.886 203.125 103.596 202.286 104.493 201.689C105.188 201.239 106.002 201.005 106.83 201.017C107.568 201.037 108.289 201.239 108.93 201.604C109.307 201.828 109.66 202.092 109.982 202.39C110.349 202.72 110.679 203.088 110.968 203.488C111.511 204.252 111.877 205.126 112.039 206.049C112.198 207.013 112.165 207.999 111.945 208.95C111.897 209.154 111.845 209.353 111.788 209.552C112.504 209.07 113.339 208.794 114.201 208.752C114.954 208.685 115.714 208.785 116.424 209.045C117.139 209.341 117.784 209.782 118.319 210.341C118.854 210.899 119.268 211.562 119.533 212.287C119.81 213.063 119.873 213.898 119.718 214.706C119.547 215.568 119.226 216.393 118.77 217.144C118.302 217.948 117.701 218.666 116.993 219.269C116.291 219.848 115.487 220.291 114.623 220.576C112.857 221.136 110.966 221.171 109.181 220.675C109.082 220.652 108.984 220.623 108.887 220.59C110.135 221.418 111.254 222.426 112.205 223.582L112.182 223.572Z" fill="#3E9AF6"/>
<path d="M77.6884 201.751C76.3849 201.277 74.4889 200.056 73.1143 198.911C74.2529 200.651 74.9073 202.662 75.0103 204.738C75.0598 205.825 74.9187 206.913 74.5932 207.952C74.2408 209.006 73.6995 209.987 72.9958 210.849C71.7302 212.425 69.9101 213.831 67.8245 213.977C66.8708 214.023 65.9183 213.864 65.0312 213.511C64.1442 213.158 63.343 212.62 62.6816 211.932C62.0915 211.305 61.6537 210.55 61.4018 209.727C61.05 208.711 60.9668 207.622 61.16 206.565C61.2031 206.367 61.2585 206.173 61.3259 205.982C60.3657 206.61 59.3017 207.062 58.1833 207.317C57.0831 207.563 55.9419 207.563 54.8416 207.317C53.6839 207.039 52.5994 206.516 51.6611 205.784C50.9692 205.257 50.4147 204.572 50.0447 203.786C49.6359 202.917 49.4861 201.95 49.6134 200.998C49.826 199.808 50.3735 198.703 51.1918 197.812C52.158 196.739 53.3958 195.944 54.7753 195.512C56.1563 195.059 57.5902 194.787 59.0413 194.703C60.2347 194.606 61.4331 194.582 62.6294 194.632C63.9224 194.703 65.2105 194.845 66.4878 195.058L67.469 195.214C66.7722 194.589 66.1892 193.505 66.8575 192.681C67.5543 191.881 68.7251 192.26 69.4645 192.838C69.0142 191.569 68.5781 190.296 68.2369 188.994C67.9471 187.879 67.7302 186.747 67.5875 185.605C67.3838 184.209 67.3219 182.796 67.4026 181.387C67.4713 179.935 67.8683 178.518 68.5639 177.241C69.2167 176.121 70.1752 175.21 71.3273 174.614C72.2154 174.165 73.2173 173.992 74.2045 174.117C75.0801 174.224 75.9145 174.55 76.6314 175.063C77.0547 175.379 77.4424 175.739 77.788 176.138C78.1856 176.571 78.5338 177.048 78.826 177.558C79.3751 178.541 79.6989 179.634 79.774 180.758C79.8421 181.929 79.6811 183.103 79.3 184.213C79.2194 184.445 79.1294 184.687 79.0346 184.909C79.9526 184.426 80.9852 184.204 82.0208 184.265C82.929 184.278 83.8228 184.493 84.6373 184.895C85.4547 185.338 86.1715 185.945 86.7425 186.678C87.3136 187.411 87.7265 188.255 87.9553 189.155C88.1799 190.118 88.1489 191.123 87.8652 192.071C87.5556 193.076 87.0745 194.021 86.4432 194.864C85.781 195.764 84.9699 196.545 84.0448 197.173C83.1252 197.777 82.1013 198.204 81.0254 198.433C78.8438 198.872 76.5815 198.669 74.5126 197.85L74.1713 197.708C75.5222 198.868 77.0817 200.511 77.7548 201.713L77.6884 201.751Z" fill="#3E9AF6"/>
<path d="M44.2952 171.698C43.1386 170.784 41.6597 168.858 40.6691 167.267C41.2156 169.415 41.1797 171.67 40.5648 173.8C40.2375 174.912 39.716 175.959 39.0243 176.89C38.3021 177.832 37.4138 178.634 36.4031 179.257C34.5829 180.403 32.2603 181.184 30.1131 180.611C29.1356 180.327 28.2306 179.836 27.4595 179.172C26.6883 178.508 26.0689 177.686 25.6433 176.763C25.2647 175.925 25.0862 175.011 25.1219 174.093C25.1183 172.947 25.414 171.819 25.9798 170.822C26.0889 170.639 26.2108 170.463 26.3448 170.297C25.1603 170.593 23.9328 170.678 22.7187 170.548C21.5239 170.412 20.3742 170.013 19.3533 169.378C18.285 168.696 17.3751 167.794 16.6847 166.732C16.1683 165.961 15.8433 165.079 15.7367 164.157C15.6307 163.139 15.8199 162.113 16.2818 161.199C16.902 160.068 17.8306 159.136 18.9599 158.51C20.3072 157.767 21.8297 157.399 23.3681 157.445C24.9132 157.463 26.4493 157.683 27.9374 158.099C29.1736 158.418 30.3892 158.811 31.5778 159.277C32.8532 159.799 34.1 160.389 35.3129 161.043L36.2609 161.545C35.7869 160.674 35.5688 159.377 36.5263 158.78C37.5075 158.217 38.555 159.007 39.0954 159.845C39.0954 158.425 39.0954 156.977 39.1997 155.547C39.2985 154.324 39.4758 153.108 39.7306 151.907C40.011 150.431 40.4414 148.988 41.0151 147.6C41.5847 146.154 42.48 144.858 43.6316 143.813C44.6775 142.91 45.9605 142.325 47.3288 142.128C48.3793 141.985 49.4487 142.158 50.4003 142.625C51.2417 143.047 51.9648 143.672 52.5049 144.442C52.8222 144.908 53.0877 145.406 53.2964 145.929C53.5443 146.509 53.7256 147.116 53.8368 147.737C54.0502 148.917 53.9968 150.13 53.6804 151.287C53.3407 152.493 52.7638 153.619 51.9835 154.6C51.8223 154.813 51.6517 155.017 51.4763 155.216C52.5691 155.045 53.6878 155.18 54.709 155.604C55.6178 155.933 56.4419 156.461 57.1216 157.147C57.7876 157.88 58.2941 158.743 58.609 159.682C58.9239 160.621 59.0405 161.614 58.9513 162.6C58.8454 163.648 58.4644 164.648 57.8468 165.502C57.1818 166.408 56.3637 167.191 55.4294 167.816C54.447 168.491 53.3572 168.996 52.2062 169.307C51.0704 169.597 49.8902 169.671 48.7271 169.525C46.3785 169.215 44.1714 168.228 42.3755 166.685L42.0769 166.425C43.0249 168.058 44.0345 170.259 44.2952 171.703V171.698Z" fill="#3E9AF6"/>
<path d="M23.5674 130.27C22.8469 129.016 22.1928 126.73 21.8705 124.893C21.5899 127.06 20.7304 129.112 19.382 130.834C18.6735 131.731 17.8138 132.498 16.8414 133.101C15.8356 133.698 14.7286 134.105 13.5755 134.303C11.4899 134.687 9.0725 134.554 7.3187 133.243C6.52998 132.623 5.88301 131.842 5.42113 130.952C4.95925 130.063 4.69313 129.084 4.6406 128.083C4.6001 127.174 4.77212 126.269 5.14304 125.437C5.55978 124.397 6.23712 123.481 7.11014 122.777C7.27768 122.649 7.45343 122.532 7.63628 122.427C6.45749 122.262 5.31681 121.892 4.26614 121.334C3.22298 120.772 2.3179 119.987 1.61648 119.033C0.888326 118.018 0.38573 116.859 0.14234 115.634C-0.043711 114.741 -0.0128305 113.816 0.2324 112.936C0.507719 111.965 1.05737 111.094 1.81556 110.428C2.78701 109.625 3.96442 109.11 5.21414 108.941C6.72012 108.752 8.24939 108.971 9.6413 109.576C11.047 110.16 12.371 110.924 13.5802 111.848C14.5933 112.592 15.5604 113.396 16.4764 114.257C17.4541 115.2 18.3797 116.196 19.2493 117.239L19.9081 118.039C19.7849 117.064 20.0693 115.805 21.1642 115.606C22.2639 115.445 22.937 116.553 23.1266 117.499C23.6385 116.183 24.1694 114.872 24.7951 113.604C25.3332 112.519 25.9412 111.471 26.6152 110.465C27.4189 109.222 28.348 108.064 29.3881 107.01C30.4449 105.899 31.742 105.044 33.1801 104.511C34.4687 104.07 35.8562 104.005 37.1807 104.321C38.1983 104.572 39.1167 105.123 39.8161 105.902C40.4323 106.596 40.8657 107.432 41.077 108.335C41.1959 108.876 41.2563 109.429 41.2571 109.983C41.2682 110.605 41.2126 111.227 41.0912 111.838C40.8476 112.993 40.3524 114.081 39.6408 115.024C38.8845 115.999 37.944 116.816 36.8726 117.428C36.6498 117.561 36.3986 117.689 36.1806 117.802C37.2523 118.044 38.2364 118.576 39.0246 119.341C39.7277 119.983 40.2811 120.771 40.6456 121.651C40.987 122.568 41.1346 123.547 41.0791 124.524C41.0236 125.502 40.7663 126.457 40.3233 127.331C39.8388 128.251 39.1214 129.027 38.2425 129.584C37.3024 130.171 36.2657 130.588 35.1804 130.815C34.0356 131.078 32.8537 131.142 31.687 131.004C30.5456 130.846 29.444 130.476 28.4401 129.911C26.3952 128.762 24.7299 127.043 23.648 124.964C23.5911 124.846 23.5295 124.732 23.4726 124.619C23.7523 126.465 23.8613 128.841 23.5674 130.256V130.27Z" fill="#3E9AF6"/>
<path d="M20.0839 86.4714C19.9361 84.711 20.0527 82.9384 20.4299 81.2125C19.4457 83.0037 18.0009 84.5005 16.2445 85.5483C15.3263 86.0901 14.3206 86.4681 13.2725 86.6655C12.1941 86.8431 11.0924 86.8238 10.0209 86.6087C8.06801 86.2394 6.01085 85.3069 4.92539 83.5698C4.44743 82.7634 4.1477 81.8643 4.04632 80.9328C3.94495 80.0013 4.04427 79.0589 4.33763 78.1688C4.61371 77.3708 5.0675 76.6458 5.66483 76.0482C6.38756 75.2774 7.29678 74.7052 8.30501 74.3868C8.49441 74.3302 8.68768 74.2875 8.88329 74.259C7.89861 73.7151 7.0177 73.002 6.28103 72.1526C5.56119 71.3095 5.03532 70.319 4.74053 69.2509C4.4525 68.1213 4.40887 66.9433 4.61255 65.7955C4.75349 64.9547 5.09309 64.1596 5.60321 63.4761C6.17191 62.7236 6.94521 62.1501 7.83101 61.8241C8.95758 61.4503 10.1671 61.4027 11.3197 61.6868C12.6968 62.0311 13.9559 62.739 14.9647 63.7364C15.9909 64.7214 16.8847 65.8352 17.6239 67.0499C18.2559 68.0417 18.8273 69.0707 19.335 70.1314C19.871 71.2842 20.3456 72.4645 20.757 73.6673L21.0698 74.5903C21.2926 73.7004 21.9704 72.6969 22.9895 72.8957C24.0039 73.1324 24.2125 74.3158 24.0513 75.2246C24.9424 74.2779 25.8525 73.2886 26.8242 72.3845C27.6611 71.6218 28.5462 70.9135 29.4739 70.2639C30.5932 69.4453 31.7921 68.7412 33.0526 68.1622C34.3448 67.5503 35.7605 67.2426 37.1906 67.2629C38.4638 67.3136 39.6965 67.7239 40.7456 68.4463C41.5429 69.0111 42.1536 69.8005 42.4994 70.7136C42.8004 71.5267 42.8948 72.4017 42.7743 73.2602C42.6948 73.7719 42.5597 74.2735 42.3714 74.756C42.1707 75.3028 41.9117 75.8265 41.5988 76.318C40.9982 77.247 40.1984 78.0312 39.2572 78.6138C38.2658 79.2101 37.1679 79.6087 36.0245 79.7877C35.7828 79.8303 35.5505 79.8587 35.2946 79.8824C36.1365 80.4555 36.8052 81.2478 37.2285 82.1734C37.6341 82.9665 37.8591 83.8393 37.8874 84.7295C37.8722 85.6405 37.669 86.5386 37.2906 87.3677C36.9122 88.1968 36.3666 88.9391 35.688 89.5481C34.9562 90.1881 34.0685 90.624 33.1142 90.812C32.0957 91.0044 31.0513 91.0172 30.0284 90.8499C28.9403 90.6888 27.8873 90.3447 26.9143 89.8322C25.9676 89.3126 25.1268 88.6207 24.4352 87.792C23.049 86.1082 22.1858 84.0566 21.9515 81.8894C21.9515 81.7663 21.923 81.648 21.9136 81.5249C21.5296 83.2289 20.8186 85.3401 20.0839 86.4714Z" fill="#3E9AF6"/>
<path d="M35.7728 46.2935C36.3324 44.8675 37.1007 43.5323 38.0528 42.3316C36.605 43.3531 34.9091 43.9678 33.1421 44.1114C32.2189 44.1822 31.2903 44.0925 30.3977 43.8463C29.491 43.5739 28.6413 43.1393 27.8902 42.5635C26.5156 41.5316 25.269 40.0217 25.0889 38.2608C25.025 37.452 25.1354 36.639 25.4126 35.8764C25.6897 35.1138 26.1273 34.4193 26.6957 33.8397C27.212 33.3212 27.8415 32.9291 28.5349 32.6942C29.3908 32.368 30.3166 32.2685 31.2224 32.4055C31.3926 32.4347 31.5605 32.4759 31.7249 32.5285C31.1627 31.7315 30.7485 30.84 30.502 29.8967C30.2644 28.9677 30.2369 27.9976 30.4214 27.0566C30.6268 26.0681 31.0422 25.1352 31.6396 24.3207C32.0698 23.7224 32.6369 23.2355 33.2938 22.9006C34.0255 22.531 34.8483 22.3798 35.6638 22.4651C36.6786 22.5977 37.6351 23.0145 38.4225 23.6674C39.3644 24.4575 40.0738 25.4883 40.4749 26.6495C40.8989 27.8037 41.1698 29.0084 41.2807 30.2328C41.3944 31.2448 41.4466 32.2628 41.4371 33.2812C41.4072 34.3799 41.3202 35.4764 41.1764 36.5662C41.1433 36.8455 41.1053 37.1248 41.0674 37.404C41.5793 36.7934 42.4894 36.2727 43.2099 36.8171C43.9114 37.3851 43.6175 38.3886 43.1483 39.0324C44.2148 38.6158 45.286 38.2135 46.3857 37.8916C47.3267 37.6156 48.2846 37.4006 49.2534 37.2478C50.4359 37.0391 51.6365 36.9503 52.8368 36.9828C54.0786 37.0022 55.2995 37.3049 56.4061 37.8679C57.3753 38.392 58.1757 39.1798 58.7145 40.14C59.1275 40.8909 59.3043 41.7487 59.2216 42.6014C59.1436 43.3494 58.8814 44.0666 58.4585 44.6889C58.2022 45.056 57.9066 45.394 57.5769 45.6971C57.2111 46.0452 56.8091 46.353 56.3776 46.6154C55.5558 47.1088 54.6347 47.4143 53.6806 47.51C52.6843 47.5939 51.6813 47.483 50.7275 47.1834C50.5237 47.1219 50.3246 47.0556 50.1256 46.9799C50.5626 47.7458 50.7807 48.6169 50.756 49.4981C50.7637 50.27 50.6019 51.0343 50.282 51.737C49.9224 52.4399 49.4215 53.0612 48.8106 53.562C48.1998 54.0629 47.4921 54.4326 46.7317 54.6481C45.9169 54.8683 45.0581 54.8683 44.2432 54.6481C43.3789 54.405 42.564 54.0125 41.8353 53.4884C41.0536 52.9494 40.3706 52.2801 39.8161 51.5098C39.2772 50.7466 38.8865 49.8892 38.6642 48.9822C38.2293 47.1425 38.3413 45.2162 38.9866 43.4392C39.0197 43.3398 39.0577 43.2404 39.0956 43.141C38.1557 44.3535 37.037 45.4165 35.7776 46.2935H35.7728Z" fill="#3E9AF6"/>
<path d="M62.1891 21.7172C63.0954 20.8589 64.1241 20.1395 65.2417 19.5824C63.819 19.835 62.3546 19.7043 60.9994 19.2038C60.2923 18.9363 59.6377 18.547 59.0654 18.0535C58.4846 17.5428 58.0026 16.9299 57.6434 16.2453C56.9846 15.0099 56.5912 13.462 57.0652 12.0988C57.2988 11.4797 57.6625 10.9177 58.1318 10.4507C58.6011 9.98368 59.1651 9.62243 59.7859 9.39124C60.3466 9.1875 60.9469 9.11621 61.5397 9.18296C62.2837 9.23669 63.0009 9.48303 63.6206 9.89772C63.7366 9.97539 63.846 10.0625 63.9476 10.1581C63.8073 9.37537 63.8073 8.574 63.9476 7.79132C64.1044 7.02658 64.4281 6.30577 64.8956 5.68018C65.3904 5.02123 66.0208 4.4757 66.7442 4.08026C67.2701 3.78772 67.8585 3.6254 68.4601 3.60691C69.1248 3.5773 69.7836 3.74179 70.3561 4.08026C71.0603 4.53436 71.6222 5.17744 71.9772 5.93579C72.3938 6.84615 72.5575 7.85163 72.4512 8.84689C72.3632 9.84606 72.1449 10.8295 71.8018 11.7722C71.5326 12.5574 71.216 13.3257 70.8538 14.0727C70.4526 14.8741 70.0079 15.6531 69.5219 16.4063C69.405 16.5988 69.2817 16.7928 69.1522 16.9885C69.7447 16.7187 70.5742 16.6429 70.9391 17.2962C71.2567 17.9589 70.6927 18.5979 70.1239 18.9103C71.0719 18.9718 71.9867 19.0428 72.911 19.1848C73.7002 19.3068 74.4807 19.4791 75.2478 19.7008C76.1939 19.9546 77.1119 20.3035 77.9875 20.7421C78.8979 21.1875 79.6941 21.8352 80.3149 22.6355C80.8467 23.3603 81.1637 24.2198 81.2297 25.1159C81.2721 25.8033 81.107 26.4876 80.7557 27.0803C80.4393 27.6053 79.9981 28.0443 79.4711 28.3583C79.1529 28.5405 78.816 28.6881 78.4663 28.7985C78.0777 28.9315 77.6755 29.0204 77.267 29.0636C76.4883 29.1435 75.7015 29.0497 74.9634 28.7891C74.1988 28.5082 73.4967 28.0804 72.8968 27.53C72.7688 27.4164 72.6455 27.298 72.5223 27.1702C72.5829 27.8873 72.4417 28.607 72.1147 29.2482C71.8576 29.8222 71.4754 30.3316 70.996 30.7393C70.4869 31.1342 69.9017 31.4199 69.277 31.5788C68.6522 31.7376 68.0014 31.766 67.3652 31.6623C66.6889 31.5427 66.0562 31.2472 65.5308 30.8055C64.9754 30.3297 64.5071 29.7611 64.1467 29.1252C63.764 28.4599 63.4964 27.735 63.3551 26.9809C63.2224 26.2316 63.232 25.464 63.3836 24.7183C63.6991 23.21 64.4487 21.8264 65.5403 20.7374L65.7204 20.5575C64.6093 21.1254 63.4188 21.5227 62.1891 21.7362V21.7172Z" fill="#3E9AF6"/>
<path d="M92.1789 11.6775C93.0869 11.3063 94.0456 11.0733 95.0229 10.9864C93.9063 10.7619 92.8694 10.2458 92.0177 9.49063C91.5759 9.09191 91.207 8.61939 90.9275 8.09425C90.6533 7.55245 90.4799 6.96545 90.4156 6.36179C90.3199 5.8028 90.3386 5.23023 90.4706 4.67866C90.6026 4.12708 90.8451 3.60791 91.1835 3.15249C91.5325 2.76491 91.9605 2.45629 92.4387 2.2473C92.917 2.03832 93.4344 1.93379 93.9564 1.94072C94.4258 1.95429 94.8861 2.07406 95.3025 2.29099C95.8332 2.54621 96.29 2.93231 96.6297 3.41283C96.6898 3.50539 96.7436 3.60185 96.7909 3.70157C96.9163 3.08826 97.149 2.50182 97.4782 1.96912C97.8076 1.44769 98.2477 1.00493 98.7675 0.672141C99.3226 0.329626 99.9449 0.110097 100.592 0.0283862C101.063 -0.0375685 101.542 0.00949104 101.991 0.165657C102.486 0.342952 102.92 0.658346 103.242 1.07449C103.627 1.60852 103.854 2.24011 103.896 2.89688C103.947 3.68463 103.783 4.47137 103.422 5.17369C103.07 5.88123 102.627 6.53998 102.104 7.13335C101.685 7.63505 101.234 8.10937 100.754 8.5534C100.231 9.02926 99.682 9.47493 99.1087 9.88824L98.6679 10.2101C99.1798 10.177 99.8245 10.3711 99.8908 10.9438C99.9382 11.5213 99.3363 11.829 98.8291 11.8905C99.4974 12.2029 100.161 12.5248 100.796 12.8893C101.34 13.2082 101.863 13.5591 102.365 13.9401C102.986 14.3977 103.559 14.9162 104.076 15.488C104.613 16.0773 105.007 16.7817 105.228 17.547C105.414 18.2305 105.402 18.9525 105.195 19.6298C105.026 20.146 104.708 20.6007 104.28 20.9362C103.899 21.2329 103.449 21.4297 102.972 21.509C102.686 21.5507 102.397 21.5618 102.109 21.5421C101.789 21.528 101.471 21.4788 101.161 21.3954C100.567 21.2303 100.017 20.9361 99.5496 20.5339C99.0707 20.1073 98.6781 19.5932 98.393 19.0191C98.3314 18.8961 98.2745 18.773 98.2224 18.6452C98.0611 19.1922 97.7509 19.6838 97.3265 20.0652C96.9701 20.4099 96.5409 20.6703 96.0704 20.8273C95.5834 20.9722 95.0717 21.0146 94.5675 20.9519C94.0632 20.8891 93.5776 20.7226 93.1411 20.4629C92.6789 20.1815 92.2995 19.783 92.0414 19.3079C91.7688 18.8006 91.5875 18.2495 91.5058 17.6796C91.4039 17.078 91.4039 16.4635 91.5058 15.8619C91.625 15.2734 91.8516 14.7119 92.1741 14.2052C92.8416 13.1902 93.7902 12.391 94.9044 11.9047L95.0892 11.8242C94.1094 11.924 93.1201 11.8745 92.1552 11.6775H92.1789Z" fill="#3E9AF6"/>
<path d="M121.904 12.6289C122.701 12.5904 123.5 12.6718 124.274 12.8704C123.478 12.3979 122.823 11.7212 122.378 10.9107C122.143 10.4868 121.982 10.0257 121.904 9.54745C121.843 9.05744 121.87 8.56047 121.984 8.08007C122.062 7.62596 122.232 7.19243 122.483 6.80588C122.734 6.41933 123.061 6.08786 123.444 5.83166C123.816 5.62804 124.227 5.5066 124.65 5.47557C125.073 5.44453 125.497 5.50463 125.895 5.65179C126.256 5.78688 126.58 6.00404 126.843 6.28607C127.181 6.62333 127.426 7.04249 127.554 7.50258C127.576 7.58958 127.592 7.6782 127.601 7.76766C127.865 7.33293 128.201 6.94699 128.597 6.62688C128.992 6.31755 129.449 6.09787 129.938 5.98313C130.453 5.86949 130.987 5.86949 131.502 5.98313C131.88 6.05486 132.235 6.21731 132.536 6.45648C132.868 6.72544 133.116 7.08341 133.251 7.48838C133.401 8.00475 133.401 8.55299 133.251 9.06936C133.072 9.68377 132.731 10.2393 132.265 10.6788C131.808 11.1275 131.295 11.5157 130.739 11.8337C130.281 12.1041 129.806 12.346 129.317 12.5579C128.788 12.7798 128.247 12.971 127.696 13.1307L127.269 13.2585C127.672 13.3721 128.113 13.694 128.009 14.1531C127.886 14.6265 127.345 14.6785 126.938 14.5933C127.364 15.0146 127.786 15.4359 128.175 15.8903C128.505 16.281 128.811 16.692 129.09 17.121C129.441 17.6407 129.74 18.1941 129.981 18.773C130.237 19.3701 130.353 20.0176 130.322 20.6664C130.274 21.2394 130.066 21.7874 129.72 22.2474C129.451 22.5977 129.085 22.8611 128.668 23.0048C128.293 23.1276 127.894 23.1552 127.506 23.0852C127.277 23.0434 127.052 22.9751 126.838 22.8817C126.595 22.7816 126.363 22.6563 126.146 22.5077C125.731 22.2218 125.386 21.8465 125.136 21.4096C124.881 20.9557 124.72 20.455 124.662 19.9375C124.662 19.8239 124.662 19.715 124.629 19.6061C124.357 19.9766 123.988 20.2649 123.563 20.4392C123.197 20.6109 122.796 20.6982 122.392 20.6948C121.979 20.6728 121.576 20.566 121.206 20.3811C120.837 20.1962 120.509 19.9372 120.245 19.6203C119.967 19.2797 119.785 18.8712 119.719 18.4369C119.647 17.9748 119.658 17.5035 119.752 17.0453C119.841 16.5578 120.013 16.0889 120.259 15.6584C120.504 15.2407 120.825 14.8729 121.207 14.5744C121.992 13.974 122.937 13.6168 123.923 13.5472H124.084C123.307 13.3585 122.562 13.0537 121.875 12.6431L121.904 12.6289Z" fill="#3E9AF6"/>
<path d="M168.616 38.5164C168.974 38.7557 169.294 39.0477 169.564 39.3826C169.38 38.9335 169.317 38.4435 169.384 37.9625C169.42 37.7064 169.504 37.4591 169.631 37.2336C169.758 37.0028 169.928 36.7987 170.133 36.6324C170.314 36.4666 170.526 36.3391 170.758 36.2577C170.989 36.1764 171.234 36.1428 171.479 36.1591C171.704 36.1913 171.918 36.2714 172.109 36.3939C172.3 36.5165 172.461 36.6785 172.584 36.8691C172.682 37.0295 172.747 37.2083 172.773 37.3945C172.808 37.6474 172.777 37.9049 172.683 38.1424C172.683 38.185 172.641 38.2276 172.617 38.2702C172.869 38.1682 173.137 38.1121 173.408 38.1046C173.677 38.0975 173.944 38.1492 174.191 38.256C174.445 38.3757 174.673 38.5465 174.859 38.7578C174.995 38.913 175.092 39.0978 175.143 39.2974C175.2 39.5194 175.19 39.7532 175.115 39.9696C175.013 40.2369 174.837 40.47 174.608 40.6417C174.331 40.8494 174.004 40.9786 173.66 41.0157C173.318 41.0606 172.972 41.0606 172.631 41.0157C172.349 40.9829 172.069 40.9339 171.792 40.8689C171.495 40.7939 171.202 40.7022 170.915 40.5944L170.692 40.5139C170.83 40.689 170.915 40.9872 170.721 41.1293C170.522 41.2807 170.247 41.1293 170.124 40.973C170.171 41.2855 170.214 41.6026 170.233 41.9197C170.249 42.1925 170.249 42.4659 170.233 42.7386C170.215 43.0726 170.165 43.4041 170.081 43.7279C169.994 44.0641 169.832 44.3764 169.607 44.6415C169.401 44.8658 169.137 45.0295 168.844 45.1149C168.617 45.1834 168.374 45.1834 168.147 45.1149C167.95 45.0464 167.773 44.931 167.63 44.7788C167.546 44.6854 167.472 44.5839 167.408 44.4758C167.336 44.3546 167.277 44.226 167.232 44.0924C167.15 43.8374 167.125 43.5678 167.156 43.3019C167.198 43.0266 167.291 42.7615 167.431 42.5209C167.46 42.4688 167.493 42.4215 167.526 42.3694C167.289 42.4357 167.038 42.4357 166.801 42.3694C166.596 42.3307 166.402 42.2484 166.232 42.128C166.063 41.9868 165.925 41.812 165.827 41.6149C165.729 41.4177 165.674 41.2024 165.663 40.9825C165.653 40.7475 165.706 40.514 165.815 40.3056C165.937 40.0851 166.098 39.888 166.289 39.7234C166.484 39.5437 166.709 39.3981 166.953 39.2927C167.195 39.1952 167.454 39.1439 167.716 39.1412C168.243 39.1355 168.761 39.2853 169.204 39.5719L169.275 39.6193C169.004 39.2899 168.785 38.9211 168.626 38.5258L168.616 38.5164Z" fill="#3E9AF6"/>
<path d="M148.429 22.8817C149.022 23.0593 149.586 23.3241 150.102 23.6674C149.642 23.127 149.336 22.4731 149.216 21.774C149.149 21.4062 149.149 21.0295 149.216 20.6617C149.296 20.2893 149.44 19.9337 149.642 19.6108C149.815 19.2997 150.049 19.0266 150.33 18.8078C150.611 18.589 150.933 18.4291 151.278 18.3375C151.599 18.2811 151.93 18.2942 152.246 18.3758C152.562 18.4575 152.858 18.6058 153.112 18.8109C153.337 19.003 153.516 19.2422 153.638 19.5114C153.799 19.844 153.871 20.2126 153.847 20.5812C153.842 20.6496 153.832 20.7176 153.818 20.7847C154.118 20.5307 154.462 20.3334 154.833 20.2025C155.197 20.0737 155.586 20.0284 155.97 20.07C156.376 20.1171 156.768 20.2511 157.117 20.4629C157.374 20.6148 157.59 20.8258 157.748 21.0782C157.926 21.3611 158.015 21.6909 158.004 22.0249C157.986 22.4396 157.849 22.8404 157.61 23.1799C157.327 23.5913 156.937 23.9184 156.482 24.1266C156.029 24.3343 155.551 24.4838 155.06 24.5715C154.658 24.6541 154.251 24.711 153.842 24.7419C153.398 24.7656 152.954 24.7656 152.51 24.7419H152.169C152.429 24.9265 152.671 25.2721 152.477 25.5798C152.273 25.8827 151.856 25.7975 151.581 25.6318C151.785 26.0484 151.989 26.4649 152.154 26.8909C152.298 27.2602 152.418 27.638 152.515 28.0222C152.639 28.4867 152.717 28.9624 152.747 29.4423C152.784 29.9392 152.706 30.438 152.519 30.9002C152.342 31.3079 152.053 31.6573 151.685 31.9084C151.404 32.0933 151.074 32.192 150.737 32.1924C150.435 32.1873 150.139 32.1076 149.875 31.9605C149.717 31.87 149.569 31.7637 149.434 31.6434C149.281 31.501 149.144 31.3423 149.026 31.17C148.792 30.8594 148.63 30.5004 148.552 30.1192C148.482 29.7223 148.49 29.3154 148.576 28.9216C148.576 28.8364 148.618 28.7559 148.637 28.6707C148.347 28.8776 148.003 28.996 147.647 29.0115C147.337 29.0443 147.025 29.0071 146.732 28.9027C146.436 28.7839 146.168 28.6052 145.944 28.3779C145.721 28.1507 145.547 27.8797 145.433 27.582C145.32 27.2618 145.291 26.918 145.348 26.5833C145.415 26.2285 145.541 25.8876 145.722 25.575C145.918 25.2367 146.169 24.9341 146.466 24.6804C146.757 24.4417 147.09 24.2588 147.448 24.1408C148.173 23.9029 148.952 23.8815 149.69 24.0792L149.813 24.1124C149.293 23.7761 148.827 23.3645 148.429 22.8911V22.8817Z" fill="#3E9AF6"/>
<path d="M213.571 97.6329C203.048 93.0698 191.676 91.522 181.339 93.4911C171.001 95.4603 161.739 100.994 156.378 108.638C151.017 116.283 149.268 126.517 152.425 134.393C155.397 142.374 162.971 148.968 171.579 151.59C180.353 154.383 190.501 153.753 199.986 150.572C209.679 147.552 218.879 141.579 228.682 135.752C238.484 129.925 248.817 123.79 260.544 120.453C272.119 117.362 285.296 117.348 295.331 123.506C284.04 120.884 272.93 123.359 263.331 127.998C253.733 132.637 245.058 139.406 235.915 146.326C226.771 153.247 217.092 160.281 205.309 165.123C193.525 169.965 179.713 171.248 166.64 167.177C153.567 163.107 142.139 153.076 137.759 139.302C135.835 132.67 135.619 125.66 137.129 118.923C138.64 112.185 141.828 105.937 146.4 100.757C155.325 90.4948 168.308 85.7282 180.684 85.5436C192.745 85.4981 204.418 89.7895 213.571 97.6329Z" fill="#3E9AF6"/>
<path d="M250.448 147.874C268.905 163.178 296.094 163.836 311.636 150.544C315.352 147.366 318.287 143.379 320.216 138.89C322.094 134.561 322.841 129.826 322.387 125.13C321.647 116.283 315.277 108.255 306.778 104.014C298.279 99.7725 287.695 99.2802 277.693 101.836C267.535 104.203 257.762 110.115 247.618 116.146C237.474 122.176 226.838 128.902 214.722 132.656C202.735 136.225 188.922 136.556 178.409 130.204C190.202 133.006 201.844 130.204 211.836 125.177C221.946 120.169 230.796 112.785 240.437 105.557C250.078 98.3288 260.596 91.0534 273.465 86.9021C286.263 82.9449 301.071 82.9118 314.167 89.3872C320.66 92.6714 326.28 97.4455 330.568 103.318C334.967 109.385 337.497 116.602 337.849 124.084C338.101 131.245 336.535 138.354 333.296 144.748C330.058 151.143 325.251 156.614 319.325 160.655C313.772 164.38 307.517 166.936 300.941 168.165C294.366 169.394 287.608 169.27 281.082 167.802C268.55 165.114 257.103 157.999 250.448 147.874Z" fill="#FAD101"/>
<path d="M250.448 147.874C256.724 151.936 260.734 158.842 263.947 165.511C265.464 168.933 266.734 172.422 267.924 175.878C269.208 179.573 270.096 183.394 270.574 187.276C271.771 195.728 270.334 204.343 266.459 211.951C264.327 216.005 261.411 219.595 257.88 222.517C254.162 225.497 249.818 227.601 245.172 228.67C240.614 229.704 235.892 229.794 231.298 228.935C226.735 228.028 222.411 226.184 218.6 223.52C211.259 218.359 206.215 210.552 204.531 201.746C202.87 193.376 204.572 184.689 209.271 177.563C213.841 170.851 220.837 166.164 228.127 165.024C216.31 173.8 212.608 187.986 216.964 198.371C218.862 203.455 222.452 207.733 227.132 210.489C231.441 213.066 236.585 213.867 241.475 212.723C250.765 210.891 257.472 200.184 257.771 187.815C257.913 184.57 257.818 181.319 257.487 178.088C257.212 174.599 256.799 171.248 256.344 167.826C255.33 160.976 253.922 154.312 250.448 147.874Z" fill="#FAD101"/>
<path d="M213.57 97.6329C207.972 93.0699 204.09 86.3909 201.597 79.3901C199.072 72.0709 198.212 64.2816 199.08 56.5889C200.252 48.0633 204.337 40.204 210.646 34.3415C217.198 28.2177 225.799 24.75 234.772 24.6141C239.446 24.6172 244.062 25.6381 248.3 27.6057C252.68 29.7147 256.436 32.9229 259.202 36.9165C263.99 44.379 265.632 53.4281 263.772 62.0939C262.122 70.529 257.913 76.905 253.547 82.7414C249.049 88.4609 243.643 93.4065 237.545 97.3821C240.972 91.3661 243.981 85.1222 246.551 78.6943C249.03 72.5407 250.926 66.0511 250.926 60.5887C250.997 54.9085 249.386 49.4271 246.513 46.019C243.641 42.6109 239.588 40.9683 234.663 40.9541C229.569 41.0624 224.652 42.846 220.675 46.0284C216.383 49.421 213.2 54.0137 211.532 59.2207C209.745 65.2415 209.01 71.5249 209.361 77.7949C209.591 84.5998 211.005 91.3129 213.542 97.6329H213.57Z" fill="#3E9AF6"/>
<path d="M286.254 71.897C287.58 71.896 288.875 71.5026 289.977 70.7663C291.078 70.0301 291.937 68.9842 292.443 67.7608C292.95 66.5374 293.081 65.1916 292.822 63.8934C292.562 62.5952 291.923 61.4031 290.985 60.4677C290.047 59.5323 288.852 58.8957 287.552 58.6383C286.252 58.381 284.904 58.5145 283.68 59.022C282.456 59.5294 281.409 60.388 280.674 61.4892C279.938 62.5904 279.546 63.8848 279.547 65.2085C279.547 66.0875 279.721 66.9577 280.059 67.7695C280.396 68.5813 280.89 69.3189 281.513 69.9399C282.136 70.561 282.875 71.0535 283.689 71.3893C284.502 71.7251 285.374 71.8976 286.254 71.897Z" fill="#FAD101"/>
<path d="M187.036 191.323C188.362 191.322 189.657 190.928 190.759 190.192C191.861 189.456 192.719 188.41 193.225 187.187C193.732 185.963 193.864 184.617 193.604 183.319C193.345 182.021 192.705 180.829 191.767 179.894C190.829 178.958 189.635 178.322 188.334 178.064C187.034 177.807 185.687 177.94 184.462 178.448C183.238 178.955 182.192 179.814 181.456 180.915C180.72 182.016 180.328 183.311 180.329 184.634C180.332 186.409 181.039 188.11 182.297 189.364C183.554 190.619 185.259 191.323 187.036 191.323Z" fill="#3E9AF6"/>
</g>
<defs>
<clipPath id="clip0_908_6476">
<rect width="474" height="399" fill="white"/>
</clipPath>
</defs>
</svg>
