<svg width="62" height="80" viewBox="0 0 62 80" fill="none" xmlns="http://www.w3.org/2000/svg">
<path d="M26.3182 4.50994H26.524C26.9299 4.50994 27.3415 4.54986 27.7645 4.58406C29.6101 4.71777 31.4428 4.99224 33.2465 5.40509V1.00348C31.3882 0.539585 29.4926 0.240042 27.5815 0.108329C26.8556 0.0513134 26.0896 0.0171047 25.295 0H24.6319C16.4041 0.0613967 8.33148 2.23928 1.19458 6.32305V49.9971C4.82732 48.0418 8.69116 46.5478 12.696 45.5499C15.8628 44.7483 19.1001 44.2557 22.3625 44.0789H22.4882C23.0599 44.0789 23.5801 44.0333 24.1403 44.0276V39.5518C19.9081 39.6165 15.6984 40.1791 11.5985 41.2281C10.0836 41.6101 8.61449 42.0377 7.23683 42.5109L5.68197 43.0412V8.96857L6.35078 8.64929C11.4608 6.24718 16.9857 4.84584 22.6254 4.52135H22.7626C23.3857 4.48714 24.0145 4.47003 24.6319 4.47003H25.3064H25.335C25.6608 4.48144 25.9924 4.48714 26.3182 4.50994Z" fill="#979797"/>
<path d="M37.3742 9.12271C36.3395 9.12271 35.322 9.0828 34.3387 9.00868C33.144 8.92316 31.955 8.78062 30.8117 8.59246C30.1086 8.47273 29.4226 8.3359 28.7595 8.18195V51.3543C31.5774 52.049 34.4716 52.388 37.3742 52.3635C41.2052 52.3479 45.0199 51.8634 48.7327 50.921C52.9659 49.8701 57.03 48.231 60.8057 46.0518V3.14746C57.1742 5.09967 53.3124 6.59173 49.31 7.58899C45.4097 8.58738 41.4008 9.10251 37.3742 9.12271ZM54.7692 9.86962L56.3241 9.35077V43.3949L55.6495 43.7142C53.0822 44.9243 50.4016 45.8791 47.6466 46.565C44.2936 47.4232 40.8472 47.8656 37.3856 47.882C36.3509 47.882 35.322 47.8364 34.3273 47.7509L33.2526 47.6597V43.5488V12.6406L34.5045 12.7204C35.4134 12.7774 36.3566 12.8059 37.3627 12.8059C41.757 12.7927 46.1328 12.2373 50.3904 11.1525C51.871 10.7819 53.3401 10.3486 54.7692 9.86962Z" fill="#979797"/>
<path d="M4.24141 64.9121C4.01723 64.6787 3.74584 64.4954 3.44525 64.3745C3.14467 64.2536 2.82174 64.1978 2.4979 64.2108C2.15393 64.207 1.8124 64.2689 1.4918 64.3933C1.198 64.5111 0.931484 64.6877 0.708657 64.9121C0.486756 65.1302 0.313414 65.3925 0.199905 65.6818C0.07875 65.9905 0.0185775 66.3196 0.022698 66.6511V72.4838C0.00711374 72.8951 0.0852923 73.3044 0.251351 73.6812C0.384281 73.974 0.579309 74.2347 0.822992 74.4452C1.05757 74.6428 1.33268 74.7868 1.62901 74.8671C1.9167 74.9407 2.21232 74.979 2.50932 74.9811C2.83648 74.9848 3.16045 74.9167 3.45825 74.7816C3.74647 74.6524 4.00666 74.4684 4.22425 74.2399C4.44076 74.012 4.61497 73.7475 4.73874 73.4588C4.86477 73.1652 4.92897 72.8488 4.92737 72.5294V71.8738H3.4068V72.3926C3.41032 72.5717 3.37926 72.7498 3.31534 72.9171C3.26288 73.0389 3.18717 73.1493 3.09241 73.2421C2.99743 73.3187 2.88883 73.3767 2.77229 73.4132C2.66857 73.4454 2.56078 73.4626 2.45217 73.4645C2.3142 73.4806 2.17439 73.4601 2.04691 73.405C1.91943 73.35 1.80879 73.2623 1.72618 73.1509C1.58392 72.92 1.51425 72.6519 1.52612 72.3812V66.9647C1.51586 66.658 1.57853 66.3532 1.70903 66.0753C1.7894 65.9525 1.90279 65.8548 2.03623 65.7933C2.16967 65.7318 2.31778 65.709 2.4636 65.7275C2.59577 65.7222 2.72723 65.7491 2.84671 65.8057C2.96619 65.8623 3.07013 65.947 3.14958 66.0524C3.32126 66.2742 3.41199 66.5477 3.4068 66.8279V67.3353H4.92737V66.7651C4.93104 66.416 4.86699 66.0694 4.73874 65.7446C4.62864 65.4375 4.45973 65.1548 4.24141 64.9121Z" fill="#979797"/>
<path d="M13.3707 64.8502C13.1266 64.645 12.8479 64.4848 12.5476 64.3769C11.954 64.1563 11.3005 64.1563 10.7069 64.3769C10.4095 64.4836 10.1343 64.644 9.89515 64.8502C9.64842 65.0803 9.45357 65.3602 9.32351 65.6712C9.16701 66.0306 9.09094 66.4198 9.10058 66.8115V72.4047C9.09002 72.7966 9.16612 73.1859 9.32351 73.5451C9.4554 73.8468 9.65028 74.1169 9.89515 74.3376C10.1306 74.5529 10.4065 74.7195 10.7069 74.8279C11.3019 75.0407 11.9526 75.0407 12.5476 74.8279C12.8509 74.7185 13.1303 74.552 13.3707 74.3376C13.6144 74.1159 13.8091 73.846 13.9424 73.5451C14.0997 73.1859 14.1759 72.7966 14.1653 72.4047V66.8115C14.1749 66.4198 14.0989 66.0306 13.9424 65.6712C13.8109 65.3609 13.6163 65.0813 13.3707 64.8502ZM12.6562 72.3933C12.6682 72.543 12.6473 72.6936 12.595 72.8344C12.5427 72.9752 12.4601 73.1029 12.3532 73.2087C12.1486 73.3764 11.892 73.4681 11.6272 73.4681C11.3624 73.4681 11.1058 73.3764 10.9012 73.2087C10.7943 73.1029 10.7118 72.9752 10.6595 72.8344C10.6071 72.6936 10.5862 72.543 10.5983 72.3933V66.8001C10.5859 66.6512 10.6067 66.5015 10.659 66.3615C10.7114 66.2216 10.7941 66.0949 10.9012 65.9905C11.1058 65.8227 11.3624 65.7311 11.6272 65.7311C11.892 65.7311 12.1486 65.8227 12.3532 65.9905C12.4603 66.0949 12.543 66.2216 12.5954 66.3615C12.6478 66.5015 12.6685 66.6512 12.6562 66.8001V72.3933Z" fill="#979797"/>
<path d="M25.3696 74.8963V64.3027H23.889L21.9511 69.9074H21.9226L19.9676 64.3027H18.5042V74.8963H20.0247V68.4535H20.059L21.551 73.0033H22.3113L23.8147 68.4535H23.849V74.8963H25.3696Z" fill="#979797"/>
<path d="M34.0299 65.0439C33.7941 64.7853 33.4974 64.5893 33.1667 64.4737C32.8101 64.3609 32.4374 64.307 32.0634 64.3141H29.7769V74.9076H31.3031V70.7683H32.0748C32.5495 70.7887 33.0215 70.6887 33.4468 70.4775C33.7932 70.2877 34.0816 70.0079 34.2814 69.6679C34.4608 69.387 34.5813 69.0728 34.6358 68.7442C34.6932 68.3458 34.72 67.9436 34.7158 67.5412C34.7283 67.0334 34.6784 66.526 34.5672 66.0303C34.4733 65.662 34.2886 65.3229 34.0299 65.0439ZM33.2639 68.271C33.2578 68.4691 33.2091 68.6635 33.121 68.8411C33.0403 69.0014 32.91 69.1313 32.7494 69.2118C32.5237 69.3142 32.2767 69.3611 32.0291 69.3486H31.3031V65.7452H32.092C32.3286 65.7322 32.5646 65.7793 32.778 65.882C32.9361 65.9674 33.0625 66.1013 33.1381 66.264C33.2151 66.4449 33.2596 66.6379 33.2696 66.8342C33.2696 67.0623 33.2696 67.296 33.2696 67.5412C33.2696 67.7864 33.281 68.0543 33.2696 68.271H33.2639Z" fill="#979797"/>
<path d="M41.2439 64.3027H39.9748L37.6025 74.8963H39.1231L39.569 72.6156H41.644L42.0899 74.8963H43.6162L41.2439 64.3027ZM39.8377 71.1902L40.5865 67.3531L41.3354 71.1902H39.8377Z" fill="#979797"/>
<path d="M51.0766 70.6828H51.0423L48.75 64.3027H47.2866V74.8963H48.8072V68.5276H48.8358L51.1623 74.8963H52.5972V64.3027H51.0766V70.6828Z" fill="#979797"/>
<path d="M60.3712 64.3027L59.1479 68.5105H59.1136L57.8902 64.3027H56.2839L58.3704 70.4148V74.8963H59.891V70.4148L61.9775 64.3027H60.3712Z" fill="#979797"/>
<path d="M0 77.883H0.7317V79.9299H1.22903V77.883H1.96072V77.4668H0V77.883Z" fill="#979797"/>
<path d="M6.16201 77.4668L5.20166 79.9299H5.72756L5.93336 79.3597H6.92229L7.13381 79.9299H7.67686L6.69364 77.4668H6.16201ZM6.08197 78.9549L6.41926 78.0427L6.75652 78.9549H6.08197Z" fill="#979797"/>
<path d="M12.2562 79.0236H12.8279V79.3372C12.665 79.4662 12.4642 79.5384 12.2562 79.5424C12.1571 79.5481 12.058 79.5298 11.9674 79.4891C11.8769 79.4484 11.7975 79.3865 11.736 79.3087C11.6033 79.1231 11.5387 78.8976 11.5531 78.6701C11.5531 78.0999 11.7875 77.8491 12.262 77.8491C12.3891 77.8329 12.5177 77.8641 12.6232 77.9367C12.7287 78.0093 12.8036 78.1182 12.8336 78.2425L13.3252 78.1456C13.2223 77.6666 12.8679 77.4272 12.2734 77.4272C11.9545 77.4191 11.6443 77.531 11.4045 77.7407C11.2811 77.8641 11.1856 78.0124 11.1245 78.1757C11.0633 78.3389 11.0379 78.5134 11.0501 78.6872C11.0369 79.0242 11.1512 79.3539 11.3702 79.6109C11.4878 79.7408 11.633 79.843 11.7951 79.9101C11.9573 79.9771 12.1324 80.0074 12.3077 79.9986C12.6937 80.0126 13.0704 79.8778 13.3595 79.6223V78.6416H12.2848L12.2562 79.0236Z" fill="#979797"/>
<path d="M19.2644 77.4668H18.7671V79.9299H20.4992V79.5137H19.2644V77.4668Z" fill="#979797"/>
<path d="M24.5294 77.4668H24.0264V79.9242H24.5294V77.4668Z" fill="#979797"/>
<path d="M29.6681 79.1089L28.6563 77.4668H28.1704V79.9299H28.6334V78.322L29.6338 79.9299H30.1311V77.4668H29.6681V79.1089Z" fill="#979797"/>
<path d="M34.3214 78.8409H35.5562V78.4247H34.3214V77.883H35.6533V77.4668H33.8184V79.9299H35.6991V79.5137H34.3214V78.8409Z" fill="#979797"/>
<path d="M44.8169 78.4361H43.8394V77.4668H43.342V79.9299H43.8394V78.8523H44.8169V79.9299H45.3085V77.4668H44.8169V78.4361Z" fill="#979797"/>
<path d="M49.4924 78.8409H50.7272V78.4247H49.4924V77.883H50.8244V77.4668H48.9951V79.9299H50.8701V79.5137H49.4924V78.8409Z" fill="#979797"/>
<path d="M55.8379 78.858C55.9262 78.8582 56.0136 78.8403 56.0947 78.8054C56.1758 78.7706 56.2489 78.7195 56.3094 78.6554C56.3699 78.5913 56.4167 78.5155 56.4467 78.4326C56.4767 78.3498 56.4893 78.2617 56.4839 78.1738C56.5031 78.0658 56.4906 77.9546 56.448 77.8534C56.4055 77.7523 56.3345 77.6656 56.2438 77.6036C56.0192 77.4909 55.7687 77.4397 55.5178 77.4554H54.4717V79.9185H54.9633V78.8865H55.0662C55.1721 78.8808 55.278 78.9003 55.3749 78.9435C55.4463 78.9886 55.5068 79.049 55.5521 79.1203L56.0894 79.9185H56.6897L56.3867 79.4338C56.2501 79.2027 56.0624 79.0058 55.8379 78.858ZM55.3348 78.5216H54.9633V77.9001H55.3577C55.5298 77.8868 55.7028 77.9081 55.8665 77.9628C55.906 77.9893 55.9371 78.0263 55.9564 78.0697C55.9756 78.1131 55.9821 78.1611 55.9751 78.208C55.9807 78.2589 55.9712 78.3103 55.9478 78.3559C55.9245 78.4015 55.8882 78.4393 55.8436 78.4646C55.6777 78.5077 55.5055 78.5213 55.3348 78.5045V78.5216Z" fill="#979797"/>
<path d="M60.6224 78.8409H61.8572V78.4247H60.6224V77.883H61.9543V77.4668H60.1194V79.9299H62.0001V79.5137H60.6224V78.8409Z" fill="#979797"/>
</svg>
